
<svg width="40px" height="40px" viewBox="0 0 40 40" version="1.1" xmlns="http://www.w3.org/2000/svg" xmlns:xlink="http://www.w3.org/1999/xlink">
    <!-- Generator: Sketch 47.1 (45422) - http://www.bohemiancoding.com/sketch -->
    <desc>Created with Sketch.</desc>
    <defs></defs>
    <g id="Mobile-Center" stroke="none" stroke-width="1" fill="none" fill-rule="evenodd">
        <g id="CodePush---Migration" transform="translate(-720.000000, -85.000000)" fill-rule="nonzero" fill="#FFFFFF">
            <g id="Group-2" transform="translate(326.000000, 80.000000)">
                <path d="M434,40.8399373 L424.000042,45 L394,34.99925 L424.000005,39.3797662 L424.000005,5 L434,9.15990017 L434,40.8389374 L433.998221,40.8396775 Z M404,11.6665 L407.333333,12.4998125 L407.333333,18.4996625 L414,14.1664375 L414,19.1663125 L407.333333,22.4995625 L414,25.8328125 L414,30.8326875 L407.333333,26.4994625 L407.333333,32.4993125 L404,33.332625 L397.333333,27.4994375 L397.333333,24.9995 L401.179487,22.4995625 L397.333333,19.999625 L397.333333,17.4996875 L404,11.6665 Z M399.333333,18.4996625 L404,20.8329375 L404,14.99975 L399.333333,18.4996625 Z M404,29.999375 L404,24.1661875 L399.333333,26.4994625 L404,29.999375 Z M414,14.1664375 L419.833333,15.8330625 L419.833333,29.1660625 L414,30.8326875 L414,27.9160938 L414,25.8328125 L414,19.1663125 L414,14.1664375 Z" id="Combined-Shape"></path>
            </g>
        </g>
    </g>
</svg>