
<svg width="481px" height="250px" viewBox="0 0 481 250" version="1.1" xmlns="http://www.w3.org/2000/svg" xmlns:xlink="http://www.w3.org/1999/xlink">
    <!-- Generator: Sketch 47.1 (45422) - http://www.bohemiancoding.com/sketch -->
    <desc>Created with Sketch.</desc>
    <defs></defs>
    <g id="Mobile-Center" stroke="none" stroke-width="1" fill="none" fill-rule="evenodd">
        <g id="CodePush---Migration" transform="translate(-439.000000, -165.000000)">
            <g id="Group-6" transform="translate(439.000000, 165.000000)">
                <ellipse id="Oval-13" fill-opacity="0.200000003" fill="#000000" cx="232.554879" cy="134.592593" rx="114.554879" ry="114.592593"></ellipse>
                <g id="Group-4">
                    <g id="Group-262">
                        <path d="M413.998684,84.0764726 C413.998684,85.0327248 413.150262,86 411.992936,86 C410.829915,86 410,85.0327248 410,84.0764726 C410,82.95763 410.829915,82 411.992936,82 C413.150262,82 413.998684,82.95763 413.998684,84.0764726" id="Fill-8" fill="#DEDEDE"></path>
                        <path d="M261.844472,214.426645 C261.844472,216.286935 260.184558,217.952064 258.318046,217.952064 C256.455096,217.952064 255,216.286935 255,214.426645 C255,212.557403 256.455096,211.105339 258.318046,211.105339 C260.184558,211.105339 261.844472,212.557403 261.844472,214.426645" id="Fill-10" fill="#00A1E4"></path>
                        <path d="M133.197731,22.1138894 C133.197731,23.9463426 131.723803,25.2323859 130.063062,25.2323859 C128.402321,25.2323859 126.92681,23.9463426 126.92681,22.1138894 C126.92681,20.4604052 128.402321,19.1759458 130.063062,19.1759458 C131.723803,19.1759458 133.197731,20.4604052 133.197731,22.1138894" id="Fill-12" fill="#005396"></path>
                        <path d="M4.45780098,105.231161 C4.45780098,106.345939 3.52847037,107.279203 2.41231558,107.279203 C1.10933659,107.279203 0.180005981,106.345939 0.180005981,105.231161 C0.180005981,103.926839 1.10933659,103 2.41231558,103 C3.52847037,103 4.45780098,103.926839 4.45780098,105.231161" id="Fill-14" fill="#95CAF5"></path>
                        <path d="M414,174.832453 C414,175.746304 414.918236,176.485937 415.841222,176.485937 C416.765791,176.485937 417.503547,175.746304 417.503547,174.832453 C417.503547,173.913851 416.765791,173 415.841222,173 C414.918236,173 414,173.913851 414,174.832453" id="Fill-28" fill="#FFFFFF"></path>
                        <path d="M352.256551,208.174267 C352.256551,209.092869 353.18112,210.013055 354.099356,210.013055 C355.023925,210.013055 355.760097,209.092869 355.760097,208.174267 C355.760097,207.260416 355.023925,206.528702 354.099356,206.528702 C353.18112,206.528702 352.256551,207.260416 352.256551,208.174267" id="Fill-30" fill="#D9EEF8"></path>
                        <path d="M243.967359,203.128658 C243.967359,204.244972 245.096248,205.384542 246.225138,205.384542 C247.344362,205.384542 248.245154,204.244972 248.245154,203.128658 C248.245154,202.002654 247.344362,201.105339 246.225138,201.105339 C245.096248,201.105339 243.967359,202.002654 243.967359,203.128658" id="Fill-32" fill="#FFFFFF"></path>
                        <path d="M83.5720195,196.898266 C83.5720195,198.246215 84.632781,199.146792 85.7154893,199.146792 C86.7817374,199.146792 87.8498145,198.246215 87.8498145,196.898266 C87.8498145,195.768167 86.7817374,194.867589 85.7154893,194.867589 C84.632781,194.867589 83.5720195,195.768167 83.5720195,196.898266" id="Fill-34" fill="#FFFFFF"></path>
                        <path d="M219.589471,41.8499675 C219.589471,42.7536357 220.490629,43.6557485 221.390241,43.6557485 C222.289853,43.6557485 223.011707,42.7536357 223.011707,41.8499675 C223.011707,40.9525208 222.289853,40.2323859 221.390241,40.2323859 C220.490629,40.2323859 219.589471,40.9525208 219.589471,41.8499675" id="Fill-46" fill="#FFFFFF"></path>
                        <path d="M99,13.6709059 C99,14.7700611 99.7361722,15.5033592 100.660741,15.5033592 C101.784789,15.5033592 102.522545,14.7700611 102.522545,13.6709059 C102.522545,12.7396332 101.784789,12 100.660741,12 C99.7361722,12 99,12.7396332 99,13.6709059" id="Fill-48" fill="#DEDEDE"></path>
                        <path d="M347,31.6229851 C347,32.5270641 347.720634,33.4233627 348.622199,33.4233627 C349.701602,33.4233627 350.422236,32.5270641 350.422236,31.6229851 C350.422236,30.7189062 349.701602,30 348.622199,30 C347.720634,30 347,30.7189062 347,31.6229851" id="Fill-52" fill="#DCEDF7"></path>
                        <path d="M383.343791,132.987779 C383.343791,134.454375 382.238741,135.740419 380.764813,135.740419 C379.284553,135.740419 377.978441,134.454375 377.978441,132.987779 C377.978441,131.521183 379.284553,130.423612 380.764813,130.423612 C382.238741,130.423612 383.343791,131.521183 383.343791,132.987779" id="Fill-56" fill="#005396"></path>
                        <polygon id="Fill-58" fill="#DEDEDE" points="42.3894631 64.2112212 43.4945131 71.1815123 50.5221873 72.1001146 43.4945131 73.0155493 42.3894631 80.0032621 41.4648941 73.0155493 34.457801 72.1001146 41.4648941 71.1815123"></polygon>
                        <polygon id="Fill-58" fill="#DEDEDE" points="472.389463 144.211221 473.494513 151.181512 480.522187 152.100115 473.494513 153.015549 472.389463 160.003262 471.464894 153.015549 464.457801 152.100115 471.464894 151.181512"></polygon>
                        <polygon id="Fill-60" fill="#DEDEDE" points="168.944327 0.197016906 170.049377 7.18631348 177.056471 8.28546866 170.049377 9.20407097 168.944327 16.1759458 168.019758 9.20407097 161 8.28546866 168.019758 7.18631348"></polygon>
                        <polygon id="Fill-60" fill="#FFFFFF" points="319.187912 134.205608 320.292962 141.194904 327.300055 142.294059 320.292962 143.212662 319.187912 150.184537 318.263343 143.212662 311.243585 142.294059 318.263343 141.194904"></polygon>
                        <polygon id="Fill-62" fill="#FFFFFF" points="287.010475 51 288.115525 57.970291 295.124202 59.0757814 288.115525 59.9896323 287.010475 66.9789289 286.08749 59.9896323 279.078813 59.0757814 286.08749 57.970291"></polygon>
                        <path d="M194.276727,137.235079 L228.962313,78.0865931 L225.458767,76.0751708 L221.030651,73.5030843 L220.85017,73.3225315 C217.528688,71.483743 213.455201,72.5908172 211.612396,75.7077299 L180.43194,129.159298 L194.276727,137.235079 Z" id="Fill-70" fill="#A9DDF8"></path>
                        <path d="M193.33981,157.810504 L190.574018,160.010398 L193.33981,157.810504 Z" id="Fill-72" fill="#B3009D"></path>
                        <path d="M184.1223,165.158848 L181.354926,167.358742 L184.1223,165.158848 Z" id="Fill-74" fill="#B3009D"></path>
                        <path d="M186.513989,163.308973 C186.333508,163.308973 186.146694,163.494277 185.96463,163.494277 L185.96463,163.693835 L186.513989,163.308973 Z" id="Fill-76" fill="#7D337D"></path>
                        <path d="M221.031284,134.662993 L192.971249,123.277076 L160.870973,157.070554 C160.315282,158.177628 154.96893,170.111539 168.427425,177.279805 L221.031284,134.662993 Z" id="Fill-78" fill="#009EE1"></path>
                        <path d="M150.342285,172.683309 C151.634149,164.426975 159.945771,157.809871 160.87034,157.071821 L160.683526,157.071821 L160.87034,157.071821 L133.730123,138.514471 L127.090325,133.378217 C127.090325,133.378217 125.431166,131.911621 123.955656,133.750409 L106.974616,155.790529 C106.974616,155.790529 105.689085,156.889685 107.163013,158.177312 L110.664976,160.928367 C114.538984,163.87423 126.540966,155.237784 128.751066,152.672033 L150.342285,172.683309 Z" id="Fill-80" fill="#FFFFFF"></path>
                        <path d="M112.876659,158.176995 L113.063473,158.176995 L112.876659,158.176995 C111.402732,156.890952 112.696178,155.790213 112.696178,155.790213 L128.939463,134.849247 L127.091908,133.3779 C127.091908,133.3779 125.431166,131.911304 123.955656,133.750092 L106.974616,155.790213 C106.974616,155.790213 105.689085,156.890952 107.163013,158.176995 L110.666559,160.92805 C111.958423,161.841901 113.981709,161.661348 116.399204,160.742746 L112.876659,158.176995 Z" id="Fill-82" fill="#95CAF5"></path>
                        <path d="M181.354767,152.672508 C180.987473,152.672508 180.431782,152.853061 180.062904,153.038365 L167.690461,162.941848 C166.772224,163.694152 166.772224,164.980195 167.50998,165.892462 L171.751282,171.396157 L173.41044,173.22861 L175.08543,171.763598 L170.275771,165.711909 C169.533266,164.980195 169.72008,163.873121 170.457835,163.128736 C170.826713,162.941848 171.194007,162.761295 171.751282,162.761295 C172.299057,162.761295 172.669518,162.941848 173.043145,163.494594 L178.031702,169.563704 L179.694026,168.097108 L174.898616,162.027997 C174.148195,161.294699 174.330259,160.189209 175.08543,159.455911 C175.452724,159.276942 175.823185,159.090054 176.19048,159.090054 C176.746171,159.090054 177.297113,159.276942 177.664407,159.823352 L182.640298,165.892462 L184.302623,164.42745 L179.507213,158.356756 C178.769457,157.623458 178.956271,156.524303 179.694026,155.791004 C180.062904,155.6057 180.431782,155.425147 180.799076,155.425147 C181.354767,155.425147 181.905709,155.6057 182.273004,156.156862 L187.068414,162.027997 L188.911219,160.743538 L183.010759,153.405806 C182.640298,152.853061 181.905709,152.672508 181.354767,152.672508" id="Fill-84" fill="#3FC6FF"></path>
                        <path d="M188.911852,160.743063 L185.96558,162.942957 L188.911852,160.743063 Z" id="Fill-86" fill="#B3009D"></path>
                        <path d="M184.303098,164.427133 L181.537306,166.625444 L184.303098,164.427133 Z" id="Fill-88" fill="#B3009D"></path>
                        <path d="M166.954763,178.565373 L168.428691,177.27933 C154.970196,170.111064 160.316548,158.177153 160.870656,157.071663 C159.946087,157.811296 151.634465,164.426817 150.342602,172.683151 L155.888432,177.832075 C159.209915,180.397826 163.638031,180.584714 166.954763,178.565373" id="Fill-90" fill="#00587B"></path>
                        <path d="M107.712847,154.692483 L106.975091,155.790054 C106.975091,155.790054 106.427316,156.157495 106.427316,156.890793 C106.427316,156.157495 106.975091,155.790054 106.975091,155.790054 L107.712847,154.692483 Z M128.751541,152.853694 C128.564727,153.038999 128.195849,153.219552 127.828555,153.586992 C128.195849,153.219552 128.564727,153.038999 128.751541,152.853694 L128.751541,152.853694 Z M128.751541,152.673142 L128.751541,152.853694 L128.751541,152.673142 Z" id="Fill-92" fill="#530053"></path>
                        <path d="M128.196641,148.436168 C126.540649,150.268621 119.346743,155.791321 114.169789,156.890476 L113.981393,157.071029 L113.433617,157.071029 L113.246804,157.071029 C113.063156,157.071029 112.876343,157.256334 112.695862,157.256334 L112.509048,157.256334 L112.328567,157.256334 L112.14017,157.256334 C112.328567,157.443222 112.509048,157.810663 112.876343,158.17652 C112.876343,158.17652 113.433617,158.543961 116.398887,160.743855 C120.451792,159.277259 125.617663,155.604433 127.829347,153.586676 C128.196641,153.220819 128.563936,153.038682 128.752332,152.853378 L128.752332,152.672825 L150.341968,172.684101 C150.528782,171.763915 150.89766,170.663176 151.078141,169.564021 L149.79261,168.464866 L128.196641,148.436168 Z" id="Fill-94" fill="#DEDEDE"></path>
                        <path d="M107.712847,154.692483 L106.975091,155.790054 C106.975091,155.790054 106.427316,156.157495 106.427316,156.890793 C106.427316,157.25665 106.607797,157.624091 107.161905,158.176836 C107.161905,158.176836 107.712847,158.544277 110.665451,160.929476 C110.845932,161.110029 111.035912,161.110029 111.216393,161.110029 L111.403207,161.295333 L111.770501,161.295333 L111.958898,161.475886 L112.327776,161.475886 L112.508257,161.475886 L112.877134,161.475886 L113.063948,161.475886 L113.246012,161.475886 L113.801703,161.475886 L113.982184,161.475886 C114.168998,161.475886 114.351062,161.295333 114.539459,161.295333 L114.71994,161.295333 C115.274048,161.110029 115.843988,160.929476 116.398096,160.742588 C113.432826,158.544277 112.877134,158.176836 112.877134,158.176836 C112.508257,157.810979 112.327776,157.443538 112.140962,157.25665 L111.958898,157.25665 L111.770501,157.071346 L111.403207,157.071346 L111.216393,157.071346 C111.035912,157.071346 110.845932,156.890793 110.845932,156.890793 L110.665451,156.890793 C110.478638,156.705489 110.298157,156.705489 110.111343,156.523352 C109.193107,155.60475 108.268538,155.05834 107.712847,154.692483" id="Fill-96" fill="#009EE1"></path>
                        <path d="M165.1118,175.068349 L165.1118,175.068349 C165.1118,175.266324 165.292281,175.266324 165.292281,175.266324 C165.292281,175.266324 165.1118,175.266324 165.1118,175.068349" id="Fill-98" fill="#530053"></path>
                        <path d="M165.1118,175.068349 L165.1118,175.068349 C165.1118,175.266324 165.292281,175.266324 165.292281,175.266324 C165.292281,175.266324 165.1118,175.266324 165.1118,175.068349" id="Fill-100" fill="#A1008D"></path>
                        <path d="M151.078299,169.563704 C150.897818,170.662859 150.52894,171.763598 150.342127,172.683784 L155.887958,177.832709 C157.735512,179.297721 159.765131,180.031019 161.976814,180.031019 C163.639139,180.031019 165.480361,179.486193 166.954289,178.566007 L168.428216,177.279963 L168.247735,177.279963 C167.141102,176.546665 166.218116,175.998672 165.293547,175.266957 C165.293547,175.266957 165.111483,175.266957 165.111483,175.068983 C164.006433,175.44751 162.895051,175.632814 161.790001,175.632814 C159.578318,175.632814 157.179821,174.880511 155.337016,173.596051 L151.078299,169.563704 Z" id="Fill-102" fill="#0A416E"></path>
                        <path d="M232.833946,138.514154 L205.34385,130.264155 L212.718238,183.337195 L212.718238,183.516164 C213.269179,184.621655 219.188637,196.01074 233.384888,190.139604 L232.833946,138.514154 Z" id="Fill-104" fill="#009EE1"></path>
                        <path d="M218.450882,201.340217 C212.718238,195.090554 212.718238,184.621655 212.718238,183.516164 L212.718238,183.337195 L181.16732,192.705355 L173.042512,194.723113 C173.042512,194.723113 170.82608,195.090554 171.383354,197.477336 L178.032652,224.300523 C178.032652,224.300523 178.032652,226.139312 180.062271,225.58815 C179.875457,225.58815 180.062271,225.58815 184.303573,224.667964 C189.098983,223.567225 189.836738,208.684284 189.279464,205.564204 L218.450882,201.340217 Z" id="Fill-106" fill="#FFFFFF"></path>
                        <path d="M183.565659,221.170148 L183.754056,221.170148 L183.565659,221.170148 C181.724437,221.716558 181.537623,219.884105 181.537623,219.884105 L175.266702,194.171159 L173.043937,194.723905 C173.043937,194.723905 170.825921,195.089762 171.383196,197.476544 L178.032493,224.301315 C178.032493,224.301315 178.032493,226.140104 180.062112,225.587359 C179.875299,225.587359 180.062112,225.587359 184.303414,224.667172 C185.965739,224.301315 187.069205,222.654166 187.806961,220.249962 L183.565659,221.170148 Z" id="Fill-108" fill="#95CAF5"></path>
                        <path d="M233.014902,163.873438 L233.203299,167.544679 L233.014902,163.873438 Z" id="Fill-110" fill="#B3009D"></path>
                        <path d="M186.888091,88.7420632 L189.280255,85.995759 C189.835946,85.4430139 190.391638,84.8902687 190.94258,84.5244115 C192.047629,83.9764177 193.339493,83.6105606 194.644022,83.7911135 L221.766823,82.6792879 L208.290914,97.017403 L197.230915,97.017403 L179.874665,116.659655 C180.061479,117.77148 180.249876,118.691666 180.061479,119.238076 C178.956429,122.543461 177.295688,125.84251 176.559516,127.49441 L176.003824,128.77887 C174.517231,128.227709 173.781059,126.393671 174.328835,124.928659 L174.517231,124.741771 L175.634947,121.989132 L169.352943,129.524838 C168.615188,130.445024 167.323325,130.445024 166.585569,129.711726 C166.216691,129.345869 165.847814,128.961007 165.847814,128.414597 C165.111642,129.160565 164.006592,129.160565 163.082023,128.414597 C162.526331,127.860268 162.344267,126.761112 162.713145,126.027814 C161.976973,126.208367 161.421281,126.027814 160.87034,125.475069 C160.134167,124.928659 159.945771,124.010057 160.316231,123.276759 C159.945771,123.089871 159.391662,123.089871 159.021202,122.72243 C158.286612,121.989132 158.104548,120.522536 158.840721,119.790821 L159.021202,119.790821 L159.021202,119.603933 L164.373886,114.087568 L186.888091,88.7420632 Z" id="Fill-112" fill="#00A1E4"></path>
                        <path d="M170.458152,107.118227 L164.374044,114.086935 L159.02136,119.604884 L159.02136,119.791772 L158.840879,119.791772 C158.104707,120.523486 158.286771,121.990082 159.02136,122.72338 C159.391821,123.089237 159.945929,123.089237 160.31639,123.276125 C159.945929,124.009423 160.134326,124.928026 160.870498,125.476019 C161.42144,126.027181 161.977131,126.209318 162.713303,126.027181 C162.344425,126.760479 162.52649,127.861218 163.082181,128.413963 C164.00675,129.159931 165.1118,129.159931 165.847972,128.413963 C165.847972,128.960373 166.21685,129.345236 166.585727,129.712677 C167.323483,130.445975 168.615346,130.445975 169.353102,129.524205 L175.635105,121.990082 L174.515806,124.742721 L174.328993,124.928026 C173.781217,126.394622 174.515806,128.227075 176.003983,128.77982 L176.559674,127.493777 C177.295846,125.841877 178.956587,122.542827 180.061637,119.237443 C180.250034,118.692617 180.061637,117.77243 179.874824,116.659021 L181.537148,114.641264 L170.458152,107.118227 Z" id="Fill-114" fill="#FFFFFF"></path>
                        <polygon id="Fill-116" fill="#025477" points="183.384703 115.920338 168.615346 105.999433 170.644965 102.887272 185.407989 112.987146"></polygon>
                        <path d="M299.651629,86.7282652 L276.950611,100.868406 L253.518169,92.4140968 C240.04226,89.1087122 234.509094,89.6614574 227.669817,79.5599996 C224.16627,81.7583099 218.633104,81.0250119 214.947494,85.442222 C205.891784,95.9111207 201.283187,112.434876 191.497638,122.176812 C198.336915,124.009265 226.745248,138.33471 234.140216,139.433865 C237.086488,132.097717 240.960496,121.809371 249.078972,109.503267 L275.294619,115.374403 C276.581733,115.920813 278.055661,115.920813 279.349107,115.74026 C280.08528,115.553372 280.821452,115.187515 281.559207,114.820074 L306.103031,99.5823624 L299.651629,86.7282652 Z" id="Fill-118" fill="#00A1E4"></path>
                        <path d="M304.997823,97.3834185 L281.190171,112.068385 C280.453999,112.62113 279.716244,112.801683 278.978488,112.988571 C278.430713,113.175459 277.875021,113.175459 277.31933,113.175459 C276.581575,113.175459 275.664922,112.988571 274.920833,112.801683 L250.364344,107.304324 L249.078813,109.502634 L275.294461,115.37377 C276.212697,115.741211 276.950452,115.92018 277.686625,115.92018 C278.243899,115.92018 278.798007,115.741211 279.348949,115.741211 C280.085121,115.554323 280.821294,115.186882 281.559049,114.821025 L306.102873,99.5833127 L304.997823,97.3834185 Z" id="Fill-120" fill="#0177A9"></path>
                        <path d="M229.143586,141.285799 L229.330399,163.308497 C229.881341,163.69336 230.435449,164.23977 230.992724,164.613546 L230.617513,164.979403 C230.248636,164.613546 229.70086,164.23977 229.143586,163.873913 L223.797234,163.873913 C222.50537,163.873913 221.587134,164.792515 221.587134,165.89167 L221.587134,181.685295 C221.587134,182.78445 222.50537,183.703053 223.797234,183.703053 L229.51088,183.703053 L229.51088,191.417728 C230.617513,191.053455 231.909377,190.686014 233.384888,190.139604 L233.202824,184.803792 L233.202824,181.504742 L225.459558,181.504742 C224.354508,181.504742 223.61042,180.765109 223.61042,179.66437 C223.61042,178.565215 224.354508,177.831917 225.459558,177.831917 L233.202824,177.831917 L233.202824,175.633606 L225.459558,175.633606 C224.354508,175.633606 223.61042,174.881303 223.61042,173.783731 C223.61042,172.861961 224.354508,171.949694 225.459558,171.949694 L233.202824,171.949694 L233.202824,169.745049 L225.459558,169.745049 C224.354508,169.745049 223.61042,169.011751 223.61042,167.912596 C223.61042,166.990826 224.354508,166.078558 225.459558,166.078558 L232.466651,166.078558 C232.278255,166.078558 232.097774,165.89167 231.909377,165.712701 L232.097774,165.34526 C232.466651,165.525813 232.833946,165.89167 233.014427,166.078558 L233.014427,163.873913 L232.833946,142.931364 L229.143586,141.285799 Z" id="Fill-122" fill="#3FC6FF"></path>
                        <path d="M245.386395,108.769969 C238.379302,119.237284 234.508461,128.226917 231.728421,135.216213 L235.244633,136.682809 C238.012007,129.524046 241.882848,120.344358 249.078338,109.503267 L245.386395,108.769969 Z" id="Fill-124" fill="#00C9FF"></path>
                        <polygon id="Fill-126" fill="#6C105D" points="306.471276 102.148747 296.516327 87.4621968 299.464183 85.4428555 309.605945 100.135741"></polygon>
                        <path d="M324.557048,83.4246228 C324.376568,82.8592073 324.189754,82.4917664 323.819293,82.1259092 C324.924343,81.7584683 325.662098,80.4740089 325.294804,79.192717 C324.924343,78.4530838 324.189754,77.9082576 323.271518,77.7197857 C323.451999,77.1749595 323.451999,76.8075186 323.271518,76.2547734 C322.90264,75.1540344 321.42238,74.4223202 320.315747,74.7897611 L317.000597,76.0742205 L316.264424,76.2547734 L315.70715,76.2547734 C315.70715,76.2547734 311.266369,72.4029789 308.682642,74.9687302 C305.9216,77.3539286 305.552723,81.2073069 305.9216,83.0587657 L305.9216,83.24407 L300.019557,86.5431193 L307.944887,98.4833656 L317.549955,92.0468142 L317.736769,91.8599262 L322.714243,90.214361 C324.00769,89.6616158 324.557048,88.3755726 324.189754,87.0942807 C324.00769,86.7284236 323.819293,86.3609826 323.451999,86.1756784 C324.557048,85.6229332 324.924343,84.523778 324.557048,83.4246228" id="Fill-128" fill="#FFFFFF"></path>
                        <g id="Group-5" transform="translate(297.300055, 45.669465)">
                            <g id="codepush-seeklogo.com" transform="translate(31.403068, 22.331621) rotate(-19.000000) translate(-31.403068, -22.331621) translate(2.903068, 9.331621)" fill-rule="nonzero">
                                <g id="Group" transform="translate(-0.000000, 0.000000)">
                                    <path d="M31.051156,-5.61328761e-13 C31.051156,5.50588712 31.1130109,10.522362 31.1130109,15.7223666 C31.1130109,16.2117787 31.2985755,16.945897 30.6181717,16.945897 C29.6903484,17.0070735 29.875913,16.1506022 29.9377679,15.66119 C30.1851874,14.0706004 29.5666384,13.6423648 27.7109918,13.7035413 C21.2780829,13.8258943 14.8451741,13.7035413 8.41226536,13.7035413 C5.07210117,13.7035413 2.78347015,11.7458925 2.72161526,9.05412548 C2.65976036,6.17882889 5.13395607,4.09882707 8.59783002,4.03765057 C14.9688839,4.03765057 21.3399378,3.97647404 27.7109918,4.09882707 C29.4429287,4.09882707 30.3088971,3.85412099 29.9377679,2.14117832 C29.8140581,1.40706004 29.875913,0.611765236 30.2470422,-5.61328761e-13 L31.051156,-5.61328761e-13 L31.051156,-5.61328761e-13 Z" id="Shape" fill="#00A1E4"></path>
                                    <path d="M13.3606567,14.9270717 L18.3090481,14.9270717 C19.2987264,14.9270717 19.7317106,15.0494248 19.2368715,16.0894257 C17.8760639,18.8423693 16.5771111,21.6564893 15.2163035,24.4094328 C14.7833193,25.2659043 14.1029154,25.6941398 12.9895274,25.6941398 L3.52572887,25.6941398 C2.28863102,25.6941398 1.85564677,25.2047278 2.35048591,24.2259033 C3.77314843,21.4117832 5.19581094,18.5976632 6.55661858,15.7835431 C6.86589303,15.1106013 7.36073219,14.9270717 8.16484578,14.9270717 L13.3606567,14.9270717 Z M45.1540714,13.5811882 C43.1747148,14.0094239 41.6901974,14.0094239 40.9479387,12.1129517 C40.824229,11.807069 40.4530995,11.3788334 40.1438252,11.3176569 C37.2984999,10.6447151 38.2881783,8.62588982 38.1644686,7.03530021 C38.1026137,6.60706455 38.2881783,6.17882889 38.7211627,6.11765236 C41.4427777,5.93412279 40.5768093,1.71294266 44.0406833,2.20235485 C44.9066517,2.3247079 45.2777812,2.38588443 44.9066517,3.30353227 C43.4839892,6.7294176 43.6076992,10.0941264 45.1540714,13.5811882 Z M8.52651283e-13,0.489412189 C4.39169735,0.489412189 8.72153981,0.550588712 13.1132372,0.489412189 C14.907029,0.489412189 16.0204171,1.0400009 16.5152562,2.81412009 C10.8246061,2.93647314 5.13395607,3.60941488 8.52651283e-13,0.489412189 Z M34.2676103,8.68706635 L34.2676103,14.9882483 C34.2676103,15.538837 34.3294652,16.2729553 33.5253516,16.2117787 C32.8449478,16.1506022 33.0923673,15.4776605 32.9686575,14.9882483 C32.2882537,12.4188343 32.5356734,9.78824377 32.4119634,7.15765326 C32.2882537,5.32235755 33.1542224,3.67059141 33.0305124,1.89647223 C33.0305124,1.52941309 33.1542224,1.10117742 33.6490613,1.10117742 C34.3294652,1.10117742 34.2676103,1.65176614 34.2676103,2.0800018 L34.2676103,8.68706635 Z M36.8655158,8.5647133 L36.8655158,14.4988361 C36.8655158,14.9270717 36.803661,15.538837 36.2469669,15.538837 C35.6902728,15.538837 35.6284179,14.9882483 35.6284179,14.5600126 L35.6284179,2.87529661 C35.6284179,2.44706093 35.6902728,1.89647223 36.2469669,1.83529571 C36.803661,1.83529571 36.8655158,2.38588443 36.8655158,2.81412009 L36.8655158,8.5647133 Z" id="Combined-Shape" fill="#00587B"></path>
                                </g>
                            </g>
                            <rect id="Rectangle-3" fill="#FFFFFF" transform="translate(20.436554, 34.631905) rotate(-33.000000) translate(-20.436554, -34.631905) " x="13.6290492" y="32.5896537" width="13.6150103" height="4.08450308" rx="2.04225154"></rect>
                            <rect id="Rectangle-3" fill="#FFFFFF" transform="translate(20.436554, 38.716408) rotate(-33.000000) translate(-20.436554, -38.716408) " x="13.6290492" y="36.6741568" width="13.6150103" height="4.08450308" rx="2.04225154"></rect>
                        </g>
                        <polygon id="Fill-132" fill="#C2DB4D" points="307.944728 98.2960024 306.29032 99.3951576 307.944728 98.4828905"></polygon>
                        <polygon id="Fill-134" fill="#025477" points="306.471276 102.148747 296.516327 87.4621968 299.464183 85.4428555 309.605945 100.135741"></polygon>
                        <path d="M235.613827,141.652448 C235.24495,142.751603 233.951503,143.298013 232.833788,142.932156 L190.761149,125.842985 C189.649766,125.294991 189.098824,124.008948 189.649766,123.088762 L190.392271,120.890452 C190.94163,119.791297 192.235076,119.238551 193.153313,119.604408 L235.433346,136.682493 C236.35,137.235238 236.905691,138.514946 236.538396,139.435132 L235.613827,141.652448 Z" id="Fill-136" fill="#005679"></path>
                        <path d="M312.76072,68.9059549 C310.161161,72.9573079 307.764247,75.1540344 307.764247,75.1540344 L301.306513,86.7284236 C301.306513,86.7284236 305.921442,92.4142551 308.869297,88.9283177 C311.817153,85.6229332 310.898916,78.6399718 310.898916,78.6399718 C310.898916,78.6399718 311.635088,76.9880715 312.76072,75.8889163 C316.075869,73.5021341 314.970819,69.271812 312.76072,68.9059549" id="Fill-152" fill="#FFFFFF"></path>
                        <path d="M250.732747,102.334368 L256.834269,103.620411 L250.732747,102.334368 Z" id="Fill-154" fill="#C233B1"></path>
                        <polygon id="Fill-156" fill="#7D337D" points="254.992097 92.96605 254.992097 92.96605 262.186004 95.5444717"></polygon>
                        <polygon id="Fill-158" fill="#C233B1" points="254.992097 92.96605 254.992097 92.96605 262.186004 95.5444717"></polygon>
                        <path d="M233.384413,192.15752 L233.384413,190.139762 C219.188162,196.010898 213.268704,184.621813 212.717763,183.516323 C212.717763,184.621813 212.717763,195.090712 218.450407,201.340375 L226.008442,200.24122 C230.06768,199.327369 232.833471,196.010898 233.384413,192.15752" id="Fill-160" fill="#00587B"></path>
                        <path d="M229.700069,191.418203 L229.511672,191.418203 L229.700069,191.418203 Z" id="Fill-162" fill="#A1008D"></path>
                        <polygon id="Fill-164" fill="#530053" points="184.490228 224.667172 184.490228 224.667172 184.303414 224.667172"></polygon>
                        <path d="M216.603486,198.761795 L214.76068,198.961354 L185.408781,203.179005 C185.964472,205.744757 185.595594,214.747059 183.385494,219.515872 L183.385494,219.704344 C183.197098,219.883313 183.197098,220.070201 183.010284,220.24917 C182.829803,220.437642 182.829803,220.616611 182.641406,220.803499 C182.460925,220.982469 182.460925,220.982469 182.460925,221.169357 C182.641406,221.169357 182.829803,221.349909 183.010284,221.349909 C183.197098,221.349909 183.385494,221.169357 183.565975,221.169357 C183.565975,221.169357 183.934853,221.169357 187.807277,220.24917 C189.468019,215.486693 189.650083,207.944651 189.279622,205.564204 L218.45104,201.340217 C217.714868,200.42795 217.159177,199.694652 216.603486,198.761795" id="Fill-166" fill="#DEDEDE"></path>
                        <path d="M238.98887,84.4974788 C238.98887,84.4974788 238.98887,84.677284 238.80926,85.0432035 C237.70324,87.7828675 232.916788,99.6736717 226.129417,113.209536 C222.642775,120.163583 218.790611,127.291125 214.732053,134.065367 C212.122878,138.445914 209.265913,142.024846 206.600987,145.744917 C206.600987,146.772093 206.600987,146.772093 208.800041,146.772093 C211.857618,142.531182 214.492177,138.871884 217.503406,133.879252 C230.529864,111.742704 241.188306,85.4059684 241.188306,85.4059684 L238.98887,84.4974788 Z" id="Fill-182" fill="#00587B"></path>
                        <path d="M187.806486,220.249804 C183.935645,221.16999 183.565184,221.16999 183.565184,221.16999 C183.384703,221.16999 183.197889,221.348959 183.011076,221.348959 C182.829012,221.348959 182.640615,221.16999 182.460134,221.16999 C182.27332,221.16999 182.27332,221.348959 182.27332,221.348959 L182.092839,221.535847 C181.904443,221.535847 181.904443,221.7164 181.723962,221.7164 L181.537148,221.903288 L181.355084,222.101263 L181.16827,222.101263 C180.986206,222.288151 180.799393,222.288151 180.618912,222.288151 C179.327048,222.655592 178.220415,222.834561 177.664724,223.021449 L178.032018,224.301157 C178.032018,224.301157 178.032018,225.772504 179.507529,225.772504 C179.694343,225.772504 179.874824,225.772504 180.061637,225.5872 C180.061637,225.5872 180.618912,225.400312 184.302939,224.667014 L184.489753,224.667014 C184.489753,224.667014 184.671817,224.488045 184.858631,224.488045 L185.040695,224.301157 C185.227508,224.301157 185.227508,224.301157 185.407989,224.120604 C185.596386,223.933716 185.776867,223.933716 185.776867,223.754747 L185.965264,223.754747 C186.145745,223.567859 186.145745,223.387306 186.332558,223.200418 C186.514622,223.021449 186.514622,222.834561 186.701436,222.655592 L186.888249,222.46712 C186.888249,222.288151 187.06873,222.101263 187.06873,221.903288 L187.06873,221.7164 C187.439191,221.348959 187.626005,220.804133 187.806486,220.249804" id="Fill-168" fill="#009EE1"></path>
                        <path d="M233.384413,190.139129 L233.384413,190.139129 C231.908902,190.687123 230.992249,191.05298 229.700385,191.418837 L229.511989,191.418837 C228.405355,194.537333 225.639564,197.10942 222.324415,197.842718 L216.602852,198.76132 C217.158544,199.694177 217.715818,200.427475 218.450407,201.339742 L226.008442,200.240587 C230.06768,199.32832 232.833471,196.010265 233.384413,192.156886 L233.384413,190.139129 Z" id="Fill-170" fill="#0A416E"></path>
                        <path d="M159.021993,122.722588 L159.21039,122.722588 L159.021993,122.722588 Z M194.277519,83.7912719 C193.153471,83.7912719 192.046838,83.9765761 190.941788,84.5245699 C190.390846,84.890427 189.836738,85.4431722 189.279464,85.9959174 L188.36281,87.0950726 L189.279464,85.9959174 C189.836738,85.4431722 190.390846,84.890427 190.941788,84.5245699 C192.046838,83.9765761 193.153471,83.7912719 194.277519,83.7912719 L194.277519,83.7912719 Z M207.185072,83.2432781 L194.644813,83.7912719 L207.185072,83.2432781 Z" id="Fill-172" fill="#530053"></path>
                        <path d="M170.458152,107.303848 L164.374044,114.087251 L170.458152,107.303848 Z M218.263435,82.8579402 L207.184439,83.2443867 L194.64418,83.7907967 L194.276886,83.7907967 C193.152838,83.7907967 192.047788,83.976101 190.941155,84.5240948 C190.391796,84.8915357 189.836105,85.4426971 189.280413,85.9954423 L188.36376,87.0945975 L186.888249,88.7417464 L186.332558,89.2944916 L172.856648,104.533787 L175.635105,106.385246 L188.544241,91.6812738 L190.941155,88.9270507 C191.496846,88.3758893 192.047788,87.8278955 192.601896,87.4620384 C193.708529,86.9092932 194.832577,86.7287403 195.937627,86.7287403 L196.306505,86.7287403 L214.392594,85.9954423 C214.579408,85.810138 214.759889,85.62325 214.948285,85.4426971 C215.866522,84.1566539 217.158385,83.4249396 218.263435,82.8579402 L218.263435,82.8579402 Z" id="Fill-174" fill="#0177A9"></path>
                        <path d="M170.458152,107.303848 L164.374044,114.087251 L159.02136,119.6052 L159.02136,119.792088 L158.840879,119.792088 C158.654065,120.157946 158.473584,120.710691 158.473584,121.076548 C158.473584,121.622958 158.654065,122.356256 159.02136,122.722113 L159.21134,122.722113 C159.391821,123.089554 159.945929,123.089554 160.31639,123.276442 C160.31639,123.089554 160.503203,122.910585 160.503203,122.722113 L160.683684,122.722113 L160.683684,122.543144 L166.030036,117.026779 L168.982641,113.721394 C168.428533,113.174984 167.877591,112.620655 167.323483,112.069494 L167.690777,111.702053 C168.248052,112.254798 168.795827,112.802792 169.353102,113.353953 L173.043462,109.136302 L170.458152,107.303848 Z" id="Fill-176" fill="#EAEAEA"></path>
                        <path d="M221.767298,82.6791295 L218.263752,82.8580986 C217.158702,83.425098 215.865255,84.1568122 214.947019,85.4428555 C214.760205,85.6218245 214.579724,85.8102964 214.392911,85.9956007 L218.821026,85.8102964 L221.767298,82.6791295 Z" id="Fill-180" fill="#0079AB"></path>
                        <path d="M249.627762,68.1653456 C249.627582,68.1658823 249.627402,68.1664188 249.627222,68.1669552 C249.627222,69.2724455 249.814036,70.1847127 249.814036,70.5521536 C249.627222,71.8508672 248.153294,70.5521536 248.153294,70.5521536 C248.153294,70.5521536 246.492553,69.0855575 245.018626,68.3522594 C243.544698,69.4514146 243.725179,73.1369104 243.913576,74.6019228 C244.094057,75.3352208 244.469267,75.7089969 244.469267,75.7089969 C244.469267,75.7089969 244.469267,81.2063566 240.959388,81.9396547 C245.943195,85.4430139 252.58141,85.0771567 255.728744,85.2561258 C259.05181,85.2561258 259.232291,83.7911135 259.232291,83.7911135 L260.338924,74.2360656 C264.209765,73.6896556 262.922651,72.4036124 262.555356,71.8508672 C262.368543,71.4850101 258.864996,66.7003591 258.864996,65.6012039 C258.864996,65.2337629 258.682932,64.8679058 258.682932,64.5004649 C255.917141,65.2337629 253.885939,64.6826016 252.214115,63.7671668 C252.099738,63.8803677 251.989802,63.9957483 251.884136,64.1128038 C251.989503,63.9959448 252.099126,63.8807869 252.213166,63.7678004 C250.364028,62.849198 249.258978,61.3826019 249.078497,61.0167448 L249.445791,64.5010984 L249.445791,64.8669555 C249.445791,65.4211893 249.445791,66.8857937 249.627762,68.1653456 Z" id="Combined-Shape" fill="#FFD9BF"></path>
                        <path d="M253.6996,52.1942031 C250.552266,49.8090047 246.491445,48.7098495 242.253309,49.2610109 C239.672749,49.4431475 237.274252,50.3617499 235.244633,51.6414579 C229.700385,55.3142834 228.038061,61.749251 228.038061,61.749251 C228.038061,61.749251 227.300306,65.6010455 227.670766,67.618803 C228.405355,74.9692053 233.951186,80.4729002 240.777799,81.9394963 L241.146676,81.9394963 C244.469742,81.0256454 244.469742,75.7088385 244.469742,75.7088385 C244.469742,75.7088385 244.094531,75.3350624 243.912467,74.6017644 C243.725654,74.0569382 243.358359,73.3236401 243.176295,72.403454 C242.807417,71.1047404 242.440123,69.6397281 242.987898,68.719542 C243.358359,68.1667968 244.094531,68.1667968 245.0191,68.352101 C246.491445,69.0853991 248.153769,70.5519952 248.153769,70.5519952 C248.153769,70.5519952 249.627697,71.8507088 249.814511,70.5519952 L249.078338,61.0159529 C249.258819,61.3833938 250.365452,62.8499899 252.21459,63.7685923 C253.886414,64.6824432 255.916033,65.2336046 258.681824,64.5018903 C260.337816,63.0352942 261.262385,60.8290649 260.893507,58.4311961 C260.526212,54.7599544 257.38996,52.015234 253.6996,52.1942031" id="Fill-186" fill="#B3009D"></path>
                        <path d="M255.179227,76.2542983 L254.254658,76.2542983 C254.254658,76.2542983 256.835219,79.7402357 259.60101,80.4735337 L259.60101,79.9255399 C257.202513,78.8200496 255.548105,76.6201554 255.179227,76.2542983" id="Fill-188" fill="#B3009D"></path>
                        <path d="M259.600852,79.9260151 L259.968146,76.8075186 L255.179069,76.2547734 C255.547947,76.6206305 257.202355,78.8205247 259.600852,79.9260151" id="Fill-190" fill="#FFFFFF"></path>
                        <path d="M253.518644,74.7896027 C253.699125,76.8073602 252.394596,78.4529254 250.364977,78.6413972 C248.522172,78.8203663 246.861431,77.5406583 246.492553,75.5229008 C246.310489,73.6904475 247.786,72.0369634 249.627222,71.8516591 C251.656841,71.4842182 253.331831,72.9571495 253.518644,74.7896027" id="Fill-192" fill="#FFCBAB"></path>
                        <path d="M249.078497,61.016428 L249.445791,64.5007817 L249.445791,64.8682226 C249.445791,65.4209678 249.445791,66.8859801 249.627855,68.1672719 C249.996733,67.0665329 250.732905,65.2340797 252.213166,63.7674836 C250.364028,62.8488813 249.258978,61.3822852 249.078497,61.016428" id="Fill-194" fill="#FFCBAB"></path>
                        <path d="M245.018467,68.3522594 C244.093898,68.1669552 243.357726,68.1669552 242.988848,68.7181166 C242.43949,69.6383027 242.808367,71.1048988 243.175662,72.4036124 C243.357726,73.3237985 243.726604,74.0570966 243.913417,74.6019228 C243.726604,73.1369104 243.54454,69.4514146 245.018467,68.3522594" id="Fill-196" fill="#FFCBAB"></path>
                        <path d="M253.331672,48.3305301 C252.950129,48.143642 252.394438,47.9583378 251.656683,47.7762011 C238.935943,43.9259904 225.460033,51.4616969 221.586026,64.1352413 C217.895666,76.9877547 225.271637,90.3945971 238.198188,94.2448078 C249.627064,97.5628627 261.450148,92.0480813 266.608103,81.9402882 L239.304821,74.0561463 L253.331672,48.3305301 Z" id="Fill-198" fill="#FFFFFF"></path>
                        <path d="M244.650539,90.5811684 C231.728738,86.7277901 224.35435,73.3241153 228.038378,60.6505709 C229.510722,55.5000628 232.466493,51.4613802 236.169519,48.3302133 C229.330241,51.0939393 223.797076,56.599218 221.586976,64.1349245 C217.896616,76.9874379 225.272586,90.3942803 238.199138,94.2444911 C246.124467,96.4633908 254.067211,94.6309376 260.157651,89.8478703 C255.360658,91.6803236 249.814827,92.0477645 244.650539,90.5811684" id="Fill-200" fill="#DADADA"></path>
                        <path d="M245.018467,68.3522594 C244.282295,68.9065884 244.093898,69.8188555 243.913417,70.9180107 C244.093898,69.8188555 244.282295,68.9065884 245.018467,68.3522594 C246.492395,69.0855575 248.153136,70.5521536 248.153136,70.5521536 C248.153136,70.5521536 248.708827,71.1048988 249.259769,71.1048988 C248.708827,71.1048988 248.153136,70.5521536 248.153136,70.5521536 C248.153136,70.5521536 246.492395,69.0855575 245.018467,68.3522594 L245.018467,68.3522594 Z M244.093898,68.1669552 C244.282295,68.1669552 244.651173,68.3522594 244.837986,68.3522594 C244.651173,68.3522594 244.282295,68.1669552 244.093898,68.1669552 L244.093898,68.1669552 Z M244.093898,68.1669552 L243.913417,68.1669552 L244.093898,68.1669552 Z M252.394438,63.9493035 C253.331672,64.5004649 254.623536,64.8679058 256.097464,64.8679058 C254.623536,64.8679058 253.331672,64.5004649 252.394438,63.9493035 L252.394438,63.9493035 Z M249.077705,61.0161113 L249.813877,70.5521536 C249.813877,70.1847127 249.627064,69.2724455 249.627064,68.1669552 C249.997525,67.0662162 250.732114,65.2337629 252.213957,63.7671668 L252.213957,63.9493035 L252.213957,63.7671668 C250.732114,65.2337629 249.997525,67.0662162 249.627064,68.1669552 C249.446583,66.8856633 249.446583,65.420651 249.446583,64.8679058 L249.446583,64.5004649 L249.077705,61.0161113 Z M254.254658,48.7100079 L252.763316,51.4610634 C253.13061,51.6416163 253.518486,52.0153924 253.698967,52.1943615 L254.067845,52.1943615 C257.571391,52.1943615 260.525579,54.7601128 260.892874,58.4313544 C261.263335,60.8292232 260.338766,63.0354526 258.682774,64.5004649 L258.49596,64.5004649 L258.682774,64.5004649 C258.682774,64.8679058 258.864838,65.2337629 258.864838,65.6012039 C258.864838,66.7003591 262.368384,71.4850101 262.555198,71.8508672 C262.924076,72.4036124 264.209607,73.6896556 260.338766,74.2360656 L259.968305,76.8081521 L259.60101,79.1933505 L266.7965,81.3916609 L266.976981,81.3916609 C267.532672,80.2925057 267.899967,79.0080463 268.270428,77.7204192 C271.772391,65.7865081 265.50147,53.2935167 254.254658,48.7100079 L254.254658,48.7100079 Z" id="Fill-202" fill="#ABABAB"></path>
                        <path d="M252.762682,51.4610634 L243.545489,68.3522594 C243.72597,68.1669552 243.912784,68.1669552 243.912784,68.1669552 L244.093265,68.1669552 C244.283245,68.1669552 244.650539,68.3522594 244.837353,68.3522594 L245.017834,68.3522594 C246.491762,69.0855575 248.154086,70.5521536 248.154086,70.5521536 C248.154086,70.5521536 248.708194,71.1048988 249.259136,71.1048988 C249.44595,71.1048988 249.628014,70.9180107 249.814827,70.5521536 L249.078655,61.0161113 C249.259136,61.3835522 250.364186,62.8485645 252.213324,63.7687506 L252.213324,63.9493035 L252.395388,63.9493035 C253.331039,64.5004649 254.624486,64.8679058 256.09683,64.8679058 C256.834586,64.8679058 257.570758,64.6826016 258.495327,64.5004649 L258.682141,64.5004649 C260.338132,63.0354526 261.262701,60.8292232 260.893824,58.4313544 C260.524946,54.7601128 257.570758,52.1943615 254.067211,52.1943615 L253.699917,52.1943615 C253.519436,52.0153924 253.129977,51.6416163 252.762682,51.4610634" id="Fill-206" fill="#BC3C26"></path>
                        <path d="M254.254658,76.2542983 C254.254658,76.2542983 254.992414,76.9875963 255.916983,78.0867515 L257.389327,78.4541924 C256.097464,77.5403415 255.359708,76.4411863 255.179227,76.2542983 L254.254658,76.2542983 Z" id="Fill-208" fill="#E2553D"></path>
                        <path d="M255.179227,76.2542983 C255.359708,76.4411863 256.097464,77.5403415 257.389327,78.4541924 L259.60101,79.1922419 L259.968305,76.8086272 L255.179227,76.2542983 Z" id="Fill-210" fill="#FFFFFF"></path>
                        <path d="M249.996733,71.6698392 C249.996733,71.6698392 249.814669,71.6698392 249.627855,71.8503921 C247.786633,72.0356963 246.491603,73.5022924 246.491603,75.3347457 L252.949338,77.1751179 C253.330881,76.4418198 253.519278,75.7085218 253.519278,74.7899195 C253.330881,73.1364353 251.844288,71.6698392 249.996733,71.6698392" id="Fill-212" fill="#FFD5BC"></path>
                        <path d="M244.093898,68.1666384 L244.093898,68.1666384 L243.913417,68.1666384 C243.913417,68.1666384 243.726604,68.1666384 243.54454,68.3519427 L242.808367,69.8185388 C243.175662,70.1843959 243.54454,70.5518368 243.913417,70.917694 C244.093898,69.8185388 244.282295,68.9062716 245.018467,68.3519427 L244.837986,68.3519427 C244.651173,68.3519427 244.282295,68.1666384 244.093898,68.1666384" id="Fill-216" fill="#FFD5BC"></path>
                        <path d="M252.581727,47.0452788 L237.642971,74.7902362 L266.239701,83.425098 C266.796975,83.6104022 267.34475,83.2429613 267.531564,82.6791295 C267.713628,82.1248006 267.531564,81.5736392 266.796975,81.3930863 L240.77764,73.5026092 L254.624011,47.9575459 C254.810824,47.5916887 254.624011,46.8583907 254.066736,46.4909498 C253.518961,46.3119807 252.949021,46.4909498 252.581727,47.0452788" id="Fill-218" fill="#009EE1"></path>
                        <path d="M245.205597,74.4229537 C245.205597,77.7204192 242.620287,80.2925057 239.303554,80.4730586 C235.982072,80.4730586 233.203615,77.9073073 233.203615,74.6019228 C233.203615,71.2854516 235.801591,68.5328123 239.116741,68.5328123 C242.439806,68.5328123 245.018784,71.1048988 245.205597,74.4229537" id="Fill-220" fill="#009EE1"></path>
                        <path d="M243.358043,74.4229537 C243.358043,76.8081521 241.515237,78.6406053 239.303554,78.6406053 C236.906641,78.6406053 235.063835,76.8081521 234.877022,74.6019228 C234.877022,72.2167243 236.719827,70.3716007 239.116741,70.3716007 C241.334756,70.1847127 243.358043,72.0361715 243.358043,74.4229537" id="Fill-222" fill="#FFFFFF"></path>
                        <path d="M236.168885,71.6698392 C235.432713,72.4031372 234.877022,73.3233234 234.877022,74.6030314 C235.063835,76.807677 236.906641,78.6401302 239.116741,78.6401302 L239.303554,78.6401302 C240.410187,78.6401302 241.334756,78.087385 242.072512,77.540975 L236.168885,71.6698392 Z" id="Fill-224" fill="#EAEAEA"></path>
                        <path d="M255.548738,67.8001478 C255.360341,67.8001478 255.360341,67.8001478 255.17986,67.985452 C254.810983,68.1660049 254.437356,68.7187501 254.624169,69.2730791 C254.624169,69.4520481 254.810983,69.6389362 254.810983,69.8179053 C255.17986,70.1853462 255.548738,70.3722342 256.098097,70.1853462 C256.834269,70.0063771 257.203147,69.4520481 257.022666,68.7187501 C257.022666,67.985452 256.28491,67.6195949 255.548738,67.8001478" id="Fill-226" fill="#000000"></path>
                        <path d="M143.777854,88.6170578 C143.587833,89.5842683 142.424371,90.3603836 141.252575,89.9731641 C140.089112,89.7803925 139.31236,88.6170578 139.702403,87.4537231 C140.089112,86.282007 141.252575,85.5092443 142.226016,85.8964638 C143.391145,86.282007 144.164564,87.4537231 143.777854,88.6170578" id="Fill-249" fill="#00A1E4"></path>
                        <path d="M152.927437,86.1761535 L152.927437,86.3614578 L153.665192,86.3614578 C153.294731,86.3614578 153.107918,86.1761535 152.927437,86.1761535" id="Fill-258" fill="#530053"></path>
                        <polygon id="Fill-260" fill="#530053" points="128.383613 102.88648 128.383613 102.88648 128.564094 102.88648"></polygon>
                    </g>
                    <g id="Group-137" transform="translate(282.469449, 166.390277) rotate(-68.000000) translate(-282.469449, -166.390277) translate(263.469449, 136.890277)">
                        <path d="M6.49650358,34.7487588 C7.7741025,32.7913429 9.83951557,31.5247797 12.1001495,31.3290381 L14.1736486,32.5967528 C11.9037735,32.8869109 9.83951557,34.0659661 8.56076151,36.1120413 C3.73568857,43.4281709 2.55396733,53.1899188 2.26055854,57.5722274 C0.885926794,58.2561715 0.0969574821,58.6557147 0.0969574821,58.6557147 C0.0969574821,58.6557147 0.0969574821,44.5957118 6.49650358,34.7487588" id="Fill-58" fill="#C48C00"></path>
                        <path d="M14.1742262,32.5966376 L20.0712808,36.4055385 C20.760907,38.646204 20.5645311,41.0883681 19.3862753,42.9398532 C14.5681333,50.3550049 6.20020691,55.4316205 2.26113611,57.5721123 C2.55338975,53.1898036 3.73626615,43.4280557 8.56133908,36.1119262 C9.838938,34.0658509 11.9031959,32.8867957 14.1742262,32.5966376" id="Fill-59" fill="#FFB900"></path>
                        <path d="M20.3673465,36.6001287 C20.3673465,36.6001287 22.5390336,41.7711608 21.3503815,45.6687211 C25.2929177,44.5000287 30.8064617,38.1580014 31.7894966,33.3761497 L31.1992136,27.7157636 L20.3673465,36.6001287 Z" id="Fill-60" fill="#A80000"></path>
                        <path d="M11.0178869,30.6462454 C11.0178869,30.6462454 5.414241,30.8408356 2.35770688,33.570855 C1.76742384,29.477553 5.31720817,21.8678111 9.34638088,19.0330124 L14.7640472,17.2805495 L11.0178869,30.6462454 Z" id="Fill-61" fill="#D83B01"></path>
                        <path d="M30.8065772,10.3536003 C29.3210508,9.3702867 28.0422967,8.29716225 26.9645392,7.03059906 C27.1609152,6.93503111 27.2567929,6.8360089 27.454324,6.64026731 C31.5932362,3.91485361 35.6247192,2.34776952 37.6889771,1.66497682 C37.9823859,3.91485361 38.1787619,8.10257209 37.3921029,12.9834461 C35.131469,12.4952435 32.8708351,11.6213149 30.8065772,10.3536003" id="Fill-62" fill="#009EE1"></path>
                        <path d="M25.6850921,5.57140312 C26.0789991,6.0561514 26.4717511,6.54550536 26.9638461,7.03025363 C23.6208341,9.27437332 20.3667689,12.20474 17.8115711,16.1092089 C14.5679022,21.1777645 13.2891482,27.0327407 12.7958979,31.8145924 L11.0181179,30.6459 C11.510213,25.8651997 12.7958979,20.1057914 16.0418771,14.9347594 C18.6964181,10.9381768 22.2427369,7.81206855 25.6850921,5.57140312" id="Fill-63" fill="#A80000"></path>
                        <path d="M26.9643082,7.03036878 C28.0432208,8.29808339 29.3208198,9.37005641 30.8063462,10.35337 C32.8706041,11.6210846 35.131238,12.4961646 37.3918719,12.9832158 C36.7034008,17.0857291 35.3276139,21.5670599 32.7701058,25.570551 C29.421318,30.7450374 24.603176,34.2603259 20.367231,36.6000136 L12.7952049,31.8147076 C13.2884551,27.0328558 14.5683643,21.1778796 17.810878,16.109324 C20.367231,12.2048551 23.6201411,9.27448846 26.9643082,7.03036878" id="Fill-64" fill="#D83B01"></path>
                        <path d="M21.8725391,14.5690444 C20.2454595,17.0964487 20.9550041,20.5198678 23.4924877,22.1298387 C26.0216517,23.7505188 29.4612196,23.0472722 31.0882993,20.5198678 C32.8080832,17.9008391 31.9998917,14.5690444 29.4612196,12.8579297 C26.9332441,11.246769 23.4924877,11.9535854 21.8725391,14.5690444" id="Fill-65" fill="#FFFFFF"></path>
                        <circle id="Oval-11" fill="#BFBFBF" cx="26.5" cy="17.5" r="4.5"></circle>
                        <polygon id="Fill-66" fill="#A80000" points="10.8215109 38.9367075 12.8961652 40.3092014 23.6206031 23.8185487 21.4500711 22.4518119"></polygon>
                        <path d="M26.9643082,7.03036878 C26.471058,6.5456205 26.0783061,6.05626654 25.6855541,5.57151827 C31.7893811,1.5645729 37.4923701,0.0078515998 37.4923701,0.0078515998 C37.4923701,0.0078515998 37.5882478,0.591622088 37.6887461,1.66474654 C35.6244882,2.34753924 31.5930052,3.91462333 27.4540929,6.64118845 C27.2565618,6.83577861 27.1606842,6.93480083 26.9643082,7.03036878" id="Fill-69" fill="#0078D7"></path>
                    </g>
                    <g id="Group-33" transform="translate(276.066948, 155.509549) rotate(-36.000000) translate(-276.066948, -155.509549) translate(270.566948, 150.009549)"></g>
                </g>
            </g>
        </g>
    </g>
</svg>