<svg width="481" height="250" viewBox="0 0 481 250" xmlns="http://www.w3.org/2000/svg"><style><![CDATA[
      @keyframes float {
        0% { transform: none }
        50% { transform: translateY(-20px) }
        0% { transform: none }
      }

      #astronaut {
        transform: none;
        animation: float 6s ease-in-out infinite;
      }

      @keyframes pulse {
        100% { opacity: 1; }
        30% { opacity: 0 }
        0% { opacity: 1 }
      }
      #stars path {
        animation-name: pulse;
        animation-duration: 4s;
        animation-iteration-count: infinite;
      }
      #star-2 {
        animation-delay: 0.5s;
      }
      #star-3 {
        animation-delay: 1s;
      }
      #star-4 {
        animation-delay: 1.5s;
      }
      #star-5 {
        animation-delay: 2s;
      }
    ]]></style><g fill="none" fill-rule="evenodd"><g id="illustration"><ellipse id="Oval-13" fill-opacity=".2" fill="#000" cx="232.555" cy="134.593" rx="114.555" ry="114.593"/><g id="astronaut" transform="translate(106.000000, 45.000000)"><path d="M194.277 137.235l34.685-59.148-3.503-2.012-4.43-2.572-.18-.18c-3.32-1.84-7.395-.732-9.238 2.385l-31.18 53.45 13.845 8.077z" id="Fill-70" fill="#A9DDF8"/><path d="M193.34 157.81l-2.766 2.2 2.766-2.2z" id="Fill-72" fill="#B3009D"/><path d="M184.122 165.16l-2.767 2.2 2.767-2.2z" id="Fill-74" fill="#B3009D"/><path d="M186.514 163.31c-.18 0-.367.184-.55.184v.2l.55-.385z" id="Fill-76" fill="#7D337D"/><path d="M221.03 134.663l-28.06-11.386-32.1 33.794c-.555 1.108-5.9 13.042 7.557 20.21l52.604-42.617z" id="Fill-78" fill="#009EE1"/><path d="M150.342 172.683c1.292-8.256 9.604-14.873 10.528-15.61h-.186.186l-27.14-18.56-6.64-5.135s-1.66-1.466-3.134.372l-16.98 22.04s-1.287 1.1.187 2.387l3.502 2.75c3.874 2.947 15.876-5.69 18.086-8.255l21.592 20.01z" id="Fill-80" fill="#FFF"/><path d="M112.877 158.177h.186-.186c-1.474-1.286-.18-2.387-.18-2.387l16.242-20.94-1.848-1.472s-1.66-1.467-3.136.372l-16.98 22.04s-1.287 1.1.187 2.387l3.504 2.75c1.29.915 3.315.734 5.732-.184l-3.523-2.566z" id="Fill-82" fill="#95CAF5"/><path d="M181.355 152.673c-.368 0-.923.18-1.292.365l-12.373 9.904c-.918.752-.918 2.038-.18 2.95l4.24 5.504 1.66 1.833 1.675-1.466-4.81-6.052c-.742-.732-.555-1.84.183-2.583.37-.188.736-.37 1.293-.37.55 0 .92.182 1.293.735l4.99 6.07 1.66-1.468-4.794-6.07c-.752-.732-.57-1.838.185-2.57.368-.18.738-.367 1.105-.367.556 0 1.107.187 1.474.733l4.976 6.07 1.663-1.466-4.796-6.07c-.738-.734-.55-1.833.187-2.566.37-.184.738-.365 1.105-.365.555 0 1.106.18 1.473.732l4.795 5.87 1.843-1.283-5.9-7.338c-.37-.553-1.104-.733-1.655-.733" id="Fill-84" fill="#3FC6FF"/><path d="M188.912 160.743l-2.946 2.2 2.946-2.2z" id="Fill-86" fill="#B3009D"/><path d="M184.303 164.427l-2.766 2.198 2.766-2.198z" id="Fill-88" fill="#B3009D"/><path d="M166.955 178.565l1.474-1.286c-13.46-7.17-8.113-19.103-7.56-20.208-.924.74-9.236 7.355-10.527 15.61l5.545 5.15c3.322 2.566 7.75 2.753 11.067.733" id="Fill-90" fill="#00587B"/><path d="M107.713 154.692l-.738 1.098s-.548.367-.548 1.1c0-.733.548-1.1.548-1.1l.738-1.098zm21.04-1.838c-.188.185-.557.366-.924.733.366-.367.735-.548.922-.733zm0-.18v.18-.18z" id="Fill-92" fill="#530053"/><path d="M128.197 148.436c-1.656 1.833-8.85 7.355-14.027 8.454l-.19.18H113.248c-.184 0-.37.186-.55.186h-.558c.19.187.37.555.736.92 0 0 .558.368 3.523 2.568 4.052-1.467 9.218-5.14 11.43-7.157.367-.366.734-.548.922-.734v-.18l21.59 20.01c.187-.92.556-2.02.736-3.12l-1.285-1.098-21.596-20.03z" id="Fill-94" fill="#DEDEDE"/><path d="M107.713 154.692l-.738 1.098s-.548.367-.548 1.1c0 .367.18.734.735 1.287 0 0 .55.367 3.503 2.752.18.18.37.18.55.18l.188.185h.368l.19.18H113.98c.187 0 .37-.18.557-.18h.18c.554-.185 1.124-.366 1.678-.552-2.965-2.2-3.52-2.566-3.52-2.566-.37-.366-.55-.733-.737-.92h-.18l-.19-.186h-.554c-.18 0-.37-.18-.37-.18h-.18c-.187-.185-.368-.185-.555-.367-.917-.918-1.84-1.465-2.397-1.83" id="Fill-96" fill="#009EE1"/><path d="M165.112 175.068c0 .198.18.198.18.198s-.18 0-.18-.198" id="Fill-98" fill="#530053"/><path d="M165.112 175.068c0 .198.18.198.18.198s-.18 0-.18-.198" id="Fill-100" fill="#A1008D"/><path d="M151.078 169.564c-.18 1.1-.55 2.2-.736 3.12l5.546 5.15c1.848 1.464 3.877 2.197 6.09 2.197 1.66 0 3.502-.544 4.976-1.464l1.474-1.286h-.18c-1.107-.733-2.03-1.28-2.954-2.013 0 0-.183 0-.183-.198-1.104.378-2.215.563-3.32.563-2.212 0-4.61-.752-6.453-2.037l-4.26-4.032z" id="Fill-102" fill="#0A416E"/><path d="M232.834 138.514l-27.49-8.25 7.374 53.073v.18c.55 1.105 6.47 12.494 20.667 6.623l-.55-51.626z" id="Fill-104" fill="#009EE1"/><path d="M218.45 201.34c-5.732-6.25-5.732-16.718-5.732-17.824v-.18l-31.55 9.37-8.125 2.017s-2.217.368-1.66 2.754l6.65 26.824s0 1.84 2.03 1.288c-.188 0 0 0 4.24-.92 4.796-1.1 5.534-15.984 4.976-19.104l29.17-4.224z" id="Fill-106" fill="#FFF"/><path d="M183.566 221.17h.188-.188c-1.842.547-2.028-1.286-2.028-1.286l-6.27-25.713-2.224.554s-2.218.366-1.66 2.753l6.648 26.824s0 1.84 2.03 1.287c-.187 0 0 0 4.24-.92 1.664-.366 2.767-2.013 3.505-4.417l-4.24.92z" id="Fill-108" fill="#95CAF5"/><path d="M233.015 163.873l.188 3.672-.188-3.672z" id="Fill-110" fill="#B3009D"/><path d="M186.888 88.742l2.392-2.746c.556-.553 1.112-1.106 1.663-1.472 1.105-.548 2.396-.913 3.7-.733l27.124-1.11-13.476 14.337h-11.06l-17.355 19.643c.186 1.11.375 2.032.186 2.578-1.104 3.305-2.764 6.605-3.5 8.256l-.556 1.285c-1.487-.552-2.223-2.386-1.675-3.85l.187-.188 1.118-2.753-6.282 7.535c-.738.92-2.03.92-2.767.187-.37-.366-.738-.75-.738-1.297-.736.746-1.84.746-2.766 0-.556-.555-.738-1.654-.37-2.387-.735.18-1.29 0-1.842-.553-.736-.546-.924-1.465-.554-2.198-.37-.187-.924-.187-1.295-.555-.733-.733-.915-2.2-.18-2.93h.18v-.188l5.354-5.516 22.514-25.346z" id="Fill-112" fill="#00A1E4"/><path d="M170.458 107.118l-6.084 6.97-5.353 5.517v.187h-.18c-.735.73-.553 2.198.18 2.93.372.367.926.367 1.296.554-.37.733-.182 1.652.554 2.2.55.55 1.107.733 1.843.55-.37.734-.187 1.835.37 2.388.924.746 2.03.746 2.765 0 0 .546.37.93.738 1.3.737.732 2.03.732 2.767-.19l6.282-7.534-1.12 2.753-.186.185c-.55 1.467.186 3.3 1.674 3.852l.556-1.286c.736-1.652 2.397-4.95 3.502-8.257.188-.544 0-1.465-.187-2.578l1.662-2.02-11.08-7.522z" id="Fill-114" fill="#FFF"/><path id="Fill-116" fill="#025477" d="M183.385 115.92l-14.77-9.92 2.03-3.113 14.763 10.1z"/><path d="M299.652 86.728l-22.7 14.14-23.434-8.454c-13.476-3.305-19.01-2.753-25.848-12.854-3.504 2.198-9.037 1.465-12.723 5.882-9.055 10.47-13.664 26.993-23.45 36.735 6.84 1.832 35.248 16.158 42.643 17.257 2.946-7.336 6.82-17.625 14.94-29.93l26.215 5.87c1.287.547 2.76.547 4.054.366.735-.187 1.47-.552 2.21-.92l24.543-15.238-6.45-12.854z" id="Fill-118" fill="#00A1E4"/><path d="M304.998 97.383l-23.808 14.685c-.736.553-1.474.734-2.212.92-.547.187-1.103.187-1.66.187-.736 0-1.653-.186-2.397-.373l-24.556-5.498-1.285 2.2 26.214 5.87c.92.367 1.656.546 2.393.546.557 0 1.11-.18 1.662-.18.735-.186 1.47-.553 2.21-.92l24.543-15.237-1.105-2.2z" id="Fill-120" fill="#0177A9"/><path d="M229.144 141.286l.186 22.022c.55.385 1.105.932 1.663 1.306l-.375.365c-.37-.366-.917-.74-1.474-1.106h-5.347c-1.292 0-2.21.92-2.21 2.018v15.793c0 1.1.918 2.018 2.21 2.018h5.714v7.715c1.108-.365 2.4-.732 3.875-1.278l-.182-5.336v-3.3h-7.743c-1.105 0-1.85-.74-1.85-1.84s.745-1.832 1.85-1.832h7.743v-2.198h-7.743c-1.105 0-1.85-.753-1.85-1.85 0-.922.745-1.834 1.85-1.834h7.743v-2.205h-7.743c-1.105 0-1.85-.733-1.85-1.832 0-.922.745-1.834 1.85-1.834h7.007c-.19 0-.37-.188-.558-.367l.188-.368c.37.18.736.547.916.734v-2.206l-.18-20.943-3.69-1.644z" id="Fill-122" fill="#3FC6FF"/><path d="M245.386 108.77c-7.007 10.467-10.878 19.457-13.658 26.446l3.517 1.467c2.767-7.16 6.638-16.34 13.833-27.18l-3.692-.733z" id="Fill-124" fill="#00C9FF"/><path id="Fill-126" fill="#6C105D" d="M306.47 102.15l-9.954-14.688 2.948-2.02 10.142 14.694z"/><path d="M324.557 83.425c-.18-.566-.367-.933-.738-1.3 1.104-.367 1.842-1.65 1.475-2.932-.37-.74-1.105-1.285-2.023-1.473.18-.545.18-.912 0-1.465-.37-1.1-1.85-1.833-2.956-1.465L317 76.074l-.736.18h-.557s-4.44-3.85-7.024-1.285c-2.76 2.384-3.13 6.237-2.76 8.09v.184l-5.903 3.3 7.925 11.94 9.605-6.437.187-.187 4.977-1.646c1.294-.552 1.843-1.838 1.476-3.12-.182-.366-.37-.733-.738-.918 1.105-.553 1.472-1.652 1.105-2.75" id="Fill-128" fill="#FFF"/><path id="Fill-132" fill="#C2DB4D" d="M307.945 98.296l-1.655 1.1 1.655-.913z"/><path id="Fill-134" fill="#025477" d="M306.47 102.15l-9.954-14.688 2.948-2.02 10.142 14.694z"/><path d="M235.614 141.652c-.37 1.1-1.662 1.646-2.78 1.28l-42.073-17.09c-1.11-.547-1.66-1.833-1.11-2.753l.742-2.2c.55-1.1 1.843-1.65 2.76-1.286l42.28 17.078c.918.553 1.474 1.833 1.106 2.753l-.924 2.217z" id="Fill-136" fill="#005679"/><path d="M312.76 68.906c-2.6 4.05-4.996 6.248-4.996 6.248l-6.457 11.574s4.614 5.686 7.562 2.2c2.947-3.305 2.03-10.288 2.03-10.288s.735-1.652 1.86-2.75c3.316-2.388 2.21-6.618 0-6.984" id="Fill-152" fill="#FFF"/><g id="Group-5" transform="translate(297.3 45.67)"><g id="codepush-seeklogo.com" fill-rule="nonzero"><g id="Group"><path d="M29.583 9.21c1.792 5.205 3.484 9.928 5.177 14.845.16.463.574 1.096-.07 1.318-.857.36-.96-.51-1.06-.993-.285-1.585-1.01-1.788-2.744-1.126-6.043 2.21-12.165 4.188-18.247 6.283-3.16 1.087-5.96-.02-6.896-2.544-.994-2.698.668-5.47 3.923-6.656 6.024-2.074 12.028-4.206 18.092-6.165 1.637-.564 2.376-1.077 1.467-2.576-.356-.654-.556-1.426-.404-2.125l.76-.26z" id="Shape" fill="#00A1E4"/><path d="M17.716 29.083l4.68-1.61c.934-.324 1.384-.35 1.254.796-.39 3.045-.702 6.128-1.092 9.174-.13.95-.635 1.577-1.688 1.94l-8.948 3.08c-1.17.404-1.738.082-1.59-1.005.43-3.125.86-6.25 1.23-9.352.073-.737.48-1.072 1.24-1.334l4.914-1.69zM47.34 17.46c-1.733 1.048-3.137 1.532-4.456-.02-.217-.25-.707-.533-1.02-.49-2.91.29-2.63-1.94-3.265-3.405-.2-.384-.163-.85.227-1.048 2.513-1.06.32-4.77 3.755-5.434.858-.167 1.23-.23 1.177.76-.23 3.7.982 6.842 3.58 9.636zM.382 19.78c4.152-1.428 8.266-2.78 12.4-4.268 1.695-.584 2.927-.426 3.972 1.09-5.34 1.97-10.502 4.458-16.372 3.18zm35.07-3.404l2.05 5.958c.18.52.478 1.194-.303 1.398-.663.164-.648-.553-.924-.975-1.48-2.208-2.103-4.776-3.076-7.223-.715-1.695-.434-3.54-1.128-5.176-.12-.347-.142-.792.326-.953.643-.222.764.32.903.724l2.152 6.246zm2.416-.962l1.93 5.61c.14.406.28 1.005-.245 1.186-.527.18-.765-.32-.904-.724l-3.803-11.048c-.14-.405-.26-.946.246-1.185.526-.18.764.32.904.724l1.872 5.437z" id="Combined-Shape" fill="#00587B"/></g></g><rect id="Rectangle-3" fill="#FFF" transform="rotate(-33 20.437 34.632)" x="13.629" y="32.59" width="13.615" height="4.085" rx="2.042"/><rect id="Rectangle-3" fill="#FFF" transform="rotate(-33 20.437 38.716)" x="13.629" y="36.674" width="13.615" height="4.085" rx="2.042"/></g><path d="M250.733 102.334l6.1 1.286-6.1-1.286z" id="Fill-154" fill="#C233B1"/><path id="Fill-156" fill="#7D337D" d="M254.992 92.966l7.194 2.578z"/><path id="Fill-158" fill="#C233B1" d="M254.992 92.966l7.194 2.578z"/><path d="M233.384 192.158v-2.018c-14.196 5.87-20.115-5.518-20.666-6.624 0 1.106 0 11.575 5.732 17.824l7.558-1.1c4.06-.913 6.825-4.23 7.376-8.082" id="Fill-160" fill="#00587B"/><path d="M229.7 191.418h-.188.188z" id="Fill-162" fill="#A1008D"/><path id="Fill-164" fill="#530053" d="M184.49 224.667h-.187z"/><path d="M216.603 198.762l-1.842.2-29.35 4.217c.554 2.565.186 11.567-2.025 16.336v.188c-.188.18-.188.366-.375.545-.18.188-.18.367-.37.553-.18.18-.18.18-.18.366.18 0 .37.18.55.18.187 0 .375-.18.556-.18 0 0 .37 0 4.24-.92 1.662-4.763 1.844-12.305 1.474-14.686l29.17-4.224c-.735-.912-1.29-1.645-1.847-2.578" id="Fill-166" fill="#DEDEDE"/><path d="M238.99 84.497s0 .18-.18.546c-1.107 2.74-5.893 14.63-12.68 28.167-3.487 6.954-7.34 14.08-11.398 20.855-2.61 4.38-5.466 7.96-8.13 11.68 0 1.027 0 1.027 2.198 1.027 3.058-4.24 5.692-7.9 8.703-12.893 13.027-22.137 23.685-48.474 23.685-48.474l-2.2-.91z" id="Fill-182" fill="#00587B"/><path d="M187.806 220.25c-3.87.92-4.24.92-4.24.92-.18 0-.368.18-.555.18-.18 0-.37-.18-.55-.18-.187 0-.187.18-.187.18l-.18.186c-.19 0-.19.18-.37.18l-.186.187-.182.198h-.187c-.182.188-.37.188-.55.188-1.29.368-2.398.547-2.953.733l.367 1.28s0 1.473 1.476 1.473c.186 0 .367 0 .554-.186 0 0 .557-.187 4.24-.92h.188s.182-.18.37-.18l.18-.186c.188 0 .188 0 .368-.18.188-.186.37-.186.37-.365h.187c.18-.187.18-.368.368-.555.182-.18.182-.365.368-.544l.188-.19c0-.178.18-.365.18-.563v-.187c.37-.367.558-.912.738-1.466" id="Fill-168" fill="#009EE1"/><path d="M233.384 190.14c-1.475.547-2.392.913-3.684 1.28h-.188c-1.107 3.117-3.872 5.69-7.188 6.423l-5.72.918c.555.934 1.112 1.667 1.846 2.58l7.558-1.1c4.06-.912 6.825-4.23 7.376-8.083v-2.018z" id="Fill-170" fill="#0A416E"/><path d="M159.022 122.723h.188-.188zm35.256-38.932c-1.125 0-2.23.187-3.336.735-.55.365-1.105.918-1.663 1.47l-.917 1.1.916-1.1c.557-.552 1.11-1.105 1.662-1.47 1.105-.548 2.21-.734 3.336-.734zm12.907-.547l-12.54.548 12.54-.547z" id="Fill-172" fill="#530053"/><path d="M170.458 107.304l-6.084 6.783 6.084-6.783zm47.805-24.446l-11.08.386-12.54.547h-.366c-1.124 0-2.23.186-3.336.734-.548.368-1.104.92-1.66 1.47l-.916 1.1-1.476 1.648-.555.552-13.476 15.24 2.778 1.85 12.91-14.703 2.396-2.753c.557-.55 1.108-1.1 1.662-1.465 1.107-.553 2.23-.733 3.336-.733h.37l18.085-.735c.186-.185.367-.372.555-.552.92-1.286 2.21-2.018 3.315-2.585z" id="Fill-174" fill="#0177A9"/><path d="M170.458 107.304l-6.084 6.783-5.353 5.518v.187h-.18c-.186.366-.366.92-.366 1.285 0 .546.18 1.28.547 1.645h.19c.182.368.736.368 1.106.554 0-.186.187-.365.187-.554h.18v-.18l5.347-5.515 2.953-3.306c-.554-.545-1.105-1.1-1.66-1.65l.368-.368 1.663 1.652 3.69-4.218-2.585-1.832z" id="Fill-176" fill="#EAEAEA"/><path d="M221.767 82.68l-3.503.178c-1.105.567-2.4 1.3-3.317 2.585-.187.18-.367.367-.554.553l4.428-.186 2.947-3.13z" id="Fill-180" fill="#0079AB"/><path d="M249.628 68.165v.002c0 1.105.186 2.018.186 2.385-.187 1.3-1.66 0-1.66 0s-1.66-1.466-3.135-2.2c-1.475 1.1-1.295 4.785-1.106 6.25.18.733.555 1.107.555 1.107s0 5.496-3.51 6.23c4.983 3.503 11.62 3.137 14.77 3.316 3.322 0 3.502-1.465 3.502-1.465l1.107-9.554c3.87-.546 2.583-1.832 2.215-2.385-.186-.365-3.69-5.15-3.69-6.25 0-.366-.182-.732-.182-1.1-2.766.734-4.797.183-6.47-.733-.113.113-.223.23-.33.346.107-.117.216-.232.33-.345-1.85-.92-2.954-2.385-3.135-2.75l.368 3.483v.367c0 .554 0 2.02.182 3.298z" id="Combined-Shape" fill="#FFD9BF"/><path d="M253.7 52.194c-3.148-2.385-7.21-3.484-11.447-2.933-2.58.183-4.98 1.102-7.008 2.38-5.545 3.674-7.207 10.11-7.207 10.11s-.738 3.85-.367 5.87c.735 7.35 6.28 12.853 13.108 14.32h.37c3.322-.914 3.322-6.23 3.322-6.23s-.375-.375-.558-1.108c-.186-.545-.554-1.278-.736-2.2-.37-1.297-.736-2.762-.188-3.682.37-.553 1.107-.553 2.03-.368 1.473.733 3.136 2.2 3.136 2.2s1.474 1.3 1.66 0l-.736-9.536c.18.367 1.287 1.834 3.137 2.753 1.67.912 3.7 1.464 6.467.732 1.656-1.467 2.58-3.673 2.212-6.07-.368-3.672-3.504-6.417-7.194-6.238" id="Fill-186" fill="#B3009D"/><path d="M255.18 76.254h-.925s2.58 3.486 5.346 4.22v-.548c-2.397-1.106-4.052-3.306-4.42-3.672" id="Fill-188" fill="#B3009D"/><path d="M259.6 79.926l.368-3.118-4.79-.553c.37.366 2.024 2.566 4.423 3.67" id="Fill-190" fill="#FFF"/><path d="M253.52 74.79c.18 2.017-1.125 3.663-3.155 3.85-1.843.18-3.504-1.1-3.872-3.117-.183-1.833 1.293-3.486 3.134-3.67 2.03-.37 3.705 1.104 3.892 2.937" id="Fill-192" fill="#FFCBAB"/><path d="M249.078 61.016l.368 3.485v.368c0 .553 0 2.018.182 3.3.37-1.1 1.105-2.934 2.585-4.4-1.85-.92-2.954-2.386-3.135-2.752" id="Fill-194" fill="#FFCBAB"/><path d="M245.018 68.352c-.924-.185-1.66-.185-2.03.366-.55.92-.18 2.387.188 3.686.182.92.55 1.653.737 2.198-.186-1.465-.368-5.15 1.105-6.25" id="Fill-196" fill="#FFCBAB"/><path d="M253.332 48.33c-.382-.186-.938-.372-1.675-.554-12.72-3.85-26.197 3.686-30.07 16.36-3.69 12.852 3.685 26.26 16.61 30.11 11.43 3.317 23.253-2.198 28.41-12.306l-27.302-7.884 14.027-25.725z" id="Fill-198" fill="#FFF"/><path d="M244.65 90.58c-12.92-3.852-20.296-17.256-16.612-29.93 1.473-5.15 4.428-9.19 8.132-12.32-6.84 2.764-12.373 8.27-14.583 15.805-3.69 12.852 3.686 26.26 16.612 30.11 7.924 2.218 15.867.386 21.958-4.397-4.797 1.832-10.343 2.2-15.507.733" id="Fill-200" fill="#DADADA"/><path d="M245.018 68.352c-.736.555-.924 1.467-1.105 2.566.18-1.1.37-2.01 1.105-2.566 1.474.734 3.135 2.2 3.135 2.2s.556.553 1.107.553c-.55 0-1.107-.553-1.107-.553s-1.66-1.466-3.135-2.2zm-.924-.185c.188 0 .557.185.744.185-.187 0-.556-.185-.744-.185zm0 0h-.18.18zm8.3-4.218c.938.55 2.23.918 3.703.918-1.473 0-2.765-.368-3.703-.92zm-3.316-2.934l.736 9.536c0-.367-.187-1.28-.187-2.385.37-1.1 1.105-2.933 2.587-4.4v.182-.183c-1.482 1.467-2.216 3.3-2.587 4.4-.18-1.28-.18-2.746-.18-3.3V64.5l-.37-3.484zm5.177-12.306l-1.492 2.75c.368.182.755.555.936.734h.368c3.503 0 6.458 2.566 6.825 6.237.37 2.4-.554 4.605-2.21 6.07h-.187.187c0 .368.182.734.182 1.1 0 1.1 3.503 5.885 3.69 6.25.37.554 1.655 1.84-2.216 2.386l-.372 2.572-.367 2.385 7.196 2.2h.18c.557-1.1.924-2.385 1.294-3.673 3.502-11.933-2.77-24.426-14.015-29.01z" id="Fill-202" fill="#ABABAB"/><path d="M252.763 51.46l-9.218 16.892c.18-.185.368-.185.368-.185h.18c.19 0 .558.185.744.185h.18c1.475.734 3.137 2.2 3.137 2.2s.554.553 1.105.553c.186 0 .368-.187.555-.553l-.736-9.536c.18.368 1.284 1.833 3.133 2.753v.18h.182c.936.55 2.23.918 3.702.918.738 0 1.474-.185 2.398-.368h.187c1.656-1.465 2.58-3.67 2.212-6.07-.37-3.67-3.323-6.236-6.827-6.236h-.367c-.18-.18-.57-.552-.937-.733" id="Fill-206" fill="#BC3C26"/><path d="M254.255 76.254s.737.734 1.662 1.833l1.472.367c-1.293-.914-2.03-2.013-2.21-2.2h-.925z" id="Fill-208" fill="#E2553D"/><path d="M255.18 76.254c.18.187.917 1.286 2.21 2.2l2.21.738.368-2.383-4.79-.556z" id="Fill-210" fill="#FFF"/><path d="M249.997 71.67s-.182 0-.37.18c-1.84.186-3.135 1.652-3.135 3.485l6.457 1.84c.38-.733.57-1.466.57-2.385-.19-1.654-1.676-3.12-3.523-3.12" id="Fill-212" fill="#FFD5BC"/><path d="M244.094 68.167h-.18s-.187 0-.37.185l-.736 1.467c.368.364.737.732 1.105 1.098.18-1.1.37-2.012 1.105-2.566h-.18c-.187 0-.556-.185-.744-.185" id="Fill-216" fill="#FFD5BC"/><path d="M252.582 47.045l-14.94 27.745 28.598 8.635c.557.185 1.105-.182 1.292-.746.182-.555 0-1.106-.735-1.287l-26.02-7.89 13.847-25.545c.187-.366 0-1.1-.557-1.467-.548-.178-1.118 0-1.485.555" id="Fill-218" fill="#009EE1"/><path d="M245.206 74.423c0 3.297-2.586 5.87-5.902 6.05-3.322 0-6.1-2.566-6.1-5.87 0-3.318 2.598-6.07 5.913-6.07 3.323 0 5.902 2.572 6.09 5.89" id="Fill-220" fill="#009EE1"/><path d="M243.358 74.423c0 2.385-1.843 4.218-4.054 4.218-2.397 0-4.24-1.832-4.427-4.038 0-2.385 1.843-4.23 4.24-4.23 2.218-.187 4.24 1.664 4.24 4.05" id="Fill-222" fill="#FFF"/><path d="M236.17 71.67c-.737.733-1.293 1.653-1.293 2.933.187 2.205 2.03 4.037 4.24 4.037h.187c1.106 0 2.03-.553 2.77-1.1l-5.905-5.87z" id="Fill-224" fill="#EAEAEA"/><path d="M255.55 67.8c-.19 0-.19 0-.37.185-.37.18-.743.734-.556 1.288 0 .18.187.366.187.545.37.367.74.554 1.288.367.736-.18 1.105-.733.925-1.466 0-.735-.738-1.1-1.474-.92" id="Fill-226" fill="#000"/><path d="M152.927 86.176v.185h.738c-.37 0-.557-.184-.738-.184" id="Fill-258" fill="#530053"/></g><g id="planets"><path d="M414 84.076c0 .957-.85 1.924-2.007 1.924-1.163 0-1.993-.967-1.993-1.924 0-1.118.83-2.076 1.993-2.076 1.157 0 2.006.958 2.006 2.076" id="Fill-8" fill="#DEDEDE"/><path d="M261.844 214.427c0 1.86-1.66 3.525-3.526 3.525-1.863 0-3.318-1.665-3.318-3.525 0-1.87 1.455-3.322 3.318-3.322 1.867 0 3.526 1.452 3.526 3.322" id="Fill-10" fill="#00A1E4"/><path d="M133.198 22.114c0 1.832-1.474 3.118-3.135 3.118-1.66 0-3.136-1.286-3.136-3.118 0-1.654 1.475-2.938 3.136-2.938 1.66 0 3.135 1.284 3.135 2.938" id="Fill-12" fill="#005396"/><path d="M4.458 105.23c0 1.116-.93 2.05-2.046 2.05-1.303 0-2.232-.934-2.232-2.05 0-1.303.93-2.23 2.232-2.23 1.116 0 2.046.927 2.046 2.23" id="Fill-14" fill="#95CAF5"/><path d="M414 174.832c0 .914.918 1.654 1.84 1.654.926 0 1.664-.74 1.664-1.654 0-.918-.738-1.832-1.663-1.832-.922 0-1.84.914-1.84 1.832" id="Fill-28" fill="#FFF"/><path d="M352.257 208.174c0 .92.924 1.84 1.842 1.84.924 0 1.66-.92 1.66-1.84 0-.914-.736-1.645-1.66-1.645-.92 0-1.843.73-1.843 1.644" id="Fill-30" fill="#D9EEF8"/><path d="M243.967 203.13c0 1.115 1.13 2.255 2.258 2.255 1.12 0 2.02-1.14 2.02-2.256 0-1.127-.9-2.025-2.02-2.025-1.13 0-2.258.898-2.258 2.024" id="Fill-32" fill="#FFF"/><path d="M83.572 196.898c0 1.348 1.06 2.25 2.143 2.25 1.067 0 2.135-.902 2.135-2.25 0-1.13-1.068-2.03-2.135-2.03-1.082 0-2.143.9-2.143 2.03" id="Fill-34" fill="#FFF"/><path d="M219.59 41.85c0 .904.9 1.806 1.8 1.806s1.622-.902 1.622-1.806c0-.897-.722-1.618-1.622-1.618-.9 0-1.8.72-1.8 1.618" id="Fill-46" fill="#FFF"/><path d="M99 13.67c0 1.1.736 1.833 1.66 1.833 1.125 0 1.863-.733 1.863-1.832 0-.93-.738-1.67-1.862-1.67-.924 0-1.66.74-1.66 1.67" id="Fill-48" fill="#DEDEDE"/><path d="M347 31.623c0 .904.72 1.8 1.622 1.8 1.08 0 1.8-.896 1.8-1.8s-.72-1.623-1.8-1.623c-.9 0-1.622.72-1.622 1.623" id="Fill-52" fill="#DCEDF7"/><path d="M383.344 132.988c0 1.466-1.105 2.752-2.58 2.752-1.48 0-2.786-1.286-2.786-2.752 0-1.467 1.307-2.564 2.787-2.564 1.474 0 2.58 1.097 2.58 2.564" id="Fill-56" fill="#005396"/><path d="M143.778 88.617c-.19.967-1.354 1.743-2.525 1.356-1.164-.193-1.94-1.356-1.55-2.52.386-1.17 1.55-1.944 2.523-1.557 1.165.386 1.94 1.558 1.552 2.72" id="Fill-249" fill="#00A1E4"/><path id="Fill-260" fill="#530053" d="M128.384 102.886h.18z"/></g><g id="ship"><g id="Group-137" transform="rotate(-68 252.21 -97.36)"><path d="M6.497 34.75c1.277-1.96 3.343-3.225 5.603-3.42l2.074 1.267c-2.27.29-4.334 1.47-5.613 3.515-4.824 7.316-6.006 17.078-6.3 21.46-1.374.684-2.163 1.084-2.163 1.084s0-14.06 6.4-23.907" id="Fill-58" fill="#C48C00"/><path d="M14.174 32.597l5.897 3.81c.69 2.24.495 4.68-.684 6.533C14.568 50.355 6.2 55.432 2.26 57.572c.293-4.382 1.476-14.144 6.3-21.46 1.28-2.046 3.343-3.225 5.614-3.515" id="Fill-59" fill="#FFB900"/><path d="M20.367 36.6s2.172 5.17.983 9.07c3.943-1.17 9.456-7.512 10.44-12.294l-.59-5.66L20.366 36.6z" id="Fill-60" fill="#A80000"/><path d="M11.018 30.646s-5.604.195-8.66 2.925c-.59-4.092 2.96-11.702 6.988-14.537l5.418-1.752-3.746 13.366z" id="Fill-61" fill="#D83B01"/><path d="M30.807 10.354c-1.486-.984-2.765-2.057-3.842-3.323.196-.095.292-.194.49-.39 4.138-2.725 8.17-4.292 10.234-4.975.292 2.25.49 6.438-.298 11.318-2.26-.488-4.52-1.362-6.585-2.63" id="Fill-62" fill="#009EE1"/><path d="M25.685 5.57c.394.486.787.976 1.28 1.46-3.344 2.244-6.598 5.175-9.153 9.08-3.244 5.068-4.523 10.923-5.016 15.705l-1.778-1.17c.492-4.78 1.778-10.54 5.024-15.71 2.654-3.997 6.2-7.123 9.643-9.364" id="Fill-63" fill="#A80000"/><path d="M26.964 7.03c1.08 1.268 2.357 2.34 3.842 3.323 2.065 1.268 4.325 2.143 6.586 2.63-.69 4.103-2.064 8.584-4.622 12.588-3.35 5.175-8.167 8.69-12.403 11.03l-7.572-4.785c.493-4.782 1.773-10.637 5.016-15.706 2.557-3.905 5.81-6.836 9.154-9.08" id="Fill-64" fill="#D83B01"/><path d="M21.873 14.57c-1.628 2.526-.918 5.95 1.62 7.56 2.53 1.62 5.968.917 7.595-1.61 1.72-2.62.912-5.95-1.627-7.662-2.527-1.61-5.968-.904-7.587 1.71" id="Fill-65" fill="#FFF"/><circle id="Oval-11" fill="#BFBFBF" cx="26.5" cy="17.5" r="4.5"/><path id="Fill-66" fill="#A80000" d="M10.822 38.937l2.074 1.372L23.62 23.82l-2.17-1.368z"/><path d="M26.964 7.03c-.493-.484-.886-.974-1.278-1.458C31.79 1.565 37.492.008 37.492.008s.096.584.197 1.657c-2.066.683-6.097 2.25-10.236 4.976-.197.196-.293.295-.49.39" id="Fill-69" fill="#0078D7"/></g></g><g id="stars"><path id="star-1" fill="#DEDEDE" d="M42.39 64.21l1.105 6.972 7.027.918-7.027.916-1.106 6.987-.925-6.987-7.007-.916 7.007-.918z"/><path id="star-2" fill="#DEDEDE" d="M472.39 144.21l1.105 6.972 7.027.918-7.027.916-1.106 6.987-.925-6.987-7.007-.916 7.007-.918z"/><path id="star-3" fill="#DEDEDE" d="M168.944.197l1.105 6.99 7.006 1.098-7.007.92-1.106 6.97-.924-6.97-7.02-.92 7.02-1.1z"/><path id="star-4" fill="#FFF" d="M319.188 134.206l1.105 6.99 7.007 1.098-7.007.92-1.105 6.97-.925-6.97-7.02-.92 7.02-1.1z"/><path id="star-5" fill="#FFF" d="M287.01 51l1.106 6.97 7.008 1.106-7.008.914-1.106 6.99-.923-6.99-7.008-.914 7.007-1.106z"/></g></g></g></svg>