
<svg width="92px" height="92px" viewBox="0 0 92 92" version="1.1" xmlns="http://www.w3.org/2000/svg" xmlns:xlink="http://www.w3.org/1999/xlink">
    <!-- Generator: Sketch 47.1 (45422) - http://www.bohemiancoding.com/sketch -->
    <desc>Created with Sketch.</desc>
    <defs></defs>
    <g id="Mobile-Center" stroke="none" stroke-width="1" fill="none" fill-rule="evenodd">
        <g id="CodePush---Migration" transform="translate(-728.000000, -1254.000000)">
            <g id="Group-13" transform="translate(162.000000, 803.000000)">
                <g id="box" transform="translate(567.000000, 452.000000)">
                    <g id="Group-16">
                        <circle id="Oval" stroke="#E5E6E9" fill="#FFFFFF" cx="45" cy="45" r="45"></circle>
                        <g id="Group-14" transform="translate(19.000000, 25.000000)">
                            <rect id="Rectangle-8" stroke="#27333F" stroke-width="2" x="1" y="1" width="50" height="38" rx="3"></rect>
                            <rect id="Rectangle-10" fill="#27333F" x="0" y="9" width="52" height="2"></rect>
                            <circle id="Oval-7" fill="#27333F" cx="8" cy="6" r="1"></circle>
                            <circle id="Oval-7" fill="#27333F" cx="12" cy="6" r="1"></circle>
                            <g id="Group-21" transform="translate(7.000000, 16.000000)" fill="#009EE1">
                                <rect id="Rectangle-16" x="0" y="0" width="2" height="2" rx="1"></rect>
                                <rect id="Rectangle-16" x="0" y="5" width="2" height="2" rx="1"></rect>
                                <rect id="Rectangle-16" x="0" y="10" width="2" height="2" rx="1"></rect>
                                <rect id="Rectangle-16" x="0" y="15" width="2" height="2" rx="1"></rect>
                            </g>
                            <g id="Group-21" transform="translate(11.000000, 16.000000)">
                                <rect id="Rectangle-16" fill="#009EE1" x="0" y="0" width="12" height="2" rx="1"></rect>
                                <rect id="Rectangle-16" fill="#27333F" x="16" y="0" width="18" height="2" rx="1"></rect>
                                <rect id="Rectangle-16" fill="#27333F" x="16" y="5" width="18" height="2" rx="1"></rect>
                                <rect id="Rectangle-16" fill="#27333F" x="16" y="10" width="18" height="2" rx="1"></rect>
                                <rect id="Rectangle-16" fill="#27333F" x="16" y="15" width="18" height="2" rx="1"></rect>
                                <rect id="Rectangle-16" fill="#009EE1" x="0" y="5" width="12" height="2" rx="1"></rect>
                                <rect id="Rectangle-16" fill="#009EE1" x="0" y="10" width="12" height="2" rx="1"></rect>
                                <rect id="Rectangle-16" fill="#009EE1" x="0" y="15" width="12" height="2" rx="1"></rect>
                            </g>
                        </g>
                    </g>
                </g>
            </g>
        </g>
    </g>
</svg>