
<svg width="92px" height="92px" viewBox="0 0 92 92" version="1.1" xmlns="http://www.w3.org/2000/svg" xmlns:xlink="http://www.w3.org/1999/xlink">
    <!-- Generator: Sketch 47.1 (45422) - http://www.bohemiancoding.com/sketch -->
    <desc>Created with Sketch.</desc>
    <defs></defs>
    <g id="Mobile-Center" stroke="none" stroke-width="1" fill="none" fill-rule="evenodd">
        <g id="CodePush---Migration" transform="translate(-161.000000, -936.000000)">
            <g id="Group-13" transform="translate(162.000000, 803.000000)">
                <g id="box" transform="translate(0.000000, 134.000000)">
                    <g id="Group-30">
                        <circle id="Oval" stroke="#E5E6E9" fill="#FFFFFF" cx="45" cy="45" r="45"></circle>
                        <g id="Group-29" transform="translate(17.000000, 23.000000)">
                            <path d="M1,37 L55,37 L55,14.9989419 C55,10.5757634 51.4225157,7 47.0026312,7 L8.99736881,7 C4.58002387,7 1,10.580891 1,14.9989419 L1,37 Z" id="Rectangle-17" stroke="#27333F" stroke-width="2"></path>
                            <polyline id="Path-7" stroke="#2CA8E1" stroke-width="2" points="18 4 18 0 38 0 38 4"></polyline>
                            <g id="Group-15" transform="translate(0.000000, 17.000000)">
                                <rect id="Rectangle-18" fill="#27333F" x="0" y="4" width="56" height="2"></rect>
                                <rect id="Rectangle-20" stroke="#27333F" stroke-width="2" x="23" y="2" width="10" height="6"></rect>
                                <rect id="Rectangle-20" stroke="#27333F" stroke-width="2" x="8" y="1" width="5" height="8"></rect>
                                <rect id="Rectangle-20" stroke="#27333F" stroke-width="2" x="43" y="1" width="5" height="8"></rect>
                            </g>
                        </g>
                    </g>
                </g>
            </g>
        </g>
    </g>
</svg>