
<svg width="92px" height="92px" viewBox="0 0 92 92" version="1.1" xmlns="http://www.w3.org/2000/svg" xmlns:xlink="http://www.w3.org/1999/xlink">
    <!-- Generator: Sketch 47.1 (45422) - http://www.bohemiancoding.com/sketch -->
    <desc>Created with Sketch.</desc>
    <defs></defs>
    <g id="Mobile-Center" stroke="none" stroke-width="1" fill="none" fill-rule="evenodd">
        <g id="CodePush---Migration" transform="translate(-729.000000, -936.000000)">
            <g id="Group-13" transform="translate(162.000000, 803.000000)">
                <g id="box" transform="translate(568.000000, 134.000000)">
                    <circle id="Oval" stroke="#E5E6E9" fill="#FFFFFF" cx="45" cy="45" r="45"></circle>
                    <g id="Group-14" transform="translate(19.000000, 20.000000)">
                        <rect id="Rectangle-8" stroke="#27333F" stroke-width="2" x="1" y="5" width="50" height="35"></rect>
                        <path d="M25,0.999807492 C25,0.447629061 25.4438648,0 26,0 L26,0 C26.5522847,0 27,0.443716645 27,0.999807492 L27,5 L25,5 L25,0.999807492 Z" id="Rectangle-19" fill="#27333F"></path>
                        <g id="Group-20" transform="translate(15.000000, 43.000000)" fill="#27333F">
                            <rect id="Rectangle-19" x="10" y="0" width="2" height="8" rx="1"></rect>
                            <rect id="Rectangle-19" x="0" y="6" width="22" height="2" rx="1"></rect>
                        </g>
                        <g id="Group-19" transform="translate(7.000000, 13.000000)" stroke="#009EE1" stroke-width="2">
                            <polyline id="Path-8" stroke-linecap="round" stroke-linejoin="round" points="2 16 11.9343768 6.36516863 21.7167479 15.8525776 36 2"></polyline>
                            <circle id="Oval-8" fill="#FFFFFF" cx="2.5" cy="15.5" r="2.5"></circle>
                            <circle id="Oval-8" fill="#FFFFFF" cx="21.5" cy="15.5" r="2.5"></circle>
                            <circle id="Oval-8" fill="#FFFFFF" cx="11.5" cy="6.5" r="2.5"></circle>
                            <circle id="Oval-8" fill="#FFFFFF" cx="35.5" cy="2.5" r="2.5"></circle>
                        </g>
                    </g>
                </g>
            </g>
        </g>
    </g>
</svg>