
<svg width="92px" height="92px" viewBox="0 0 92 92" version="1.1" xmlns="http://www.w3.org/2000/svg" xmlns:xlink="http://www.w3.org/1999/xlink">
    <!-- Generator: Sketch 47.1 (45422) - http://www.bohemiancoding.com/sketch -->
    <desc>Created with Sketch.</desc>
    <defs></defs>
    <g id="Mobile-Center" stroke="none" stroke-width="1" fill="none" fill-rule="evenodd">
        <g id="CodePush---Migration" transform="translate(-165.000000, -1254.000000)">
            <g id="Group-13" transform="translate(162.000000, 803.000000)">
                <g id="box" transform="translate(4.000000, 452.000000)">
                    <g id="Group-23">
                        <circle id="Oval" stroke="#E5E6E9" fill="#FFFFFF" cx="45" cy="45" r="45"></circle>
                        <g id="Group-18" transform="translate(15.000000, 20.000000)">
                            <g id="Group-7" transform="translate(14.000000, 0.000000)">
                                <rect id="Rectangle-6" stroke="#27333F" stroke-width="2" x="1" y="1" width="30" height="48" rx="5"></rect>
                                <rect id="Rectangle-7" fill="#27333F" x="11" y="5" width="10" height="2" rx="1"></rect>
                                <rect id="Rectangle-7" fill="#27333F" x="0" y="38" width="32" height="2"></rect>
                                <circle id="Oval-4" fill="#27333F" cx="16" cy="44" r="2"></circle>
                            </g>
                            <path d="M28.1477244,28.1302465 C24.7896277,31.307904 21.5759703,33.4777905 18.4887365,34.5338988 C17.2729708,34.9497987 16.0826278,35.1882848 14.9193616,35.2396882 C7.56779515,35.5645452 0.670401705,28.358375 0.670401705,20.8927791 C0.670401705,13.776744 6.21851206,7.3885826 13.5766015,6.56171027 L14.0232937,12.5241803 C9.77938317,13.0010938 6.67040171,16.7402043 6.67040171,20.8927791 C6.67040171,25.0323806 10.8303221,29.4145229 14.6544872,29.2455376 C15.2258884,29.220288 15.8576056,29.0926158 16.5466938,28.8568864 C18.7150033,28.1151319 21.2655759,26.3821397 24.0237859,23.7721355 C25.250381,22.6114485 26.35864,21.4288003 27.2592211,20.3222106 C27.3649452,20.1793979 27.5300643,19.9640987 27.7275293,19.7127147 C28.1038629,19.2336209 28.5183542,18.7255574 28.9616717,18.2014139 C30.3380912,16.5740443 31.7856078,15.0322126 33.2683683,13.6291247 C36.6264649,10.4514672 39.8401224,8.28158061 42.9273561,7.22547235 C44.1431218,6.80957242 45.3334649,6.57108632 46.496731,6.51968297 C53.8482975,6.19482597 60.7456909,13.4009961 60.7456909,20.8665921 C60.7456909,27.839744 54.4553968,34.3558291 46.9641874,35.1976609 C45.6165748,35.3491001 44.2175091,35.1765097 42.7792031,34.7067865 C40.4324628,33.9403862 38.0133208,32.4055211 35.4964624,30.1757227 C34.3856037,29.191563 33.3021229,28.1114614 32.2716429,26.9715831 C31.9393301,26.6039911 31.6282253,26.2472599 31.3451342,25.9101756 C31.1948571,25.7312367 31.0684018,25.5770129 30.9849837,25.4716431 L30.8835967,25.343576 C29.9913387,26.3181803 29.0764448,27.2514286 28.1477244,28.1302465 Z M35.6892501,21.7474147 C35.7338967,21.8038101 35.8254217,21.9153497 35.939764,22.0515001 C36.1756516,22.3323779 36.4389199,22.6342335 36.7224861,22.9479038 C37.6074848,23.9268561 38.5356324,24.8522544 39.4752547,25.6847082 C41.4019663,27.3916689 43.171213,28.5229491 44.6418725,29.0032383 C45.2914751,29.215386 45.8422889,29.2859691 46.2941491,29.2351909 C50.820634,28.7265228 54.7456909,24.7028877 54.7456909,20.8665921 C54.7456909,16.7269906 50.5857705,12.3448483 46.7616054,12.5138336 C46.1902042,12.5390831 45.5584871,12.6667553 44.8693988,12.9024848 C42.7010893,13.6442393 40.1505167,15.3772314 37.3923067,17.9872357 C36.4522368,18.8767932 35.5816751,19.7792502 34.8208403,20.6504812 L35.6892501,21.7474147 Z" id="Combined-Shape" fill="#FFFFFF"></path>
                            <path d="M25.3984321,25.2248392 C22.5437998,27.9260846 19.7487712,29.8752792 17.1940414,30.7492238 C16.3355462,31.0429055 15.5170346,31.2093743 14.7427787,31.2435878 C9.61632575,31.4701196 4.67040171,26.0003535 4.67040171,20.8927791 C4.67040171,16.0634335 8.22625898,11.1630389 13.7999476,10.5366903 L13.7999476,8.54920027 C7.23937802,9.28645054 2.67040171,15.0183401 2.67040171,20.8927791 C2.67040171,27.0791215 8.49586578,33.5215831 14.8310701,33.241638 C15.8058303,33.1985645 16.8103712,32.994261 17.841389,32.6415613 C20.7191548,31.6571097 23.7287926,29.5582512 26.7730782,26.6775428 C28.2583707,25.2720589 29.656285,23.7692322 30.9273774,22.266393 C31.3724638,21.7401581 31.7702943,21.2510227 32.1157716,20.8112107 C32.324773,20.5451402 32.4710363,20.3530419 32.5494178,20.2471637 C33.5972844,18.9559458 34.7778889,17.7076875 36.0176606,16.534532 C38.8722928,13.8332865 41.6673214,11.8840919 44.2220512,11.0101473 C45.0805464,10.7164657 45.899058,10.5499968 46.673314,10.5157834 C51.7997669,10.2892515 56.7456909,15.7590176 56.7456909,20.8665921 C56.7456909,25.6959376 52.0911838,30.5963323 46.5174952,31.2226809 C45.7586941,31.3079519 44.9240553,31.1993472 44.0209827,30.904421 C42.2015681,30.3102351 40.1987331,28.9976724 38.1489906,27.181713 C37.1120807,26.2630678 36.1310766,25.2760539 35.2388717,24.2891302 C34.9268747,23.9440108 34.6486735,23.624039 34.4082207,23.3377253 C34.2657686,23.1681037 34.1687797,23.0489734 34.1211613,22.9888242 L32.5530725,24.2302336 C32.6123466,24.3051058 32.72147,24.4391407 32.8766774,24.6239505 C33.1323239,24.9283557 33.4264239,25.2666134 33.7552573,25.6303567 C34.6939966,26.6687549 35.7259823,27.7070627 36.8227265,28.6787179 C39.0592865,30.6601873 41.2729582,32.1109224 43.4000929,32.8056038 C44.5599101,33.1843778 45.6769403,33.3297278 46.7408413,33.2101709 C53.3014108,32.4729206 58.7456909,26.741031 58.7456909,20.8665921 C58.7456909,14.6802497 52.9202268,8.23778801 46.5850225,8.51773317 C45.6102624,8.56080667 44.6057214,8.76511014 43.5747036,9.11780982 C40.6969378,10.1022615 37.6873,12.20112 34.6430144,15.0818283 C33.1577219,16.4873122 31.7598076,17.990139 30.4887152,19.4929781 C30.0436289,20.019213 29.6457984,20.5083484 29.300321,20.9481604 C29.0913197,21.2142309 28.9450564,21.4063292 28.8666748,21.5122074 C27.8188083,22.8034253 26.6382038,24.0516836 25.3984321,25.2248392 Z" id="Path" fill="#009EE1"></path>
                        </g>
                    </g>
                </g>
            </g>
        </g>
    </g>
</svg>