<?xml version="1.0" encoding="utf-8"?>
<!-- Generator: Adobe Illustrator 19.1.0, SVG Export Plug-In . SVG Version: 6.00 Build 0)  -->
<svg version="1.1" xmlns="http://www.w3.org/2000/svg" xmlns:xlink="http://www.w3.org/1999/xlink" x="0px" y="0px"
	 viewBox="0 0 1932.1 927.8" style="enable-background:new 0 0 1932.1 927.8;" xml:space="preserve">
<style type="text/css">
	.st0{fill:#FFFFFF;}
	.st1{opacity:0.19;fill:#565F52;}
</style>
<g id="Layer_1">
	<rect x="0" width="1932.1" height="927.8"/>
	<circle class="st0" cx="483.5" cy="226.3" r="1.5"/>
	<circle class="st0" cx="787.7" cy="142.9" r="1.5"/>
	<circle class="st0" cx="647.2" cy="305.1" r="1.5"/>
	<circle class="st0" cx="1349" cy="168.9" r="1.5"/>
	<circle class="st0" cx="1253" cy="226.3" r="1.5"/>
	<circle class="st0" cx="1154.9" cy="170.4" r="1.5"/>
	<circle class="st0" cx="1145.6" cy="78.4" r="1.5"/>
	<circle class="st0" cx="1485" cy="318.1" r="1.5"/>
	<circle class="st0" cx="454.7" cy="378.7" r="1.5"/>
	<circle class="st0" cx="1472.5" cy="571.9" r="1.5"/>
	<circle class="st0" cx="521.9" cy="607.4" r="1.5"/>
	<circle class="st0" cx="1397.2" cy="577.3" r="1.5"/>
	<circle class="st0" cx="1567" cy="739" r="1.5"/>
	<circle class="st0" cx="1492" cy="906.1" r="1.5"/>
	<circle class="st0" cx="1696" cy="661" r="1.5"/>
	<circle class="st0" cx="1873.5" cy="764.4" r="1.5"/>
	<circle class="st0" cx="1639" cy="306.6" r="1.5"/>
	<circle class="st0" cx="1710.1" cy="398.7" r="1.5"/>
	<circle class="st0" cx="1834.6" cy="622.3" r="1.5"/>
	<circle class="st0" cx="1836.1" cy="303.6" r="1.5"/>
	<circle class="st0" cx="1711.6" cy="185.5" r="1.5"/>
	<circle class="st0" cx="1567" cy="59.9" r="1.5"/>
	<circle class="st0" cx="1688.5" cy="825.6" r="1.5"/>
	<circle class="st0" cx="298.2" cy="793" r="1.5"/>
	<circle class="st0" cx="411.2" cy="879.4" r="1.5"/>
	<circle class="st0" cx="118" cy="841.9" r="1.5"/>
	<circle class="st0" cx="87" cy="647.1" r="1.5"/>
	<circle class="st0" cx="191.5" cy="543.9" r="1.5"/>
	<circle class="st0" cx="119.5" cy="398.9" r="1.5"/>
	<circle class="st0" cx="241.5" cy="265.5" r="1.5"/>
	<circle class="st0" cx="96.5" cy="227.4" r="1.5"/>
	<circle class="st0" cx="243" cy="61.4" r="1.5"/>
	<circle class="st0" cx="414.2" cy="629.4" r="1.5"/>
</g>
<g id="milkyway">
	<path class="st1" d="M1933.3,177.7l6.2,136.5c0,0-1135.8-86.1-1158.8-89.6c-32.6-5-63.3-19.7-20.8-62
		c72.5-72.1-807.1-28.3-807.1-28.3l2.2-20.6c0,0,969.2-82.6,896.7-10.5s67.9,64.1,67.9,64.1L1933.3,177.7l6.2,0.1"/>
	<g>
		<path class="st1" d="M1.7,184.1L0,182.6v1.4C0,184.1,0.6,184.1,1.7,184.1z"/>
		<path class="st1" d="M705.7,284c-50-20.1-21.9-67.3-32.6-100C648.7,109.5,0,163.5,0,163.5v9v10.2c0,0,586-38.3,600.9,11.3
			c14.8,49.6-42.8,60.1-30.5,112.7c6.5,27.7,37.1,51.8,78.8,71c9.7,4.5,66,20.2,86.2,24.1C1092,471,1932.1,562.3,1932.1,562.3V391.1
			C1932.1,391.1,782.4,314.8,705.7,284z"/>
	</g>
</g>
</svg>
