<svg id="Layer_1" xmlns="http://www.w3.org/2000/svg" viewBox="-184 376 241.5 42"><style>.st0{fill:#57ABDF;} .st1{fill:#7BCD33;}</style><path class="st0" d="M-66.5 403.4c.2 0 .4 0 .6.1s.3.2.5.3c.1.1.2.3.3.5.1.2.1.4.1.6 0 .4-.2.8-.5 1.1-2.1 1.7-4.6 2.6-7.2 2.6-3.2 0-5.9-1.1-8.1-3.4-2.2-2.2-3.4-5-3.4-8.1 0-3.2 1.1-5.9 3.4-8.1 2.3-2.3 5-3.4 8.1-3.4 2.7 0 5.2.9 7.4 2.7.3.3.4.6.4 1.1 0 .2 0 .4-.1.6s-.2.3-.3.5c-.1.1-.3.2-.5.3-.2.1-.4.1-.6.1-.4 0-.7-.1-1.1-.4-.7-.6-1.5-1-2.4-1.3-.9-.3-1.8-.5-2.8-.5-2.3 0-4.3.8-6 2.5-1.6 1.6-2.5 3.6-2.5 6s.8 4.3 2.5 6c1.7 1.7 3.7 2.5 6 2.5 2 0 3.8-.6 5.3-1.9.2-.3.5-.3.9-.4zM-47.2 400.6c0 2.2-.8 4.1-2.4 5.7-1.6 1.6-3.5 2.4-5.7 2.4s-4.1-.8-5.7-2.4c-1.6-1.6-2.4-3.5-2.4-5.7s.8-4.1 2.4-5.7 3.5-2.4 5.7-2.4 4.1.8 5.7 2.4c.8.8 1.4 1.7 1.8 2.6s.6 2 .6 3.1zm-8.1-5.1c-.7 0-1.4.1-2 .4-.6.3-1.1.6-1.6 1.1s-.8 1-1.1 1.6c-.3.6-.4 1.3-.4 2s.1 1.3.4 2c.3.6.6 1.1 1.1 1.6s1 .8 1.6 1.1c.6.3 1.3.4 2 .4s1.4-.1 2-.4c.6-.3 1.1-.6 1.6-1.1s.8-1 1.1-1.6.4-1.3.4-2-.1-1.3-.4-2c-.3-.6-.6-1.1-1.1-1.6s-1-.8-1.6-1.1c-.6-.3-1.3-.4-2-.4zM-37 392.5c1.9 0 3.6.6 5.1 1.8v-7.2c0-.4.1-.8.4-1.1s.6-.4 1.1-.4c.4 0 .8.1 1.1.4s.4.6.4 1.1v13.5c0 2.2-.8 4.1-2.4 5.7-1.6 1.6-3.5 2.4-5.7 2.4s-4.1-.8-5.7-2.4c-1.6-1.6-2.4-3.5-2.4-5.7s.8-4.1 2.4-5.7 3.5-2.4 5.7-2.4zm5 8.1c0-.7-.1-1.3-.4-2-.3-.7-.6-1.1-1.1-1.6s-1-.8-1.6-1.1c-.6-.3-1.3-.4-2-.4s-1.4.1-2 .4c-.6.3-1.1.6-1.6 1.1s-.8 1-1.1 1.6-.4 1.3-.4 2 .1 1.3.4 2c.3.7.6 1.1 1.1 1.6s1 .8 1.6 1.1c.6.3 1.3.4 2 .4s1.4-.1 2-.4c.6-.3 1.1-.6 1.6-1.1s.8-1 1.1-1.6.4-1.3.4-2zM-14.3 404.1c.4 0 .8.1 1.1.4s.4.6.4 1.1c0 .4-.1.8-.4 1.1-1.5 1.3-3.2 2-5.3 2-2.2 0-4.1-.8-5.7-2.4-1.6-1.6-2.4-3.5-2.4-5.7s.8-4.1 2.4-5.7 3.5-2.4 5.7-2.4 4.1.8 5.7 2.4c.8.8 1.4 1.6 1.8 2.6.4 1 .6 2 .6 3.1 0 .4-.1.8-.4 1.1-.3.3-.7.4-1.1.4h-11.4c.2.5.4 1 .7 1.4s.7.8 1.1 1.1c.4.3.9.6 1.4.7.5.2 1 .3 1.6.3s1.2-.1 1.7-.3c.5-.2 1-.5 1.5-.9.3-.2.7-.3 1-.3zm.7-5c-.2-.5-.4-1-.7-1.4-.3-.4-.7-.8-1.1-1.1-.4-.3-.9-.6-1.4-.7s-1-.3-1.6-.3-1.1.1-1.6.3c-.5.2-1 .4-1.4.7-.4.3-.8.7-1.1 1.1-.3.4-.6.9-.7 1.4h9.6z"/><path class="st1" d="M-7.9 407.1v-20c0-.2 0-.4.1-.6s.2-.4.3-.5.3-.2.5-.3c.2-.1.4-.1.6-.1H-2c.7 0 1.4.1 2 .3.6.2 1.3.4 1.8.8s1.1.7 1.6 1.2.9 1 1.2 1.5.6 1.2.8 1.8c.2.6.3 1.3.3 2 0 2.1-.8 3.9-2.3 5.4s-3.3 2.2-5.4 2.2h-2.9v6.2c0 .4-.1.8-.4 1.1-.3.3-.7.4-1.1.4-.4 0-.8-.1-1.1-.4-.2-.2-.4-.6-.4-1zm3.1-18.5v9.2h2.9c.6 0 1.2-.1 1.8-.4.6-.2 1-.6 1.5-1 .4-.4.7-.9 1-1.5.2-.6.4-1.2.4-1.8s-.1-1.2-.4-1.8c-.2-.6-.6-1-1-1.5-.4-.4-.9-.7-1.5-1-.6-.2-1.1-.4-1.8-.4h-2.9v.2zM21.3 408.6c-.4 0-.8-.1-1.1-.4-.3-.3-.4-.6-.4-1.1-.7.5-1.4.9-2.1 1.1-.7.2-1.5.4-2.4.4-1 0-2-.2-2.9-.6s-1.7-.9-2.4-1.6c-.7-.7-1.2-1.5-1.6-2.4-.4-.9-.6-1.9-.6-2.9V394c0-.4.1-.8.4-1.1.3-.3.7-.4 1.1-.4.4 0 .8.1 1.1.4.3.3.4.6.4 1.1v7.1c0 .6.1 1.2.4 1.8.2.5.6 1 1 1.4.4.4.9.7 1.4 1 .5.2 1.1.4 1.8.4.6 0 1.2-.1 1.7-.4.5-.2 1-.6 1.4-1 .4-.4.7-.9 1-1.4.2-.5.4-1.1.4-1.7V394c0-.4.1-.8.4-1.1.3-.3.7-.4 1.1-.4.4 0 .8.1 1.1.4.3.3.4.6.4 1.1v13.1c0 .4-.1.8-.4 1.1-.5.3-.8.4-1.2.4zM28.5 401c-.9-.3-1.5-.7-1.9-1.1-.7-.7-1.1-1.6-1.1-2.6 0-.7.2-1.4.6-2 .4-.6.9-1.1 1.5-1.5.6-.4 1.3-.7 2.1-1 .8-.2 1.6-.3 2.4-.3 2.4 0 4.5 1 6.2 2.9.2.3.3.6.3.9 0 .4-.1.8-.4 1.1-.3.3-.6.4-1.1.4-.3 0-.6-.1-.8-.3l-.6-.6c-1-1-2.2-1.5-3.6-1.5s-2.5.4-3.3 1.3c-.2.2-.2.4-.2.6 0 .2.1.5.4.5l6.7 2.2c.9.4 1.6.7 1.9 1.1.7.7 1.1 1.6 1.1 2.6 0 .7-.2 1.4-.6 2-.4.6-.9 1.1-1.5 1.5-.6.4-1.3.7-2.1 1-.8.2-1.6.3-2.3.3-2.4 0-4.5-1-6.2-2.9-.2-.3-.3-.6-.3-.9 0-.4.1-.8.4-1.1.3-.3.6-.4 1.1-.4.3 0 .6.1.8.3s.4.4.6.5c1 1 2.2 1.5 3.6 1.5s2.5-.4 3.3-1.3c.1-.2.2-.4.2-.6 0-.3-.1-.5-.4-.6l-6.8-2zM44.4 407.1c0 .4-.1.8-.4 1.1-.3.3-.7.4-1.1.4-.4 0-.8-.1-1.1-.4-.3-.3-.4-.6-.4-1.1v-20c0-.4.1-.8.4-1.1.3-.3.6-.4 1.1-.4.4 0 .8.1 1.1.4s.4.7.5 1.1v6.9c1.3-1 2.8-1.5 4.5-1.5 1 0 2 .2 2.9.6s1.7.9 2.4 1.6c.7.7 1.2 1.5 1.6 2.4.4.9.6 1.9.6 2.9v7.1c0 .4-.2.8-.5 1.1-.3.3-.6.4-1.1.4-.4 0-.8-.1-1.1-.4-.3-.3-.4-.6-.4-1.1V400c0-.6-.1-1.2-.4-1.7-.2-.5-.6-1-1-1.4s-.9-.7-1.4-1c-.5-.2-1.1-.4-1.7-.4-.6 0-1.2.1-1.7.4-.5.3-1 .6-1.4 1s-.7.9-1 1.4-.4 1.1-.4 1.7v7.1z"/><g><path class="st0" d="M-162.4 400.4h-8.3c-1.2 0-2 .3-2.6 1.4-2.2 4.6-4.5 9.2-6.8 13.8-.8 1.6-.2 2.4 1.9 2.4h15.3c1.8 0 2.9-.7 3.6-2.2 2.1-4.5 4.2-9.1 6.5-13.6.8-1.6.1-1.9-1.5-1.9-2.7.1-5.4.1-8.1.1zm51.4-2.2c-2.5-5.7-2.7-11.2-.5-16.8.6-1.5 0-1.6-1.4-1.8-5.5-.8-4.1 6-8.6 6.4-.7.1-.9.8-.9 1.5.2 2.6-1.4 6 3.2 7 .5.1 1.1.8 1.3 1.3 1.3 3.1 3.7 3.1 6.9 2.4zm-73-21.4c8.3 5.1 17.5 4 26.7 3.8-.9-2.9-2.7-3.9-5.5-3.8H-184zm55.4 13.4v-10.9c0-.7.1-1.5-1-1.6-.8 0-1.1.7-1 1.3.2 2.9-1.2 5.6-1 8.6.3 4.3-.1 8.6.9 12.8.2.7-.2 1.9.9 2 1.3.1 1.2-1.1 1.2-2v-10.2zm4.2-.2v-9.4c0-.7-.1-1.6-1-1.6s-1 .9-1 1.7v19.1c0 .7.1 1.6 1 1.6s1-.9 1-1.7V390zm21.7-4.2h5.6c.7 0 1.4-.2 1.4-1 0-.5-.5-.9-1.1-.9h-11.6c-.7 0-1.3.4-1.2 1.1.1.6.7.7 1.3.7 1.8.1 3.7.1 5.6.1zm3.1 1.8h-5.3c-.8 0-1.7.1-1.6 1 .1.8.9.8 1.5.8h10.9c.7 0 1.5-.1 1.5-.9 0-.7-.6-1-1.4-1-1.9.1-3.7.1-5.6.1zm-2.4 4.1h-5.3c-.6 0-1.5 0-1.6.7 0 .8.7 1.1 1.6 1.1h11c.8 0 1.4-.4 1.4-1 0-.7-.8-.9-1.5-.9-1.8.1-3.7.1-5.6.1z"/><path class="st0" d="M-133.8 376c0 9 .1 17.2.1 25.7 0 .8.3 2-.8 2-1.5.1-1.2-1.3-1.1-2.1.4-2.6-.6-3.3-3.6-3.2-10.4.2-20.8 0-31.2 0-5.4 0-9.1-3.2-9.2-7.6-.1-4.7 3.9-8.1 9.5-8.2 10.3 0 20.6-.1 30.9.1 2.8 0 4.2-.4 3.6-3.2-.2-1.2-.1-2.5.5-3.5h1.3z"/><path class="st1" d="M-162.4 400.4h8c1.6 0 2.3.2 1.5 1.9-2.2 4.5-4.3 9.1-6.5 13.6-.7 1.4-1.8 2.1-3.6 2.1h-15.3c-2 0-2.7-.8-1.9-2.4 2.3-4.6 4.6-9.2 6.8-13.8.5-1.1 1.3-1.4 2.6-1.4h8.4zM-111 398.2c-3.2.7-5.6.7-6.8-2.4-.2-.5-.8-1.2-1.3-1.3-4.6-1.1-3-4.4-3.2-7-.1-.7.2-1.4.9-1.5 4.4-.3 3-7.2 8.6-6.4 1.4.2 2 .3 1.4 1.8-2.3 5.6-2.1 11.1.4 16.8zM-184 376.8c7.1 0 14.1.1 21.2 0 2.9 0 4.7.9 5.5 3.8-9.2.2-18.4 1.3-26.7-3.8zM-128.6 390.2v10.3c0 .9.1 2.1-1.2 2-1.1-.1-.7-1.2-.9-2-1.1-4.2-.7-8.5-.9-12.8-.2-3 1.2-5.7 1-8.6 0-.6.2-1.3 1-1.3 1.1 0 1 .9 1 1.6v10.8zM-124.4 390v9.7c0 .7-.1 1.7-1 1.7s-1-.9-1-1.6v-19.1c0-.7.1-1.6 1-1.7.9 0 1 .9 1 1.6v9.4z"/><path class="st0" d="M-102.7 385.8h-5.6c-.5 0-1.2-.1-1.3-.7-.1-.7.5-1.1 1.2-1.1h11.6c.6 0 1.2.4 1.1.9 0 .7-.7.9-1.4 1-1.9-.1-3.7-.1-5.6-.1zM-99.6 387.6h5.6c.7 0 1.4.3 1.4 1 0 .8-.8.9-1.5.9H-105c-.7 0-1.5-.1-1.5-.8-.1-1 .8-1 1.6-1 1.8-.2 3.5-.1 5.3-.1zM-102 391.7h5.6c.7 0 1.5.2 1.5.9 0 .6-.7 1-1.4 1h-11c-.9 0-1.6-.3-1.6-1.1s.9-.7 1.6-.7c1.8-.1 3.5-.1 5.3-.1z"/></g></svg>