<svg id="Layer_1" xmlns="http://www.w3.org/2000/svg" xmlns:xlink="http://www.w3.org/1999/xlink" viewBox="0 0 650.6 364.4"><style>.st0{fill:#989798;} .st1{fill:#1A1A1A;} .st2{opacity:0.1;fill:#FFFFFF;} .st3{fill:#B3B3B3;} .st4{fill:#818181;} .st5{fill:#CBCBCB;} .st6{enable-background:new ;} .st7{clip-path:url(#SVGID_2_);} .st8{fill:#979797;} .st9{fill:#FFFFFF;} .st10{fill:#59ABDF;} .st11{clip-path:url(#SVGID_4_);} .st12{fill:#8CC441;}</style><path class="st0" d="M631 8.8v140.5c0 4.8-3.9 8.8-8.8 8.8h-62.5c-4.8 0-8.8-3.9-8.8-8.8V8.8c0-4.8 3.9-8.8 8.8-8.8h62.5c4.9 0 8.8 3.9 8.8 8.8z"/><path class="st1" d="M623 18.7v117.9c0 3.9-3.6 7.5-7.6 7.5h-50.7c-4 0-6.7-3.5-6.7-7.5V18.7c0-3.9 2.7-6.7 6.7-6.7h50.7c3.3 0 6.2 1.9 7.1 4.8.2.7.5 1.2.5 1.9zM600.1 152.3h-15.9c-1.2 0-2.2-1-2.2-2.2v-.7c0-1.2 1-2.2 2.2-2.2h15.9c1.2 0 2.2 1 2.2 2.2v.7c0 1.2-1 2.2-2.2 2.2z"/><path class="st2" d="M631 75v74.3c0 4.8-3.9 8.8-8.8 8.8h-62.5c-4.8 0-8.8-3.9-8.8-8.8v-3l7.5-6.7L623 82.1l8-7.1z"/><path class="st1" d="M581.4 6.3h17.2v2h-17.2z"/><circle class="st1" cx="589.6" cy="3" r=".8"/><circle class="st1" cx="576" cy="4.7" r="1.7"/><g><path class="st3" d="M138.8 341.9l294.1-99.4-127.2-58.3L1.1 257.1z"/><path class="st4" d="M0 256v5.4l140.3 103-.5-22.4"/><path class="st5" d="M145 316l-75-46 260-73 78 31z"/><g class="st6"><defs><path id="SVGID_1_" class="st6" d="M140.3 364.2L109.6 20.4l336-19.3-10.5 249.5z"/></defs><clipPath id="SVGID_2_"><use xlink:href="#SVGID_1_" overflow="visible"/></clipPath><g class="st7"><path class="st8" d="M278.3 200c-1.2.3-2.2.4-3.1.4-.9 0-1.7-.1-2.3-.4-.7-.2-1.2-.6-1.7-.9-.5-.4-.8-.8-1.1-1.2-.2-.3-.5-.8-.7-1.3-.2-.5-.4-1.2-.5-1.9-.1-.8-.1-1.6 0-2.6s.4-2.1.8-3.4c.5-1.3.9-2.7 1.4-4 .5-1.3.9-2.7 1.4-4 .5-1.3.9-2.7 1.4-4 .4-1.3.9-2.6 1.3-3.9.4-1.1.7-2.1 1.1-3.2.4-1.1.7-2.2 1.1-3.3.4-1.1.8-2.2 1.1-3.3l1.2-3.3v-.2c0-.1 0-.1.1-.2 0-.1 0-.1.1-.2v-.8c-1.9-.5-3.6-1.2-5.2-2.2-1.6-1-2.9-2.3-4-3.8s-2-3.3-2.7-5.2c-.6-1.9-1-4-1.1-6.3-.1-1.8 0-3.5.3-5.2.3-1.7.7-3.4 1.2-5.1.6-1.6 1.3-3.2 2.1-4.7.9-1.5 1.8-2.9 3-4.2-1-.2-1.9-.4-2.9-.7-1-.3-1.9-.6-2.8-.9-.9-.4-1.9-.8-2.8-1.2-1-.4-1.9-.9-2.9-1.5-.5-.3-1-.7-1.4-1.2-.4-.5-.7-1.1-1-1.7-.2-.6-.4-1.3-.4-2-.1-.7 0-1.5.1-2.2.1-.7.4-1.5.7-2.1.3-.6.7-1.2 1.2-1.7s1-.9 1.5-1.2c.6-.3 1.2-.5 1.8-.6H267.2c.1 0 .2 0 .3.1.1 0 .2 0 .3.1 1.3-.2 2.6-.4 3.8-.6 1.3-.2 2.5-.3 3.8-.5 1.3-.2 2.5-.3 3.7-.5 1.2-.2 2.5-.3 3.7-.4 1.3-.2 2.7-.3 4-.5 1.3-.2 2.7-.3 4-.5 1.3-.2 2.7-.4 4-.5l3.9-.6c.3-.1.6-.1.9-.2.3-.1.6-.1.9-.2.3-.1.6-.1.9-.2.3-.1.6-.1.9-.2h.4c1.5-.2 2.9-.2 4.2 0 1.3.2 2.5.7 3.5 1.4 1.1.7 2 1.6 2.8 2.8.8 1.2 1.5 2.5 2.1 4.1v.4c1-.1 2-.3 2.9-.4 1-.1 1.9-.3 2.9-.4 1-.1 1.9-.3 2.9-.4 1-.1 1.9-.2 2.8-.4 1-.1 2.1-.3 3.1-.4 1-.1 2-.3 3-.4 1-.1 2-.3 2.9-.4 1-.1 1.9-.3 2.9-.4H340.7c0-.6-.1-1.3 0-2 0-.7.1-1.4.2-2.2.1-.8.3-1.6.6-2.4.3-.8.7-1.7 1.1-2.5.2-.4.5-.8.7-1.1.3-.3.6-.6.9-.8.3-.2.6-.4 1-.6.3-.2.7-.3 1-.3l2-.3c.3-.1.7-.1 1 0 .3 0 .6.1.9.3.3.1.6.3.8.5.3.2.5.4.7.7.2-.2.4-.4.6-.5.2-.2.4-.3.7-.4.2-.1.5-.2.7-.3.2-.1.5-.1.7-.2h.7c.3 0 .6 0 .9.1.3.1.7.2 1.1.4.4.2.7.4 1.1.8h1.3c.4-.1.9-.1 1.3 0 .4 0 .8.2 1.1.3.4.2.7.4 1 .7.3.3.6.6.8 1.1.4.7.6 1.3.7 2 .1.7.1 1.3.1 1.9 0 .6-.1 1.2-.2 1.6-.1.5-.2.9-.3 1.2l-.1 5.6 3-.5c.1-.2.1-.4.2-.6s.1-.3.2-.5c.1-.1.1-.3.2-.4.1-.1.1-.3.2-.4.3-1 .8-2.1 1.3-3.3.5-1.2 1.1-2.4 1.9-3.6.8-1.1 1.7-2.2 2.8-3 1.1-.8 2.4-1.4 3.8-1.7.2 0 .3 0 .5-.1h3.2c.4 0 .8.1 1.2.2.4.1.8.4 1.2.7.4.4.8.9 1.1 1.5.1.2.2.4.3.7.1.2.1.4.2.7.1.2.1.4.1.7 0 .2 0 .4.1.7h.4c.7-.1 1.3-.2 2-.3.7-.1 1.3-.2 2-.3.7-.1 1.3-.2 1.9-.3.6-.1 1.3-.2 1.9-.3.6-.1 1.1-.2 1.7-.2.6-.1 1.1-.2 1.7-.2.6-.1 1.1-.2 1.7-.3.6-.1 1.1-.2 1.7-.3.4-.1.7-.1 1 0 .3 0 .7.1 1 .3.3.1.6.3.9.6.3.2.6.5.8.8l.6.9c.2.3.3.7.4 1 .1.4.2.7.3 1.1.1.4.1.8.2 1.2.4.2.9.5 1.2.9.4.4.7.8.9 1.4.2.5.4 1.1.6 1.7.1.6.2 1.3.1 2.1 0 .1 0 .5-.1 1s-.2 1.2-.4 1.9-.5 1.5-1 2.2c-.4.7-1 1.4-1.7 2V119c-.1 1.7-.4 3.1-.8 4.2s-1 1.9-1.6 2.5c-.6.6-1.2.9-1.6 1.2-.5.2-.8.3-1 .3-.6.1-1.1.2-1.7.4-.6.1-1.1.3-1.7.4-.6.2-1.2.3-1.7.5-.6.2-1.2.3-1.8.5-.6.2-1.2.3-1.8.5-.6.2-1.2.3-1.9.5-.6.2-1.3.3-1.9.5-.6.2-1.3.3-1.9.4h-.1s-.1 0-.1.1c-.1 0-.1 0-.2.1-.1 0-.1 0-.2.1-.1 0-.1.1-.2.1s-.1.1-.2.1-.1.1-.2.1-.1.1-.2.1v.4c.1.4.2.7.2 1.1 0 .4.1.8 0 1.2 0 .4-.1.8-.2 1.3-.1.4-.2.8-.4 1.2-.1.4-.3.8-.5 1.2-.2.4-.4.7-.7 1-.2.3-.5.6-.8.8l-.9.6c-.3.2-.7.3-1 .5-.3.1-.6.3-1 .4l-.9.3c-.3.1-.6.2-.9.2-1.1.2-2.2.3-3.1.2-1-.1-1.9-.4-2.7-.9-.8-.5-1.6-1.2-2.2-2-.7-.9-1.2-1.9-1.7-3.1-.1 0-.3 0-.4-.1-.1 0-.3 0-.4-.1-.1 0-.2 0-.4-.1-.1 0-.2 0-.3-.1v5.2c0 1.4-.2 2.7-.5 3.7-.3 1.1-.8 2-1.3 2.7-.5.7-1.2 1.3-1.8 1.8-.7.4-1.4.7-2.1.9h-.1c-.1 0-.3.1-.4.1H358.6v.4c-.3.4-.6.8-.9 1.1-.3.3-.7.6-1 .9-.4.3-.7.5-1.1.7-.4.2-.8.3-1.3.4h-.1-.1-.1-1c-.2 0-.4 0-.7-.1-.2 0-.5-.1-.7-.2-.2.4-.5.8-.8 1.2-.3.4-.6.7-1 1-.4.3-.8.5-1.2.8-.4.2-.9.4-1.4.5h-.1-.1-.1-.1c-.5.1-1 .2-1.4.1-.5 0-.9-.1-1.3-.2s-.8-.3-1.2-.6c-.4-.3-.7-.6-1-1-.4-.5-.7-1.1-1-1.8-.2-.6-.4-1.3-.5-1.9-.1-.6-.1-1.3-.1-1.8 0-.6 0-1.1.1-1.5h-.8-.1-.1-.1-.1c-1.1.3-2.2.5-3.3.8-1.1.3-2.3.6-3.6.8l-3.9.9c-1.4.3-2.8.6-4.4 1 .1.2.2.4.2.6.1.2.1.4.2.6 0 .2.1.4.1.7v.7c0 .5 0 1-.1 1.4-.1.5-.2.9-.4 1.3s-.3.8-.6 1.2c-.2.4-.5.8-.7 1.1-.3.8-.6 1.5-.8 2.3-.3.8-.6 1.5-.8 2.2-.3.7-.5 1.5-.8 2.2-.3.7-.5 1.4-.8 2.2l-1.5 3.9c-.5 1.3-1 2.6-1.4 3.9-.5 1.3-.9 2.6-1.4 3.9-.5 1.3-.9 2.7-1.4 4.1-.5 1.3-1 2.6-1.7 3.7s-1.4 2.1-2.3 2.9c-.8.8-1.8 1.6-2.8 2.2-1 .6-2.1 1-3.3 1.3h-.1l-3.3.9c-1.1.3-2.2.6-3.2.8-1.1.3-2.1.6-3.2.8-1.1.3-2.1.6-3.2.8-1 .3-2.1.6-3.1.8-1 .3-2.1.6-3.1.8-1 .3-2.1.6-3.1.8-1 .3-2 .5-3 .8l-.1-.4M439.4 1.5l-317 18.1c-1.8.1-3.4.6-4.9 1.4-1.5.8-2.8 1.9-3.8 3.2-1.1 1.3-1.9 2.9-2.4 4.6-.5 1.7-.7 3.5-.5 5.4L137 326.9c.1 1.5.6 2.8 1.2 3.9.7 1.1 1.6 1.9 2.7 2.6 1.1.6 2.3 1 3.7 1 1.4.1 2.8-.2 4.3-.7l8.8-3.2-.4-4.5v-.3c0-.1.1-.2.1-.3.1-.1.1-.2.2-.2.1-.1.2-.1.3-.2l58.2-20.6h.3c.1 0 .1 0 .2.1.1 0 .1.1.1.2s.1.2.1.2l.2 4.2 174-62.4.1-3.6v-.2c0-.1.1-.1.1-.2s.1-.1.1-.2c.1 0 .1-.1.2-.1l35.4-12.5h.2s.1 0 .1.1l.1.1v.2l-.1 3.4 3-1.1c.8-.3 1.6-.8 2.3-1.4.7-.7 1.4-1.5 1.9-2.4.6-.9 1-1.9 1.3-3 .3-1.1.5-2.2.6-3.3l8.9-211.7c.1-1.3-.1-2.6-.3-3.7-.3-1.1-.7-2.1-1.2-3-.5-.8-1.2-1.5-1.9-2-.7-.4-1.6-.6-2.4-.6"/><path class="st8" d="M426.9 229.8l-35.4 12.5c-.1 0-.1.1-.2.1s-.1.1-.1.2-.1.1-.1.2v.2l-.1 3.6v1.8c0 .1.1.1.1.1l.1.1h.2l35.3-12.8c.1 0 .1-.1.2-.1s.1-.1.1-.2.1-.1.1-.2v-.2l.1-1.5.1-3.4v-.2c0-.1 0-.1-.1-.1l-.1-.1h-.2M216.3 304.4L158 325.1c-.1 0-.2.1-.3.2-.1.1-.2.1-.2.2-.1.1-.1.2-.1.3v.3l.4 4.5.2 1.9c0 .1 0 .2.1.3 0 .1.1.1.2.2s.2.1.2.1h.3l58-21c.1 0 .2-.1.2-.1l.2-.2c.1-.1.1-.2.1-.3v-.3l-.1-1.9-.2-4.2c0-.1 0-.2-.1-.2 0-.1-.1-.1-.1-.2-.1 0-.1-.1-.2-.1-.1-.2-.2-.2-.3-.2"/><path class="st8" d="M435.4 232.7l-8.7 3.2-35.3 12.7-174.7 63.3-58 21-20.5 7.4 2.1 23.9 294.3-113.4.8-18.1"/><path class="st9" d="M285 192.4l-1.2.3-1.2.3-1.2.3-1.2.3 1.2-.3 1.2-.3 1.2-.3 1.2-.3m11.4-3c.5-.1 1-.2 1.5-.4.5-.1 1-.2 1.5-.4.5-.1 1-.2 1.5-.4.5-.1 1-.2 1.5-.4l-1.2.3-1.2.3-1.2.3-1.2.3c-.1 0-.2 0-.3.1-.1 0-.2 0-.3.1-.1 0-.2 0-.3.1-.1.1-.2.1-.3.1m23.1-35.2s-.1 0 0 0c-.1.1-.1.1-.1.2v.2l.5-.1h-.1s0-.1-.1-.1c0-.1-.1-.2-.2-.2.1 0 0 0 0 0m-.2 0l-.4.1c-.6 1.6-1.2 3.3-1.7 4.9-.6 1.6-1.1 3.3-1.7 4.9-.6 1.6-1.1 3.3-1.7 4.9-.6 1.7-1.1 3.3-1.7 5 .6-1.6 1.2-3.2 1.8-4.7l1.8-4.8c.6-1.6 1.2-3.3 1.8-5 .6-1.7 1.2-3.5 1.8-5.3m21.8-13.3c.8-.1 1.5-.1 2 0 .6.1 1 .4 1.4.8.3.4.6 1 .7 1.7.1.7.1 1.6 0 2.7 0 .3-.1.7-.1 1.1v1.1c.1.4.1.7.3.9.2.2.4.4.7.5-.2-.1-.3-.4-.4-.6-.1-.3-.1-.6-.1-.9v-1.1c0-.3.1-.7.1-1 .1-1.2.2-2.2.1-3-.1-.8-.3-1.4-.7-1.8-.4-.4-.9-.6-1.5-.7-.7 0-1.5.1-2.5.3m10.4-24.8l-3 .6v15.2l3.2-.7c0 1.2 0 2.3.1 3.3 0 1 .1 2 .2 3l.3 3c.1 1 .3 2.1.5 3.2.1.3.1.7.1 1 0 .3 0 .7.1.9 0 .3.1.5.3.6.2.1.4.2.8.1h.4c.4-.1.7-.2.9-.4.2-.2.4-.4.4-.7s.1-.6.1-.9v-1.1-2.1-2-1.9-1.9V142.8c0 .4-.1.7-.2 1.1s-.2.6-.5.8c-.2.2-.5.4-.9.5-.4.1-.7 0-.8-.2-.2-.2-.3-.5-.3-.9s-.1-.8-.1-1.2c0-.4 0-.8-.1-1.1-.4-1.9-.6-3.9-.8-5.9-.2-2-.2-4-.3-6.1v-6.2c0-2.1 0-4.1-.1-6.2v-.3-.3-.3-.3-.2-.2-.2l-.3.5m13.7-2.6l-3.1.6V128.9l3.7-.8h.6c.2 0 .5.1.8.2.3.1.6.2 1 .2.4.1.8.1 1.3.2.2 0 .4.1.6.1.2.1.4.1.5.2.2.1.3.2.4.4l.3.6c.3 1 .6 1.9 1.1 2.6.4.7.9 1.2 1.4 1.6.5.4 1.1.6 1.8.7.6.1 1.3 0 2.1-.1.2 0 .5-.1.7-.2.2-.1.5-.2.7-.2.2-.1.5-.2.7-.3.3-.1.5-.2.8-.4 0-.1-.1-.3-.1-.4 0-.1-.1-.3-.1-.4 0-.1-.1-.3-.1-.4 0-.1-.1-.2-.1-.4-.3.1-.5.3-.8.4-.3.1-.5.2-.8.3-.3.1-.5.2-.8.3-.2.1-.5.1-.7.2h-.1-.1-.1-.1-.1-.1-.1-.1c-.5.1-1 .1-1.5.1-.5-.1-.9-.2-1.3-.4s-.8-.6-1.1-1c-.3-.4-.6-1-.9-1.7 0-.1 0-.1-.1-.2 0-.1 0-.1-.1-.2 0-.1 0-.1-.1-.2s0-.1-.1-.2c-.1-.2-.2-.5-.3-.7-.1-.2-.3-.4-.4-.6-.2-.2-.3-.4-.5-.5-.2-.1-.4-.2-.6-.2-1-.1-1.8-.4-2.4-.7-.6-.4-1.1-.8-1.4-1.4-.3-.6-.5-1.2-.6-1.9-.1-.7-.2-1.5-.1-2.3V120c0-.4 0-.8.1-1.2 0-.4 0-.8.1-1.2v-1.2-.3-.3-.3-.3-.1-.1-.1-.1-.3-.3-.3c.2-.2.2-.3.2-.4m15.4-13.6v.4c0 .1 0 .1-.1.2 0 .1 0 .1-.1.2-.4 1.3-.7 2.6-1 3.8-.3 1.3-.5 2.5-.7 3.8-.2 1.3-.3 2.5-.5 3.7-.1 1.2-.2 2.5-.2 3.7v2.5c0 .8.1 1.6.1 2.4l.3 2.4c.1.8.2 1.6.4 2.4l4.8-1c.1 0 .2 0 .3-.1.1 0 .3-.1.5-.1s.4-.1.6-.1c.2 0 .4-.1.6-.1 1.2-.3 2.4-.6 3.7-.9 1.2-.3 2.4-.7 3.7-1 1.2-.4 2.4-.7 3.6-1l3.6-.9c.2 0 .3-.1.4-.2l.3-.3c.1-.1.1-.2.2-.4s.1-.3.1-.4c-.1 0-.1.1-.2.1s-.1.1-.2.1-.2.1-.2.1c-.1 0-.2 0-.2.1-1.2.2-2.4.5-3.6.7-1.2.2-2.4.5-3.6.7-1.2.2-2.4.5-3.6.7-1.2.2-2.4.5-3.7.7-.3.1-.6.1-.8.1-.3 0-.5-.1-.7-.2-.2-.1-.4-.3-.5-.5-.1-.2-.2-.5-.2-.9s.1-.6.2-.9c.1-.2.3-.4.5-.5.2-.1.4-.2.7-.3.2-.1.5-.1.7-.2H387.4c.1 0 .3-.1.4-.1.1 0 .3-.1.4-.1.1 0 .3-.1.4-.1.1 0 .3-.1.4-.1.3-.1.6-.1 1-.2.3-.1.6-.1 1-.2.3-.1.6-.1 1-.2.3-.1.6-.1 1-.2.3 0 .5-.1.8-.1.3-.1.5-.1.8-.2.3-.1.5-.1.8-.2.3-.1.5-.1.8-.2.3-.1.6-.1.9-.2.3-.1.6-.1.9-.2.3-.1.6-.1.9-.2.3-.1.6-.1.9-.2l.1-4.2c-.3.1-.6.1-.9.2-.3.1-.6.1-.9.2-.3.1-.6.1-.9.2-.3.1-.6.1-.9.2l-1.8.3-1.8.3-1.8.3-1.8.3c-.2 0-.5.1-.7.1-.2 0-.4 0-.6-.1-.2-.1-.4-.2-.5-.4-.1-.2-.2-.4-.2-.8s.1-.7.2-1c.1-.3.3-.5.5-.6.2-.2.4-.3.7-.4.3-.1.5-.1.8-.2.1 0 .2 0 .4-.1.1 0 .2 0 .4-.1.1 0 .2 0 .4-.1.1 0 .2 0 .4-.1.2 0 .3-.1.5-.1s.3-.1.5-.1.3-.1.5-.1.3-.1.5-.1c.3-.1.6-.1.9-.2.3-.1.6-.1.9-.2.3-.1.6-.1.9-.2.3-.1.6-.1.9-.2.3-.1.6-.1.9-.2.3-.1.6-.1.9-.2.3-.1.6-.1.9-.2.3-.1.6-.1.9-.2v-1.5l1.4-.3c0-.2.1-.5.1-.7 0-.2.1-.4.1-.6 0-.2 0-.4.1-.5v-.4-.2-.2-.2-.2l-.3.6c-.1.2-.3.3-.4.4-.2.1-.3.2-.5.3-.2.1-.4.1-.6.2-.2 0-.5.1-.7.1-.2 0-.5.1-.7.1-.2 0-.5.1-.7.1-.2 0-.5.1-.7.1-.1 0-.3.1-.4.1-.1 0-.3.1-.4.1-.1 0-.3.1-.4.1-.1 0-.3.1-.4.1-.2 0-.5.1-.7.1-.2 0-.5.1-.7.1-.2 0-.5.1-.7.1-.2 0-.5.1-.7.1-.3.1-.7.1-1 .2-.3.1-.7.1-1 .2-.3.1-.7.1-1 .2-.3.1-.7.1-1 .2-.2 0-.3.1-.5.1s-.3.1-.5.1-.3.1-.5.1-.3.1-.5.1h-.2-.1-.1-.1H385.2c-.2 0-.3 0-.5.1h-.5c-.1 0-.3-.1-.4-.2-.1-.1-.2-.2-.3-.4 0 .1 0 .2-.1.3s0 .2 0 .3v2.2l-4.2.8c.1-.7.2-1.5.3-2.2.1-.8.3-1.6.4-2.3.1-.8.3-1.6.5-2.3.2-.7.3-1.4.5-2.1.1-.3.2-.6.2-.8.1-.2.1-.4.1-.6v-.4c-.5.6-.5.5-.6.4m-27.4 1.7V101.5v-.1.2m-7.6.4v1.2c0 .2 0 .4.1.6 0 .2.1.4.1.7 0 .2.1.4.1.6v1.5c0-.2.1-.4.1-.7v-.7c0-.3 0-.5-.1-.8 0-.3-.1-.6-.1-.9v-.3-.4-.4c-.1-.2-.1-.3-.2-.4m13.9-2.5c-.4.1-.6.3-.7.6-.1.3-.2.8-.2 1.3v1.5c0 .5.1 1 .1 1.3 0 .8 0 1.5.1 2.2.1.7.1 1.5.2 2.3.1.8.1 1.7.2 2.6.1 1 .1 2 .1 3.2l-3.1.6v15.2l3.1-.6V142c0 .3.1.6.2.8.1.2.2.4.4.5.2.1.4.1.7 0 .3-.1.6-.2.8-.3.2-.1.3-.3.4-.5s.2-.5.2-.7c0-.3 0-.6.1-.9v-.4-.4-.4-.4c0 .3 0 .7-.1 1 0 .3-.1.6-.2.9-.1.3-.2.5-.4.7-.2.2-.4.3-.7.4h-.1-.1-.1-.1c-.3 0-.4-.1-.6-.3-.2-.2-.3-.4-.3-.7-.1-.3-.1-.6-.1-.9v-1c0-3 .1-6 .1-9s.1-6.1.1-9.1.1-6.1.1-9.2c0-3.1.1-6.1.1-9.2v-.9c0-.3 0-.6.1-.9.1-.3.1-.5.2-.8.1-.2.2-.4.4-.6 0 0 0-.1-.1-.1l-.1-.1h-.2c-.4-.1-.4-.1-.5 0M265 111c1.7 1 3.3 1.7 4.9 2.4 1.6.6 3.1 1.1 4.7 1.5 1.5.4 3.1.6 4.7.7 1.6.1 3.2.1 4.9.1l.1 5.1c-1.7.7-3.3 1.8-4.7 3-1.5 1.3-2.8 2.7-3.8 4.4-1.1 1.7-2 3.5-2.5 5.4-.6 1.9-.9 4-.8 6.1.1 2 .5 3.8 1.2 5.4.7 1.6 1.6 2.9 2.7 4s2.5 2 3.9 2.5c1.5.6 3.1.9 4.7.9l.1 5.3c0 .1 0 .2.1.4 0 .1.1.3.1.4v.5c0 .2 0 .4-.1.6-.9 2.6-1.8 5.1-2.6 7.6-.9 2.5-1.7 5.1-2.6 7.6-.8 2.5-1.7 5.1-2.6 7.6-.9 2.5-1.7 5.1-2.6 7.6-.3.9-.5 1.6-.5 2.3 0 .6.2 1.1.5 1.4.3.3.7.5 1.3.6.6.1 1.3 0 2.1-.2-.7.1-1.3.2-1.7.1-.5-.1-.8-.2-1.1-.5-.3-.3-.4-.6-.5-1.1 0-.5 0-1 .2-1.7v-.2c0-.1 0-.1.1-.2 0-.1 0-.1.1-.2 0-.1 0-.1.1-.2v-.1-.1-.1-.1c.9-2.6 1.8-5.1 2.7-7.7.9-2.5 1.8-5.1 2.8-7.6.9-2.5 1.8-5.1 2.8-7.6.9-2.5 1.8-5.1 2.7-7.6 0-.1.1-.2.1-.3s.1-.2.1-.3c0-.1.1-.2.1-.2 0-.1.1-.2.1-.2.2-.4.4-.7.6-1 .2-.3.5-.5.7-.7.3-.2.5-.4.8-.5.3-.2.6-.3 1-.4h.4c.2 0 .5-.1.7-.1.2 0 .5-.1.7-.1.2 0 .5-.1.7-.1.2-.1.5-.1.7-.2.2 0 .4-.1.7-.1.2 0 .4-.1.7-.1.2 0 .4-.1.7-.1.2 0 .4-.1.7-.1h1.2c.2 0 .4-.1.7-.1.2 0 .4-.1.7-.1.2 0 .4-.1.7-.1.2 0 .4-.1.7-.1l1.2-.3 1.2-.3 1.2-.3c.4-.1.8-.2 1.1-.3.3-.1.6-.1.9-.2.3-.1.6-.1.9-.2.3-.1.6-.1.9-.2.3-.1.6-.1.9-.2.3-.1.5-.1.8-.2.3-.1.5-.1.8-.2.3-.1.5-.1.8-.2.3-.1.5-.1.8-.2h1.2c.1 0 .2 0 .3-.1.1 0 .2 0 .3-.1.1 0 .2 0 .3-.1.1 0 .2 0 .3-.1.3-.1.6-.1.8-.2.3-.1.6-.1.8-.2.3-.1.6-.1.8-.2.3-.1.5-.1.8-.2h.4c.1 0 .2 0 .3-.1H318.3v-3.6c-2.2.5-4.5.9-6.7 1.4-2.3.5-4.5.9-6.8 1.4-2.3.5-4.6.9-6.9 1.4-2.3.5-4.7 1-7 1.5-2.2.5-4.4.5-6.2.2-1.9-.4-3.6-1.1-5-2.2s-2.6-2.6-3.4-4.3c-.8-1.8-1.3-3.8-1.4-6.1-.1-2.5.3-4.8 1-7.1.7-2.2 1.8-4.3 3.3-6.1 1.4-1.8 3.1-3.3 5.1-4.5 2-1.2 4.1-2 6.5-2.5l4.8-.9c1.6-.3 3.1-.6 4.7-.9 1.6-.3 3.1-.6 4.7-.8 1.5-.3 3.1-.6 4.6-.8v-3.6l1.6-.3s0-.1-.1-.1c0 0 0-.1-.1-.1 0 0 0-.1-.1-.1s0-.1-.1-.1c-1.2.2-2.4.5-3.6.7-1.2.3-2.4.5-3.6.8-1.2.3-2.4.5-3.6.7-1.2.2-2.4.5-3.6.7-2.5.4-5 .8-7.4 1-2.5.2-5 .3-7.4.1-2.5-.2-5-.6-7.4-1.2-2.5-.7-4.9-1.6-7.4-3h-.1-.1H266.3v.4-.4l-1.3-.9"/><path class="st9" d="M266.3 111v.4-.4m53 43.5v-.1-.1-.1h.1l.1.1s0 .1.1.1h.1l-.4.1m26.3-52.5v-1.5c0-.5.1-1 .2-1.5s.2-.9.3-1.3c.1-.4.3-.7.5-.9.2 0 .3-.1.5-.1s.3-.1.5-.1.3-.1.5-.1.3-.1.5-.1V116.6l3-.6c0-1.1.1-2.3.3-3.4.1-1.1.3-2.3.5-3.4s.4-2.2.5-3.4c.1-1.1.3-2.2.3-3.4v-.2-.2-.2-.2-.2-.2-.2-.2-.1-.1-.1-.1c0-.3 0-.5.1-.8 0-.3.1-.5.2-.8.1-.2.2-.4.4-.6.2-.2.4-.3.6-.4h.4c.4-.1.7 0 .9.2.2.2.3.4.4.7.1.3.1.6.1 1V115.1l3.1-.6c0-1.2 0-2.2-.1-3.2s-.1-1.8-.2-2.6-.1-1.6-.2-2.3c-.1-.7-.1-1.5-.1-2.2 0-.4 0-.8-.1-1.3 0-.5-.1-1 0-1.5 0-.5.1-1 .2-1.3.1-.3.4-.6.7-.6h.4s.1 0 .1.1l.1.1.1-.1c.1 0 .1-.1.2-.1s.1-.1.2-.1.1 0 .2-.1c.3 0 .5.1.7.2.2.2.3.4.4.7.1.3.1.6.2 1v13l3.1-.6c0-.2.1-.4.2-.5.1-.2.2-.3.2-.5.1-.1.2-.3.3-.3.1-.1.3-.2.4-.2.3-.1.7-.2 1-.4.3-.2.6-.4.8-.6.3-.2.5-.5.7-.7.2-.3.4-.5.6-.8.6-1 1.1-2.1 1.6-3.3.5-1.2.9-2.5 1.4-3.6.5-1.2 1.1-2.2 1.8-3 .7-.8 1.7-1.4 2.8-1.6h2.2c.3 0 .5.1.7.1.2.1.3.2.4.4.1.2.1.4.1.7v.7c0 .1 0 .2-.1.3 0 .1.1.1.1.3v.4c0 .2-.1.4-.1.6-.1.2-.1.5-.2.8-.2.6-.4 1.3-.5 2.1-.2.7-.3 1.5-.5 2.3-.1.8-.3 1.6-.4 2.3-.1.8-.2 1.5-.3 2.2l4.2-.8v-.6-.5-.3-.2-.3-.3-.3s0-.2.1-.3v-.1-.1-.1-.1-.1-.1-.1-.1c0-.3.1-.6.1-.8.1-.2.2-.5.4-.6.2-.2.3-.3.5-.4.2-.1.4-.2.6-.2.2 0 .4-.1.7-.1.2 0 .4-.1.7-.1.2 0 .4-.1.7-.1.2 0 .4-.1.7-.1.2 0 .4-.1.6-.1.2 0 .4-.1.6-.1.2 0 .4-.1.6-.1.2 0 .4-.1.6-.1h1.2c.4-.1.8-.1 1.1-.2.4-.1.8-.1 1.1-.2.4-.1.8-.1 1.1-.2.4-.1.7-.1 1.1-.2.4-.1.9-.2 1.3-.2.4-.1.9-.1 1.3-.2s.8-.1 1.3-.2c.4-.1.8-.1 1.3-.2h.6c.2 0 .3.1.5.3.1.1.2.3.3.5.1.2.1.4.1.6v2c0 .2 0 .3-.1.5 0 .2 0 .4-.1.6 0 .2-.1.5-.1.7l-1.4.3v1.5c.3-.1.6-.1.9-.2.3-.1.6-.1.9-.2.3-.1.6-.1.9-.2.3-.1.6-.1.9-.2h.7c.2 0 .4.1.6.2.2.1.3.3.4.5.1.2.1.5.1.8 0 .4-.1.6-.2.9-.1.2-.3.4-.5.6l-.6.3c-.2.1-.4.1-.7.2-.3.1-.6.1-.9.2-.3.1-.6.1-.9.2-.3.1-.6.1-.9.2-.3.1-.6.1-.9.2l-.1 4.2h.8c.2 0 .4-.1.7-.1.2 0 .4 0 .6.1.2.1.3.2.4.4.1.2.2.4.1.7 0 .2 0 .4-.1.5-.1.2-.1.3-.2.5-.1.1-.2.3-.3.4-.1.1-.2.2-.4.3 0 .2 0 .3-.1.4s-.1.3-.2.4l-.3.3c-.1.1-.2.1-.4.2-1.2.2-2.4.5-3.6.9-1.2.3-2.4.7-3.6 1-1.2.4-2.4.7-3.7 1-1.2.3-2.4.6-3.7.9-.2 0-.4.1-.6.1-.2 0-.4.1-.6.1-.2 0-.3.1-.5.1-.1 0-.2.1-.3.1l-4.8 1c.1.5.2 1.1.3 1.6.1.5.2 1.1.4 1.6.1.5.3 1.1.4 1.6.2.5.3 1.1.5 1.6 0 0-.1 0-.1.1 0 0-.1 0-.1.1 0 0-.1 0-.1.1s-.1 0-.1.1.1.2.1.4c0 .1.1.3.1.4 0 .1.1.3.1.4 0 .1.1.3.1.4-.3.1-.5.2-.8.4-.3.1-.5.2-.7.3-.2.1-.5.2-.7.2-.2.1-.5.1-.7.2-.7.2-1.4.2-2.1.1-.6-.1-1.2-.3-1.8-.7-.5-.4-1-.9-1.4-1.6-.4-.7-.8-1.5-1.1-2.6l-.3-.6c-.1-.2-.3-.3-.4-.4-.2-.1-.3-.2-.5-.2-.2-.1-.4-.1-.6-.1-.5 0-.9-.1-1.3-.2s-.7-.2-1-.2c-.3-.1-.6-.1-.8-.2h-.6l-3.7.8v11.7c0 .3 0 .7-.1.9 0 .3-.1.5-.2.7s-.2.4-.4.5c-.2.1-.4.2-.8.3-.3.1-.6.1-.7 0-.2-.1-.3-.2-.4-.5-.1-.2-.2-.5-.2-.8v-1-3.1-3-2.8-2.4l-3.1.6v14.2c0 .3 0 .6-.1.9s-.2.5-.4.7c-.2.2-.5.3-.9.4h-.1-.1-.1-.1c-.4.1-.7 0-.8-.1-.2-.1-.3-.4-.3-.6 0-.3-.1-.6-.1-.9 0-.3 0-.7-.1-1-.2-1.1-.4-2.2-.5-3.2l-.3-3c-.1-1-.1-2-.2-3 0-1-.1-2.1-.1-3.3l-3.2.7v16.4c-.1.4-.2.7-.4 1-.2.3-.5.5-.9.6h-.6c-.1 0-.2 0-.2-.1s-.1-.1-.2-.1c-.3-.1-.5-.2-.7-.5-.2-.2-.3-.6-.3-.9-.1-.4-.1-.7 0-1.1 0-.4.1-.7.1-1.1.1-1.1.1-2 0-2.7-.1-.7-.3-1.3-.7-1.7-.3-.4-.8-.7-1.4-.8-.6-.1-1.2-.1-2 0h-.1-.2-.1c-1.4.3-2.8.7-4.2 1-1.4.3-2.8.6-4.2 1l-4.2.9c-1.4.3-2.9.6-4.3.9-.4.1-.8.2-1.3.3-.4.1-.8.2-1.3.3-.4.1-.8.2-1.3.3-.4.1-.9.2-1.3.3v3.6c.3 0 .6 0 .9.1.2.1.4.2.5.5.1.2.1.5.1.9s-.2.9-.4 1.5v.4c0 .1-.1.2-.1.3 0 .1-.1.2-.1.3 0 .1-.1.2-.1.3 0 .1-.1.2-.1.3l.4-.1c-.6 1.9-1.2 3.6-1.8 5.4-.6 1.7-1.2 3.4-1.8 5l-1.8 4.8c-.6 1.6-1.2 3.2-1.8 4.7-.2.7-.4 1.3-.7 2-.2.7-.4 1.3-.7 2s-.4 1.3-.7 2c-.2.7-.4 1.3-.7 2-.1.2-.1.3-.2.4-.1.1-.1.3-.2.4-.1.1-.1.3-.2.4-.1.1-.1.3-.2.4-.3.5-.5 1-.9 1.4-.3.4-.7.8-1 1.1-.4.3-.8.6-1.3.8-.5.2-.9.4-1.5.6h-.1-.1-.1-.1c-.1 0-.2.1-.4.1-.1 0-.2.1-.4.1-.1 0-.2.1-.4.1-.1 0-.2.1-.4.1-.5.1-1 .2-1.5.4-.5.1-1 .2-1.5.4-.5.1-1 .2-1.5.4-.5.1-1 .2-1.5.4l-1.2.3-1.2.3-1.2.3-1.2.3h-.1-.2H290.7l-1.2.3-1.2.3-1.2.3-1.2.3h-.1-.1-.1-.1l-1.2.3-1.2.3-1.2.3-1.2.3c-.1 0-.3.1-.4.1-.1 0-.3.1-.4.1-.1 0-.3.1-.4.1-.1 0-.3.1-.4.1h-.1-.1-.1-.1c-.8.2-1.5.3-2.1.2-.6-.1-1-.3-1.3-.6-.3-.3-.5-.8-.5-1.4 0-.6.2-1.4.5-2.3.9-2.6 1.8-5.1 2.6-7.6.9-2.5 1.7-5.1 2.6-7.6.8-2.5 1.7-5.1 2.6-7.6.9-2.5 1.7-5.1 2.6-7.6.1-.2.1-.4.1-.6v-.5c0-.2-.1-.3-.1-.4 0-.1-.1-.2-.1-.4l-.1-5.3c-1.7 0-3.3-.3-4.7-.9-1.5-.6-2.8-1.4-3.9-2.5s-2.1-2.5-2.7-4c-.7-1.6-1.1-3.4-1.2-5.4-.1-2.1.2-4.1.8-6.1.6-1.9 1.4-3.8 2.5-5.4 1.1-1.7 2.4-3.1 3.8-4.4 1.4-1.3 3-2.3 4.7-3l-.1-5.1c-1.7.1-3.3 0-4.9-.1-1.6-.1-3.1-.3-4.7-.7-1.5-.4-3.1-.8-4.7-1.5-1.6-.6-3.2-1.4-4.9-2.4H267.4c-.1 0-.1-.1-.2-.1s-.1-.1-.2-.1-.1-.1-.2-.1-.1-.1-.2-.1l5.4-.9c1.8-.3 3.6-.6 5.3-.9 1.8-.3 3.5-.6 5.3-.9 1.7-.3 3.5-.6 5.2-.9l3.9-.6c1.3-.2 2.6-.4 3.8-.7 1.3-.2 2.5-.4 3.8-.7 1.3-.2 2.5-.4 3.8-.7H303.9c1-.1 1.9-.2 2.7 0 .8.1 1.5.3 2.2.7.7.4 1.2.9 1.8 1.6.5.7 1 1.6 1.3 2.6 0 .1.1.2.1.3 0 .1.1.2.1.3 0 .1.1.2.1.3 0 .1.1.2.1.3v.4c-.1 0-.2 0-.3.1-.1 0-.2 0-.3.1s-.2 0-.3.1c-.1 0-.2 0-.3.1 0 0 0 .1.1.1s0 .1.1.1c0 0 0 .1.1.1 0 0 0 .1.1.1l-1.6.3v3.6c.7-.1 1.4-.3 2.1-.4.7-.1 1.4-.3 2.1-.4.7-.1 1.4-.3 2.1-.4.7-.1 1.4-.3 2.1-.4 1.9-.3 3.8-.7 5.7-1 1.9-.3 3.8-.7 5.6-1 1.9-.3 3.7-.6 5.5-.9 1.8-.3 3.7-.6 5.5-.9h.8c.7-.1 1.3-.3 1.9-.4.6-.2 1-.4 1.4-.7.4-.3.7-.6 1-1 .3-.4.4-.9.5-1.5v-.5-.5-.5c0-.2 0-.4-.1-.6 0-.2-.1-.5-.1-.7 0-.2 0-.4-.1-.6v-.6c-.3-.4-.3-.6-.3-.8m-80.9 2.3c-.6.1-1.2.3-1.8.6-.6.3-1.1.7-1.5 1.2-.5.5-.9 1.1-1.2 1.7-.3.6-.6 1.4-.7 2.1-.1.8-.2 1.5-.1 2.2.1.7.2 1.4.4 2 .2.6.6 1.2 1 1.7s.9.9 1.4 1.2c1 .5 1.9 1 2.9 1.5 1 .4 1.9.9 2.8 1.2.9.4 1.9.7 2.8.9 1 .3 1.9.5 2.9.7-1.1 1.3-2.1 2.7-3 4.2-.9 1.5-1.6 3.1-2.1 4.7-.6 1.6-1 3.3-1.2 5.1-.3 1.7-.4 3.5-.3 5.2.1 2.2.5 4.4 1.1 6.3.6 1.9 1.5 3.7 2.7 5.2 1.1 1.5 2.5 2.8 4 3.8s3.3 1.8 5.2 2.2v.8c0 .1 0 .1-.1.2 0 .1 0 .1-.1.2v.2l-1.2 3.3c-.4 1.1-.8 2.2-1.1 3.3-.4 1.1-.8 2.2-1.1 3.3-.4 1.1-.7 2.2-1.1 3.2-.4 1.3-.9 2.6-1.3 3.9-.4 1.3-.9 2.7-1.4 4-.5 1.3-.9 2.7-1.4 4-.5 1.3-.9 2.7-1.4 4-.5 1.3-.7 2.4-.8 3.4-.1 1-.1 1.9 0 2.6.1.8.3 1.4.5 1.9s.4 1 .7 1.3c.3.4.6.9 1.1 1.2.5.4 1 .7 1.7.9.7.2 1.4.4 2.3.4.9 0 1.9-.1 3.1-.4h.1c1-.3 2-.5 3-.8 1-.3 2-.5 3.1-.8 1-.3 2.1-.6 3.1-.8 1-.3 2.1-.6 3.1-.8 1-.3 2.1-.6 3.2-.8 1.1-.3 2.1-.6 3.2-.8 1.1-.3 2.2-.6 3.2-.8l3.3-.9h.1c1.2-.3 2.3-.8 3.3-1.3 1-.6 1.9-1.3 2.8-2.2.8-.8 1.6-1.8 2.3-2.9.7-1.1 1.2-2.3 1.7-3.7.5-1.4.9-2.8 1.4-4.1.5-1.3.9-2.6 1.4-3.9.5-1.3 1-2.6 1.4-3.9l1.5-3.9c.3-.7.5-1.4.8-2.2.3-.7.5-1.5.8-2.2.3-.7.5-1.5.8-2.2.3-.8.6-1.5.8-2.3.3-.3.5-.7.7-1.1l.6-1.2s.3-.9.4-1.3c.1-.5.1-.9.1-1.4v-.7c0-.2-.1-.5-.1-.7 0-.2-.1-.4-.2-.6-.1-.2-.1-.4-.2-.6 1.5-.3 3-.7 4.4-1 1.4-.3 2.7-.6 3.9-.9 1.2-.3 2.4-.6 3.6-.8 1.1-.3 2.2-.5 3.3-.8h1.2c0 .4-.1.9-.1 1.5s0 1.2.1 1.8c.1.6.2 1.3.5 1.9.2.6.5 1.2 1 1.8.3.4.6.7 1 1 .4.3.7.5 1.2.6.4.1.8.2 1.3.2s.9 0 1.4-.1h.4c.5-.1.9-.3 1.4-.5.4-.2.8-.5 1.2-.8.4-.3.7-.6 1-1 .3-.4.6-.7.8-1.2.3.1.5.2.7.2.2 0 .5.1.7.1H354.4c.4-.1.9-.2 1.3-.4s.8-.4 1.1-.7c.4-.3.7-.6 1-.9.3-.3.6-.7.9-1.1v-.1-.1-.1-.1H359.9c.1 0 .3 0 .4-.1h.1c.7-.2 1.4-.5 2.1-.9.7-.4 1.3-1 1.8-1.8.5-.7 1-1.6 1.3-2.7.3-1.1.5-2.3.5-3.7v-1.3-1.3-1.3-1.3c.1 0 .2 0 .3.1.1 0 .2 0 .4.1.1 0 .2 0 .4.1.1 0 .3 0 .4.1.5 1.2 1 2.2 1.7 3.1.7.9 1.4 1.5 2.2 2 .8.5 1.7.8 2.7.9 1 .1 2 .1 3.1-.2.3-.1.6-.1.9-.2l.9-.3c.3-.1.6-.2 1-.4.3-.1.7-.3 1-.5l.9-.6c.3-.2.5-.5.8-.8.2-.3.5-.6.7-1 .2-.4.4-.7.5-1.2.2-.4.3-.8.4-1.2.1-.4.1-.8.2-1.3v-1.2c0-.4-.1-.8-.2-1.1v-.1-.1-.1-.1c.1 0 .2-.1.2-.1.1 0 .1-.1.2-.1s.1-.1.2-.1.1-.1.2-.1c0 0 .1 0 .2-.1.1 0 .1-.1.2-.1s.1 0 .1-.1.1 0 .1 0c.6-.1 1.3-.3 1.9-.4.6-.2 1.3-.3 1.9-.5.6-.2 1.3-.3 1.9-.5.6-.2 1.2-.3 1.8-.5.6-.2 1.2-.3 1.8-.5.6-.2 1.2-.3 1.7-.5.6-.2 1.1-.3 1.7-.4.6-.1 1.1-.3 1.7-.4.1 0 .5-.1 1-.3.5-.2 1.1-.6 1.6-1.2.6-.6 1.2-1.4 1.6-2.5.4-1.1.8-2.5.8-4.2v-.1-.1-.1-.1-.4-.4-.4-.4c.7-.6 1.3-1.3 1.7-2 .4-.7.7-1.5 1-2.2.2-.7.3-1.3.4-1.9.1-.5.1-.9.1-1 0-.7 0-1.4-.1-2.1-.1-.6-.3-1.2-.6-1.7-.2-.5-.6-1-.9-1.4-.4-.4-.8-.7-1.2-.9 0-.4-.1-.8-.2-1.2-.1-.4-.2-.8-.3-1.1-.1-.4-.3-.7-.4-1l-.6-.9c-.2-.3-.5-.6-.8-.8l-.9-.6c-.3-.1-.6-.2-1-.3h-1c-.6.1-1.1.2-1.7.3-.6.1-1.1.2-1.7.3-.6.1-1.1.2-1.7.2-.6.1-1.1.2-1.7.2-.6.1-1.3.2-1.9.3-.6.1-1.3.2-1.9.3-.7.1-1.3.2-2 .3-.7.1-1.3.2-2 .3h-.1-.1-.1-.1c0-.2 0-.4-.1-.7 0-.2-.1-.4-.1-.7-.1-.2-.1-.4-.2-.7-.1-.2-.2-.4-.3-.7-.3-.7-.7-1.2-1.1-1.5-.4-.4-.8-.6-1.2-.7-.4-.1-.8-.2-1.2-.2H378c-.2 0-.3 0-.5.1-1.5.2-2.8.8-3.8 1.7-1.1.8-2 1.9-2.8 3-.8 1.1-1.4 2.4-1.9 3.6-.5 1.2-.9 2.3-1.3 3.3-.1.2-.1.3-.2.4-.1.1-.1.3-.2.4-.1.1-.1.3-.2.5s-.1.4-.2.6l-3 .5.1-5.6c.1-.3.2-.7.3-1.2.1-.5.2-1 .2-1.6 0-.6 0-1.3-.1-1.9-.1-.7-.3-1.3-.7-2-.2-.4-.5-.8-.8-1.1-.3-.3-.6-.5-1-.7-.4-.2-.7-.3-1.1-.3h-2.2-.1-.2-.1c-.4-.3-.7-.6-1.1-.8-.4-.2-.7-.3-1.1-.4-.3-.1-.6-.1-.9-.1h-.7c-.2 0-.5.1-.7.2-.2.1-.5.2-.7.3-.2.1-.5.2-.7.4-.2.2-.4.3-.6.5-.2-.3-.4-.5-.7-.7-.3-.2-.5-.4-.8-.5l-.9-.3h-1l-2 .3c-.3.1-.7.2-1 .3-.3.2-.7.3-1 .6-.3.2-.6.5-.9.8-.3.3-.5.7-.7 1.1-.5.9-.9 1.7-1.1 2.5-.3.8-.5 1.6-.6 2.4-.1.8-.2 1.5-.2 2.2v2h-2c-.9.1-1.9.3-2.9.4-1 .1-1.9.3-2.9.4-1 .1-2 .3-3 .4-1 .1-2 .3-3.1.4-.9.1-1.9.2-2.8.4-1 .1-1.9.2-2.9.4-1 .1-1.9.3-2.9.4-1 .1-2 .3-2.9.4v-.1-.1-.1-.1c-.6-1.6-1.3-3-2.1-4.1-.8-1.2-1.8-2.1-2.8-2.8-1.1-.7-2.2-1.2-3.5-1.4-1.3-.2-2.7-.3-4.2 0h-.1-.1-.1-.1c-.3.1-.6.1-.9.2-.3.1-.6.1-.9.2-.3.1-.6.1-.9.2-.3.1-.6.1-.9.2l-3.9.6c-1.3.2-2.7.4-4 .5-1.3.2-2.7.3-4 .5-1.3.2-2.7.3-4 .5-1.2.1-2.4.3-3.7.4-1.2.2-2.5.3-3.7.5-1.3.2-2.5.3-3.8.5-1.3.2-2.5.4-3.8.6-.1 0-.2-.1-.3-.1-.1 0-.2 0-.3-.1H264.9c0 .4-.1.4-.2.4"/><path class="st10" d="M278.4 194.1h0m19-5l1.2-.3 1.2-.3 1.2-.3 1.2-.3c.1 0 .2-.1.4-.1.1 0 .2-.1.4-.1.1 0 .2-.1.4-.1.1 0 .2-.1.4-.1-.5.1-1.1.3-1.6.4-.5.1-1.1.3-1.6.4-.5.1-1.1.3-1.6.4-.5.2-1 .3-1.6.4m-7 1.8l-1.2.3-1.2.3-1.2.3-1.2.3 1.2-.3 1.2-.3 1.2-.3c.4 0 .8-.2 1.2-.3m.6-.1H291.2h-.2m17.7-7.3c-.3.5-.5 1-.9 1.4-.3.4-.7.8-1 1.1-.4.3-.8.6-1.3.8-.5.2-.9.4-1.5.6.5-.2 1-.3 1.5-.6.5-.2.9-.5 1.3-.8.4-.3.7-.7 1-1.1.4-.4.7-.9.9-1.4m-33.5 6.8c0 .1 0 .1-.1.2 0 .1 0 .1-.1.2 0 .1 0 .1-.1.2v0c0-.1 0-.1.1-.2 0-.1 0-.1.1-.2s.1-.1.1-.2m84.9-48.2H360.1m-4.2 0v1.1c0 .4-.1.7-.2 1.1-.1.3-.2.6-.5.8-.2.2-.5.4-.9.5.4-.1.7-.3.9-.5.2-.2.4-.5.5-.8s.2-.7.2-1.1v-1.1m-44.6 9H311.4c-.1-.1-.1 0-.1 0m-15.2 3.3H296.1m17.6-3.9c-.1 0-.2 0-.3.1-.1 0-.2 0-.3.1-.1 0-.2 0-.3.1-.1 0-.2 0-.3.1.1 0 .2 0 .3-.1.1 0 .2 0 .3-.1s.2 0 .3-.1c.1 0 .2-.1.3-.1m-14 3.1c-.2 0-.4.1-.7.1-.2 0-.4.1-.7.1-.2 0-.4.1-.7.1-.2 0-.4.1-.7.1.2 0 .4-.1.7-.1.2 0 .4-.1.7-.1.2 0 .4-.1.7-.1.2 0 .4-.1.7-.1m4.6-1c.3-.1.6-.1.9-.2.3-.1.6-.1.9-.2.3-.1.6-.1.9-.2.3-.1.6-.1.9-.2-.3.1-.6.1-.9.2-.3.1-.6.1-.9.2-.3.1-.6.1-.9.2-.3 0-.6.1-.9.2m-14.4 3.1c-.3.1-.7.2-1 .4-.3.2-.6.3-.8.5-.3.2-.5.5-.7.7-.2.3-.4.6-.6 1 .2-.4.4-.7.6-1 .2-.3.5-.5.7-.7.3-.2.5-.4.8-.5.3-.2.6-.3 1-.4m.7-.2c.2 0 .5-.1.7-.1.2 0 .5-.1.7-.1.2 0 .5-.1.7-.1.2-.1.5-.1.7-.2-.2.1-.5.1-.7.2-.2.1-.5.1-.7.1-.2 0-.5.1-.7.1-.2 0-.5.1-.7.1m-.2.1s.1 0 0 0h.1c0-.1 0-.1-.1 0 .1 0 0 0 0 0m27-5.9c0-.1.1-.1 0 0h.1c0-.1 0-.1-.1 0 .1-.1 0-.1 0 0m59.1-16.2c0-.1 0-.1 0 0H376.6c0-.1-.1-.1-.1 0 0-.1 0-.1 0 0m4-1.6c-.3.2-.6.3-.9.5-.3.1-.6.3-.9.4l-.9.3c-.3.1-.6.2-.8.2.2-.1.5-.1.7-.2.2-.1.5-.2.8-.3.3-.1.5-.2.8-.3.3-.1.5-.2.8-.4 0 0 .1 0 .1-.1s.1 0 .1-.1c0 0 .1 0 .1-.1 0 .2.1.2.1.1m-9-1.7c0 .1 0 .1 0 0v0c0 .1 0 .1 0 0m15.4-11.6h-.2-.2.2c.1.1.1.1.2 0m2.1-.4c-.1 0-.3.1-.4.1-.1 0-.3.1-.4.1-.1 0-.3.1-.4.1-.1 0-.3.1-.4.1.1 0 .2-.1.4-.1.1 0 .2-.1.4-.1.1 0 .2 0 .4-.1.1 0 .2 0 .4-.1.3-.1.7-.1 1-.2.3-.1.7-.1 1-.2.3-.1.7-.1 1-.2.3-.1.7-.1 1-.2.1 0 .2 0 .3-.1.1 0 .2 0 .3-.1.1 0 .2 0 .3-.1.1 0 .2 0 .3-.1.1 0 .2 0 .3-.1.1 0 .2 0 .3-.1.1 0 .2 0 .3-.1s.2 0 .3-.1c.4-.1.8-.2 1.2-.2.4-.1.8-.2 1.2-.2.4-.1.8-.2 1.2-.2.4-.1.8-.2 1.2-.2h-.8c-.3.1-.6.1-.9.2-.3.1-.6.1-.9.2-.3.1-.6.1-.9.2-.3.1-.6.1-.9.2-.3.1-.5.1-.8.2-.3.1-.5.1-.8.2-.3.1-.5.1-.8.2-.3.1-.5.1-.8.1-.3.1-.6.1-1 .2-.3.1-.6.1-1 .2-.3.1-.6.1-1 .2 0 .2-.3.3-.6.3m1.5-8c-.1 0-.2 0-.4.1-.1 0-.2 0-.4.1-.1 0-.2 0-.4.1-.1 0-.2 0-.4.1.1 0 .2 0 .4-.1.1 0 .2 0 .4-.1.1 0 .2 0 .4-.1.2 0 .3 0 .4-.1m2.2-.4c-.2 0-.3.1-.5.1s-.3.1-.5.1-.3.1-.5.1-.3.1-.5.1c.1 0 .2 0 .4-.1.1 0 .2 0 .4-.1.1 0 .2 0 .4-.1.1 0 .2 0 .4-.1.3-.1.7-.1 1-.2.3-.1.7-.1 1-.2.3-.1.7-.1 1-.2.3-.1.7-.1 1-.2.2 0 .5-.1.7-.1.2 0 .5-.1.7-.1.2 0 .5-.1.7-.1.2 0 .5-.1.7-.1.4-.1.8-.1 1.1-.2.4-.1.8-.1 1.1-.2.4-.1.8-.1 1.1-.2.4-.1.8-.1 1.1-.2-.3.1-.6.1-.9.2-.3.1-.6.1-.9.2-.3.1-.6.1-.9.2-.3.1-.6.1-.9.2-.3.1-.6.1-.9.2-.3.1-.6.1-.9.2-.3.1-.6.1-.9.2-.3.1-.6.1-.9.2-.3.1-.6.1-.9.2-.3.1-.6.1-.9.2-.3.1-.6.1-.9.2-.4-.3-.6-.2-.9-.2m-41.2 7v1.2c.1 2.1.1 4.1.1 6.2v6.2c0 2 .1 4.1.3 6.1.2 2 .4 4 .8 5.9.1.3.1.7.1 1.1 0 .4 0 .8.1 1.2 0 .4.1.7.3.9.2.2.4.3.8.2-.4.1-.7 0-.8-.2-.2-.2-.3-.5-.3-.9s-.1-.8-.1-1.2c0-.4 0-.8-.1-1.1-.4-1.9-.6-3.9-.8-5.9-.2-2-.2-4-.3-6.1v-6.2c0-2.1 0-4.1-.1-6.2v-.3-.3-.3-.3m34.3-8.9H385.9c0-.1-.1-.1-.1 0m-3-1.1v.7c.1.2.1.3.3.4.1.1.2.2.4.2h.5c.2 0 .3 0 .5-.1h.8-.8c-.2 0-.4.1-.6.1-.2 0-.4 0-.5-.1-.2-.1-.3-.2-.4-.3-.1-.2-.2-.4-.2-.7v-.1-.1m12.1-4.1c.4-.1.9-.2 1.3-.2.4-.1.9-.1 1.3-.2s.8-.1 1.3-.2c.4-.1.8-.1 1.3-.2-.4.1-.8.1-1.3.2-.4.1-.8.1-1.3.2-.4.1-.8.1-1.3.2-.4.1-.8.2-1.3.2m-5.5 1c-.2 0-.4.1-.6.1-.2 0-.4.1-.6.1-.2 0-.4.1-.6.1-.2 0-.4.1-.6.1.2 0 .4-.1.6-.1.2 0 .4-.1.6-.1.2 0 .4-.1.6-.1.3 0 .5-.1.6-.1m.4 0h.8H390c-.1-.1-.2-.1-.2 0m-78.3 5.6c0 .1.1.2.1.3 0 .1.1.2.1.3 0 .1.1.2.1.3 0 .1.1.2.1.3 0-.1-.1-.2-.1-.3 0-.1-.1-.2-.1-.3 0-.1-.1-.2-.1-.3 0-.1 0-.2-.1-.3m65.7-11.5c-1.2.2-2.1.8-2.8 1.6-.7.8-1.3 1.9-1.8 3-.5 1.2-.9 2.4-1.4 3.6-.5 1.2-1 2.4-1.6 3.3.6-1 1.1-2.1 1.6-3.3.5-1.2.9-2.5 1.4-3.6.5-1.2 1.1-2.2 1.8-3 .7-.8 1.6-1.4 2.8-1.6m-16.4 1.5c.1 0 .1 0 0 0h0c.1 0 .1 0 0 0m-6.4-1.3c-.2.1-.4.2-.6.4-.2.2-.3.4-.4.6-.1.2-.2.5-.2.8 0 .3-.1.5-.1.8 0-.3 0-.5.1-.8 0-.3.1-.5.2-.8.1-.2.2-.4.4-.6.2-.2.4-.3.6-.4M266.3 110.5c.1 0 .1.1.2.1s.1.1.2.1.1.1.2.1.1.1.2.1c2.4 1.3 4.9 2.3 7.4 3 2.5.7 4.9 1.1 7.4 1.2 2.5.2 4.9.1 7.4-.1s4.9-.5 7.4-1c1.2-.2 2.4-.4 3.6-.7 1.2-.2 2.4-.5 3.6-.7 1.2-.3 2.4-.5 3.6-.8 1.2-.3 2.4-.5 3.6-.7.1 0 .2 0 .3-.1.1 0 .2 0 .3-.1s.2 0 .3-.1c.1 0 .2 0 .3-.1-1.3.3-2.6.5-3.8.8-1.3.3-2.6.6-3.9.8-1.3.3-2.6.5-3.9.8-1.3.3-2.6.5-3.9.7-2.5.4-5.1.8-7.6 1-2.5.2-5.1.2-7.6.1-2.5-.2-5.1-.6-7.6-1.3-2.7-.6-5.2-1.6-7.7-3.1m36.9-6.1H303.5h-.1-.2"/><path class="st10" d="M348.6 96.5c-.2 0-.3.1-.5.1s-.3.1-.5.1-.3.1-.5.1-.3.1-.5.1c-.2.2-.3.5-.5.9-.1.4-.2.8-.3 1.3-.1.5-.1 1-.2 1.5V103.6c0 .3.1.6.1.9 0 .3 0 .6.1.8v.7c0 .2 0 .4-.1.7-.1.6-.3 1.1-.5 1.5-.3.4-.6.7-1 1-.4.3-.9.5-1.4.7-.6.2-1.2.3-1.9.4h-.8c-1.8.3-3.6.6-5.5.9-1.8.3-3.7.6-5.5.9-1.9.3-3.7.6-5.6 1-1.9.3-3.8.7-5.7 1-.7.1-1.4.2-2.1.4-.7.1-1.4.3-2.1.4-.7.1-1.4.3-2.1.4-.7.1-1.4.3-2.1.4-1.5.3-3.1.6-4.6.8-1.5.3-3.1.6-4.7.8-1.6.3-3.1.6-4.7.9l-4.8.9c-2.4.4-4.6 1.3-6.5 2.5-2 1.2-3.7 2.7-5.1 4.5-1.4 1.8-2.5 3.8-3.3 6.1-.7 2.2-1.1 4.6-1 7.1.1 2.3.6 4.4 1.4 6.1.8 1.8 2 3.2 3.4 4.3 1.4 1.1 3.1 1.8 5 2.2 1.9.4 4 .3 6.2-.2 2.4-.5 4.7-1 7-1.5s4.6-.9 6.9-1.4c2.3-.5 4.5-.9 6.8-1.4 2.2-.5 4.5-.9 6.7-1.4.4-.1.9-.2 1.3-.3.4-.1.8-.2 1.3-.3.4-.1.8-.2 1.3-.3.4-.1.8-.2 1.3-.3 1.4-.3 2.9-.6 4.3-.9l4.2-.9c1.4-.3 2.8-.6 4.2-1 1.4-.3 2.8-.6 4.2-1h.4c1-.2 1.8-.3 2.5-.2.7.1 1.2.3 1.5.7.4.4.6 1 .7 1.8.1.8.1 1.8-.1 3 0 .3-.1.6-.1 1 0 .3-.1.7 0 1.1 0 .3 0 .7.1.9.1.3.2.5.4.6.1 0 .1.1.2.1s.1 0 .2.1h.6c.4-.1.7-.3.9-.6.2-.3.3-.6.4-1 .1-.4 0-.8 0-1.1v-1.1-3.6-3.6-3.5-3.5-3.8-3.8-3.8-3.8-4.9-5-5.1c.7-2 .7-3.7.7-5.4"/><path class="st10" d="M317.4 149.7s-.1 0 0 0h-.2-.2c-.3.1-.5.1-.8.2-.3.1-.6.1-.8.2-.3.1-.6.1-.8.2-.3.1-.6.1-.8.2-.1 0-.2 0-.3.1-.1 0-.2 0-.3.1s-.2 0-.3.1c-.1 0-.2 0-.3.1h-.8-.1-.1-.1-.1c-.3.1-.5.1-.8.2-.3.1-.5.1-.8.2-.3.1-.5.1-.8.2-.3.1-.5.1-.8.2-.3.1-.6.1-.9.2-.3.1-.6.1-.9.2-.3.1-.6.1-.9.2-.3.1-.6.1-.9.2-.4.1-.8.2-1.1.3l-1.2.3-1.2.3-1.2.3c-.2 0-.4.1-.7.1-.2 0-.4.1-.7.1-.2 0-.4.1-.7.1-.2 0-.4.1-.7.1h-.8-.1-.1-.1-.1c-.2 0-.4.1-.7.1-.2 0-.4.1-.7.1-.2 0-.4.1-.7.1-.2 0-.4.1-.7.1-.2.1-.5.1-.7.2-.2.1-.5.1-.7.1-.2 0-.5.1-.7.1-.2 0-.5.1-.7.1h-.1-.1-.1-.1c-.3.1-.7.2-1 .4-.3.2-.6.3-.8.5-.3.2-.5.5-.7.7-.2.3-.4.6-.6 1 0 .1-.1.2-.1.2 0 .1-.1.2-.1.2 0 .1-.1.2-.1.3s-.1.2-.1.3c-.9 2.6-1.8 5.1-2.7 7.6-.9 2.5-1.8 5.1-2.8 7.6-.9 2.5-1.8 5.1-2.8 7.6-.9 2.5-1.8 5.1-2.7 7.7v.4c0 .1 0 .1-.1.2 0 .1 0 .1-.1.2 0 .1 0 .1-.1.2v.2c-.2.7-.2 1.2-.2 1.7s.2.8.5 1.1c.3.3.6.4 1.1.5.5.1 1 0 1.7-.1h.4c.1 0 .3-.1.4-.1.1 0 .3-.1.4-.1.1 0 .3-.1.4-.1.1 0 .3-.1.4-.1l1.2-.3 1.2-.3 1.2-.3 1.2-.3h.4l1.2-.3 1.2-.3 1.2-.3 1.2-.3H291.4l1.2-.3 1.2-.3 1.2-.3 1.2-.3c.1 0 .2 0 .3-.1.1 0 .2 0 .3-.1.1 0 .2 0 .3-.1.1 0 .2 0 .3-.1.5-.1 1.1-.3 1.6-.4.5-.1 1.1-.3 1.6-.4.5-.1 1.1-.3 1.6-.4.5-.1 1.1-.3 1.6-.4h.4c.5-.2 1-.3 1.5-.6.5-.2.9-.5 1.3-.8.4-.3.7-.7 1-1.1.3-.4.6-.9.9-1.4.1-.1.1-.3.2-.4.1-.1.1-.3.2-.4.1-.1.1-.3.2-.4.1-.1.1-.3.2-.4.8-2.4 1.6-4.8 2.4-7.3.8-2.4 1.6-4.8 2.5-7.2.8-2.4 1.6-4.8 2.5-7.2.8-2.4 1.7-4.8 2.5-7.2v-.1-.1-.1-.1c.2-.6.3-1.1.4-1.5 0-.4 0-.7-.1-.9-.1-.2-.3-.4-.5-.5-.2-.1-.5-.1-.9-.1H317.9c-.1 0-.2 0-.3.1-.1-.2-.1-.2-.2-.1.1-.1 0-.1 0 0M377.3 97.8c-.1 0-.1 0 0 0-.1 0-.1 0 0 0-.1 0-.1 0 0 0-1.3.2-2.2.8-2.9 1.7-.7.8-1.3 1.9-1.8 3-.5 1.2-.9 2.4-1.4 3.6-.5 1.2-1 2.4-1.6 3.3-.2.3-.4.6-.6.8-.2.3-.5.5-.7.7-.3.2-.5.4-.8.6-.3.2-.6.3-1 .4-.2 0-.3.1-.4.2l-.3.3c-.1.1-.2.3-.2.5-.1.2-.1.3-.2.5 0 .1 0 .2-.1.3v3.7c0 .4 0 .8-.1 1.2 0 .4 0 .8-.1 1.2v1.2c0 .8 0 1.6.1 2.3.1.7.3 1.4.6 1.9.3.6.8 1 1.4 1.4.6.4 1.4.6 2.4.7.2 0 .4.1.6.2.2.1.4.3.5.5.2.2.3.4.4.6.1.2.2.5.3.7 0 .1 0 .1.1.2s0 .1.1.2c0 .1 0 .1.1.2 0 .1 0 .1.1.2.3.7.6 1.3.9 1.7.3.4.7.8 1.1 1 .4.2.9.4 1.3.4.5.1 1 0 1.5-.1H377.4c.3-.1.6-.1.8-.2l.9-.3c.3-.1.6-.3.9-.4.3-.1.6-.3.9-.5-.2-.5-.3-1.1-.5-1.6s-.3-1.1-.4-1.6c-.1-.5-.3-1.1-.4-1.6-.1-.5-.2-1.1-.3-1.6-.1-.8-.3-1.6-.4-2.4l-.3-2.4c-.1-.8-.1-1.6-.1-2.4v-2.5c0-1.2.1-2.5.2-3.7.1-1.2.3-2.5.5-3.7.2-1.3.4-2.5.7-3.8.3-1.3.6-2.6 1-3.8.1-.2.1-.4.1-.5 0-.2.1-.3.1-.5 0-.1 0-.3.1-.4v-.3c0-.3 0-.5-.1-.7-.1-.2-.2-.3-.4-.4-.2-.1-.4-.1-.7-.1H378.1c-.6 0-.7 0-.8.1M303.2 104.4c-.1 0-.1 0 0 0H302.9h-.1c-1.3.2-2.5.5-3.8.7-1.3.2-2.5.4-3.8.7-1.3.2-2.6.4-3.8.7l-3.9.6c-1.7.3-3.5.6-5.2.9-1.8.3-3.5.6-5.3.9-1.8.3-3.6.6-5.3.9l-5.4.9c2.5 1.4 5 2.5 7.5 3.2 2.5.7 5 1.1 7.6 1.3 2.5.2 5 .1 7.6-.1 2.5-.2 5-.6 7.6-1 1.3-.2 2.6-.5 3.9-.7 1.3-.3 2.6-.5 3.9-.8 1.3-.3 2.6-.6 3.9-.8 1.3-.3 2.6-.5 3.8-.8v-.1-.1-.1-.1c0-.1-.1-.2-.1-.3 0-.1-.1-.2-.1-.3 0-.1-.1-.2-.1-.3 0-.1-.1-.2-.1-.3-.4-1.1-.8-1.9-1.3-2.6-.5-.7-1.1-1.2-1.8-1.6-.7-.4-1.4-.6-2.2-.7-.8-.1-1.7-.1-2.7 0h-.1-.1-.1l-.2-.1M354.7 98c-.1 0-.1 0 0 0h-.1-.1-.1c-.2.1-.4.2-.6.4-.2.2-.3.4-.4.6-.1.2-.2.5-.2.8 0 .3-.1.5-.1.8V103c0 1.1-.2 2.2-.3 3.4-.1 1.1-.3 2.2-.5 3.4-.2 1.1-.4 2.2-.5 3.4-.1 1.1-.3 2.3-.3 3.4v2c.1 2.1.1 4.1.1 6.2v6.2c0 2 .1 4.1.3 6.1.2 2 .4 4 .8 5.9.1.3.1.7.1 1.1 0 .4 0 .8.1 1.2 0 .4.1.7.3.9.2.2.4.3.8.2.4-.1.7-.3.9-.5.2-.2.4-.5.5-.8.1-.3.2-.7.2-1.1v-1.1-.1-.1-.1-.1-.6-.6-.6-.6-.9-.9-.9-.9-1.3-1.3-1.3-1.3-2.1-2.1-2.1-2.1-1.7-1.7-1.7-1.7-3.6-3.6-3.6-3.6-1c0-.3 0-.7-.1-1-.1-.3-.2-.5-.4-.7.3-1 0-1.1-.4-1M360.8 99.3c-.1 0-.2 0-.2.1-.1 0-.1 0-.2.1s-.1.1-.2.1-.1.1-.1.1c-.2.2-.3.4-.4.6-.1.2-.2.5-.2.8-.1.3-.1.6-.1.9v.9c0 3.1-.1 6.2-.1 9.2 0 3.1-.1 6.1-.1 9.2 0 3-.1 6.1-.1 9.1s-.1 6-.1 9v1c0 .3.1.6.1.9.1.3.2.5.3.7.2.2.3.3.6.3h.4c.3-.1.6-.2.8-.5.2-.2.3-.5.4-.8.1-.3.2-.7.2-1 0-.4.1-.7.1-1.1v-1.6-1.6-1.6-1.6-3-3-3-3-1.5-1.5-1.5-1.6-3-3-3-3-1c0-.3-.1-.7-.2-1-.1-.3-.2-.5-.4-.7-.2-.2-.4-.3-.7-.2.3-.2.3-.2.2-.2.1 0 .1 0 0 0M389.8 103.7c-.1 0-.1 0 0 0h-.2-.1-.1c-.2 0-.4.1-.6.1-.2 0-.4.1-.6.1-.2 0-.4.1-.6.1-.2 0-.4.1-.6.1-.2 0-.4.1-.7.1-.2 0-.4.1-.7.1-.2 0-.4.1-.7.1-.2 0-.4.1-.7.1-.2 0-.4.1-.6.2-.2.1-.4.3-.5.4-.2.2-.3.4-.4.6-.1.2-.1.5-.1.8v.4c0 .3.1.5.2.7.1.2.2.3.4.3.2.1.3.1.5.1s.4 0 .6-.1H385.9c.2 0 .3-.1.5-.1s.3-.1.5-.1.3-.1.5-.1.3-.1.5-.1c.3-.1.7-.1 1-.2.3-.1.7-.1 1-.2.3-.1.7-.1 1-.2.3-.1.7-.1 1-.2.2 0 .5-.1.7-.1.2 0 .5-.1.7-.1.2 0 .5-.1.7-.1.2 0 .5-.1.7-.1.1 0 .3-.1.4-.1.1 0 .3-.1.4-.1.1 0 .3-.1.4-.1.1 0 .3-.1.4-.1.2 0 .5-.1.7-.1.2 0 .5-.1.7-.1.2 0 .5-.1.7-.1.2 0 .5-.1.7-.1.2 0 .5-.1.7-.2.2-.1.4-.2.6-.4.2-.2.3-.4.4-.6.1-.2.2-.5.2-.9 0-.2 0-.4-.1-.6-.1-.2-.2-.3-.3-.5-.1-.1-.3-.2-.5-.3-.2 0-.4-.1-.6 0-.4.1-.8.1-1.3.2-.4.1-.8.1-1.3.2-.4.1-.8.1-1.3.2-.4.1-.9.1-1.3.2s-.7.1-1.1.2c-.4.1-.8.1-1.1.2-.4.1-.8.1-1.1.2-.4.1-.8.1-1.1.2H389.3c.6 0 .5 0 .5.1M392.1 109.9c-.1 0-.2 0-.4.1-.1 0-.2 0-.4.1-.1 0-.2 0-.4.1-.1 0-.2 0-.4.1-.1 0-.2 0-.4.1-.1 0-.2 0-.4.1-.1 0-.2 0-.4.1-.1 0-.2 0-.4.1-.3 0-.5.1-.8.2-.3.1-.5.2-.7.4-.2.2-.4.4-.5.6-.1.3-.2.6-.2 1 0 .3.1.6.2.8.1.2.3.3.5.4.2.1.4.1.6.1.2 0 .5 0 .7-.1l1.8-.3 1.8-.3 1.8-.3 1.8-.3 1.8-.3 1.8-.3 1.8-.3c.6-.1 1.2-.2 1.8-.4.2 0 .4-.1.7-.2l.6-.3c.2-.1.3-.3.5-.6.1-.2.2-.5.2-.9 0-.3 0-.6-.1-.8-.1-.2-.2-.4-.4-.5-.2-.1-.3-.2-.6-.2h-.7c-.4.1-.8.1-1.1.2-.4.1-.8.1-1.1.2-.4.1-.8.1-1.1.2-.4.1-.8.1-1.1.2-.2 0-.5.1-.7.1-.2 0-.5.1-.7.1-.2 0-.5.1-.7.1-.2 0-.5.1-.7.1-.3.1-.7.1-1 .2-.3.1-.7.1-1 .2-.3.1-.7.1-1 .2-.3-.1-.6 0-1 0M388.8 118.3c-.1 0-.2 0-.4.1-.1 0-.2 0-.4.1-.1 0-.2.1-.4.1-.1 0-.2.1-.4.1h-.4-.2-1c-.2 0-.5.1-.7.2-.2.1-.5.1-.7.3-.2.1-.4.3-.5.5-.1.2-.2.5-.2.9s.1.7.2.9c.1.2.3.4.5.5.2.1.4.2.7.2.3 0 .5 0 .8-.1 1.2-.2 2.5-.5 3.7-.7 1.2-.2 2.4-.5 3.6-.7 1.2-.2 2.4-.5 3.6-.7 1.2-.2 2.4-.5 3.6-.7.2-.1.5-.1.7-.3.2-.1.4-.3.6-.5.2-.2.3-.4.4-.6.1-.2.2-.5.2-.8 0-.3 0-.6-.1-.7-.1-.2-.3-.3-.4-.4-.2-.1-.4-.1-.6-.1-.2 0-.4 0-.7.1-.4.1-.8.1-1.2.2-.4.1-.8.2-1.2.2-.4.1-.8.2-1.2.2-.4.1-.8.2-1.2.2-.1 0-.2 0-.3.1s-.2 0-.3.1c-.1 0-.2 0-.3.1-.1 0-.2 0-.3.1-.1 0-.2 0-.3.1-.1 0-.2 0-.3.1-.1 0-.2 0-.3.1-.1 0-.2 0-.3.1-.3.1-.7.1-1 .2-.3.1-.7.1-1 .2-.3.1-.7.1-1 .2-.6-.1-1 0-1.3.1"/></g></g></g><g><g class="st6"><defs><path id="SVGID_3_" class="st6" d="M401 142.6l-2.6-45.8 199.1-41.2-.9 37.3z"/></defs><clipPath id="SVGID_4_"><use xlink:href="#SVGID_3_" overflow="visible"/></clipPath><g class="st11"><path class="st12" d="M417.8 126.3l-17.5 4.2.7 12.1 17.4-4.5-.6-11.8M520.4 101.5l-20.3 4.9.2 11 20.1-5.2v-10.7M526.3 100.1l.1 10.6 70-21.8.1-2.1-70.2 13.3M491 108.6l-22.2 5.4.3 11.3 22.1-5.6-.2-11.1M434 105.3l-17 3.8.6 12.1 16.9-4.1-.5-11.8M491.1 92.5l-8.5 1.9.3 11.3 8.4-2-.2-11.2M462.5 115.5l-33.8 8.2.5 11.7 33.7-8.5-.4-11.4M478.4 96l-33.7 7.6.4 10.8 33.6-7.9-.3-10.5M498.4 91.5l.2 10.3 98.5-26.6v-2.4l-98.7 18.7M464.7 83.1l-41.8 8.7.6 11.7 41.6-9.1-.4-11.3M508.9 73.9L471 81.8l.3 11.2 37.7-8.3-.1-10.8M516.8 72.3V83L597 64.9l.1-1.8-80.3 9.2"/></g></g></g></svg>