<svg xmlns="http://www.w3.org/2000/svg" viewBox="0 0 192 64"><style>.st0{fill:#1274A9;}</style><g id="icon_x5F_fg"><path class="st0" d="M161.9 24c0 2.7-2.2 4.8-4.8 4.8-2.7 0-4.8-2.2-4.8-4.8s2.2-4.8 4.8-4.8c2.6 0 4.8 2.2 4.8 4.8z"/><path class="st0" d="M155.2 40.9c-.2.2-.4.4-.7.6-3.1 2.7-6.2 4.3-8.4 4.3-.6 0-1.1-.1-1.4-.3-1.5-.9-2.5-4.2-1.4-9.9.1-.6.2-1.2.4-1.8 2.2.5 4.7.8 7.3 1 1.3 1.9 2.7 3.6 4.1 5.1l-.1-.8 1-1.7c-.7-.8-1.3-1.6-2-2.4 1 0 2.1.1 3.2.1h.3l1.4-2.4c-.6 0-1.1.1-1.7.1-1.7 0-3.3-.1-4.9-.2-.9-1.3-1.8-2.8-2.7-4.2-.8-1.4-1.6-2.9-2.3-4.4.7-1.5 1.5-2.9 2.3-4.4.8-1.4 1.7-2.8 2.6-4.2 1.6-.1 3.3-.2 4.9-.2 1.7 0 3.3.1 4.9.2.9 1.3 1.8 2.7 2.6 4.2.9 1.5 1.6 2.9 2.3 4.3h2.6c1.1-2.3 2-4.6 2.6-6.8.6.2 1.1.3 1.6.5 2.5.9 4.7 2 6.1 3.2 1.3 1.1 2 2.1 2 3h2.3c0-1.6-1-3.3-2.8-4.8-1.7-1.4-4-2.6-6.8-3.6-.6-.2-1.2-.4-1.8-.5l.3-1.2c1.3-6.5.4-11.6-2.5-13.3-.7-.2-1.5-.4-2.4-.4-2.7 0-6.1 1.7-9.6 4.7-.5.4-.9.8-1.4 1.2-.3-.3-.6-.6-.9-.8C152.6 1.9 148.8 0 146 0c-1 0-1.8.2-2.5.6-1.4.8-2.4 2.5-2.8 4.8-.4 2.1-.3 4.8.3 7.7.1.6.3 1.2.4 1.8-.7.2-1.4.4-2 .6-5.9 2-9.4 5.2-9.4 8.4 0 1.7 1 3.4 2.8 5 1.7 1.5 4.2 2.8 7.1 3.8.5.2 1 .3 1.5.5-.2.7-.3 1.3-.4 1.9-1.2 6.1-.2 10.7 2.6 12.3.7.4 1.6.6 2.6.6 2.7 0 6.2-1.6 9.5-4.5l-.5-2.6zm-7.7-11.3c.5.9 1.1 1.9 1.7 2.8-1.8-.2-3.4-.5-5-.8.5-1.5 1.1-3.1 1.8-4.8.5.9 1 1.9 1.5 2.8zm0-11c-.5.9-1 1.9-1.5 2.8-.7-1.6-1.3-3.2-1.7-4.7 1.5-.3 3.2-.6 4.9-.8-.6.8-1.1 1.7-1.7 2.7zm20.7 2.8c-.5-.9-1-1.9-1.5-2.8-.5-.9-1.1-1.8-1.7-2.7 1.7.2 3.4.5 4.9.9-.5 1.4-1.1 3-1.7 4.6zM160 6.5c3-2.6 6-4.2 8.1-4.2.5 0 1 .1 1.3.3 1.5.9 2.6 4.7 1.4 10.8-.1.3-.2.7-.3 1.1-2.2-.5-4.7-.9-7.2-1.1-1.5-2.1-3-4.1-4.6-5.7.4-.5.9-.9 1.3-1.2zm-2.9 2.8c1.1 1.2 2.1 2.4 3.2 3.8-1.1-.1-2.1-.1-3.2-.1s-2.1 0-3.2.1c1-1.4 2.1-2.6 3.2-3.8zM143 5.9c.3-1.6.9-2.8 1.7-3.2.4-.2.8-.3 1.4-.3 2.2 0 5.5 1.7 8.6 4.5.3.2.5.5.8.8-1.6 1.7-3.1 3.6-4.6 5.7-2.5.2-5 .6-7.2 1.1-.1-.6-.3-1.1-.4-1.7-.5-2.7-.6-5-.3-6.9zM142 31c-.5-.1-.9-.3-1.3-.4-5.7-2-8.3-4.8-8.3-6.6 0-1.7 2.4-4.3 7.8-6.2.6-.2 1.2-.4 1.9-.6.7 2.2 1.6 4.5 2.6 6.8-1.1 2.4-2 4.8-2.7 7z"/><path class="st0" d="M165.1 26.1L157 39.6l3.8 22.4h4v-6h4v5.9l12 .1v-6h4v6h4l3.1-22.6-7.8-13.4h-19zM184.9 52h-20l-2-12 4-6h6v2h4v-2h6l4 6-2 12z"/><path class="st0" d="M170.4 48h-1c-.3 0-.5-.2-.5-.5v-5c0-.3.2-.5.5-.5h1c.3 0 .5.2.5.5v5c0 .3-.2.5-.5.5zM180.4 48h-1c-.3 0-.5-.2-.5-.5v-5c0-.3.2-.5.5-.5h1c.3 0 .5.2.5.5v5c0 .3-.2.5-.5.5z"/><g><path class="st0" d="M116 33V17c0-.5-.4-1-.9-1h-16c-.5 0-1.1.5-1.1 1v3.3l8.7 5.2 1.4 2.7 1.4 5.7h5.5c.6.1 1-.4 1-.9z"/><path class="st0" d="M117 10H97c-1.6 0-3 .8-4 2v2.4c1 1.2 1.6 2.5 1.9 4.1l1.1.7V17c0-1.7 1.4-3 3.1-3h16c1.7 0 2.9 1.3 2.9 3v16c0 1.6-1.3 3-2.9 3h-5l.2.8-.1 2.8-.2.4h7.1c2.7 0 5-2.2 5-5V15c-.1-2.8-2.3-5-5.1-5zM86.4 13c-3.9 0-7 3.1-7 7s3.1 7 7 7 7-3.1 7-7-3.2-7-7-7zm0 10c-1.7 0-3-1.3-3-3s1.3-3 3-3 3 1.3 3 3-1.4 3-3 3zM64.1 37h5l2-4-5-4zM80.3 26.9c-1.8-1.5-2.9-3.6-3.2-6v.1l-10 6 5 4 8.2-4.1zM69 48v-9h-5z"/><path class="st0" d="M108.2 37h-5l-2-4 5-4zM92 26.9c1.8-1.5 2.9-3.6 3.2-6l.1.2 10 6-5 4-8.3-4.2zM103 48v-9h5.3-.2zM81 12.5c1-1 3.2-1.5 5-1.5s4 .6 5 1.5V0H81v12.5zM123.1 4H103c-2.4 0-4.4 1.7-4.9 4H117c3.8 0 6.9 3.1 6.9 7v18.9c2-.5 4-2.5 4-4.9V9c.1-2.8-2.1-5-4.8-5z"/><g><path class="st0" d="M95 41c0-.6-.4-1-1-1H78c-.6 0-1 .4-1 1v16c0 .6.4 1 1 1h16c.6 0 1-.4 1-1V41z"/><path class="st0" d="M101 39c0-2.7-2.2-5-5-5H76c-2.7 0-5 2.2-5 5v20c0 2.7 2.2 5 5 5h20c2.7 0 5-2.2 5-5V39zm-4 18c0 1.7-1.3 3-3 3H78c-1.7 0-3-1.3-3-3V41c0-1.7 1.3-3 3-3h16c1.7 0 3 1.3 3 3v16z"/></g></g><g><path class="st0" d="M58 21.8l-6.2-6.2c-6.4-6.4-10.4-6.7-12.2-5l-.6.7-2.8 2.8-22.6 22.7-3.6 3.6c-1.8 1.8-1.5 5.8 4.3 11.5l6.2 6.2c6.4 6.4 10.4 6.7 12.2 5l3.6-3.6 22.6-22.6 2.8-2.8.6-.6c1.8-2 1.5-5.9-4.3-11.7zm-5.5-2.7l1.4 1.4c.4.4.4 1 0 1.4-.4.4-1 .4-1.4 0l-1.4-1.4c-.4-.4-.4-1 0-1.4s1-.4 1.4 0zM32 60.8L12.2 41l28.3-28.3 19.8 19.8L32 60.8z"/><path class="st0" d="M28.2 26.3l6.9 7.1 2.1-2.1-6.1-7.9zM43.6 34.1l-4.4-8-2.3 2.3 5 7.3zM38.4 32.9l-2 1.9 2.2 2.3 1.7-1.7zM21.4 35.7l6.4 3.5L30 37l-5.9-4zM31.7 38.2l-2 2 4.4 2.4 1.7-1.7zM20.9 22.1l-3.6 3.3 17.5 13.4 1.9-1.8zM17.9 33.8l3-3L7 21.3l-4.2 4.2zM35.4 26.2l2.4-2.5-12.2-22-4.3 4.2zM25.3 23.2l3.2-3.1L14.8 2.4 10 7.2zM13.5 22.6l3.8-3.9L5.1 7.2 0 12.3z"/></g></g></svg>