<?xml version="1.0" encoding="utf-8"?>
<!-- Generator: Adobe Illustrator 19.1.0, SVG Export Plug-In . SVG Version: 6.00 Build 0)  -->
<svg version="1.1" xmlns="http://www.w3.org/2000/svg" xmlns:xlink="http://www.w3.org/1999/xlink" x="0px" y="0px"
	 viewBox="0 0 64 64" style="enable-background:new 0 0 64 64;" xml:space="preserve">
<style type="text/css">
	.st0{fill:#1274A9;}
</style>
<g id="outline">
</g>
<g id="icon_x5F_bg">
</g>
<g id="color_x5F_action">
</g>
<g id="color_x5F_decoration">
</g>
<g id="color_x5F_importance">
</g>
<g id="icon_x5F_fg">
	<g>
		<path class="st0" d="M177.9,24c0,2.7-2.2,4.8-4.8,4.8c-2.7,0-4.8-2.2-4.8-4.8s2.2-4.8,4.8-4.8C175.7,19.2,177.9,21.4,177.9,24z"/>
		<path class="st0" d="M171.2,40.9c-0.2,0.2-0.4,0.4-0.7,0.6c-3.1,2.7-6.2,4.3-8.4,4.3c-0.6,0-1.1-0.1-1.4-0.3
			c-1.5-0.9-2.5-4.2-1.4-9.9c0.1-0.6,0.2-1.2,0.4-1.8c2.2,0.5,4.7,0.8,7.3,1c1.3,1.9,2.7,3.6,4.1,5.1l-0.1-0.8l1-1.7
			c-0.7-0.8-1.3-1.6-2-2.4c1,0,2.1,0.1,3.2,0.1c0.1,0,0.2,0,0.3,0l1.4-2.4c-0.6,0-1.1,0.1-1.7,0.1c-1.7,0-3.3-0.1-4.9-0.2
			c-0.9-1.3-1.8-2.8-2.7-4.2c-0.8-1.4-1.6-2.9-2.3-4.4c0.7-1.5,1.5-2.9,2.3-4.4c0.8-1.4,1.7-2.8,2.6-4.2c1.6-0.1,3.3-0.2,4.9-0.2
			c1.7,0,3.3,0.1,4.9,0.2c0.9,1.3,1.8,2.7,2.6,4.2c0.9,1.5,1.6,2.9,2.3,4.3c0,0,0,0,0,0h2.6c0,0,0,0,0,0c1.1-2.3,2-4.6,2.6-6.8
			c0.6,0.2,1.1,0.3,1.6,0.5c2.5,0.9,4.7,2,6.1,3.2c1.3,1.1,2,2.1,2,3c0,0,0,0,0,0h2.3c0,0,0,0,0,0c0-1.6-1-3.3-2.8-4.8
			c-1.7-1.4-4-2.6-6.8-3.6c-0.6-0.2-1.2-0.4-1.8-0.5c0.1-0.4,0.2-0.8,0.3-1.2c1.3-6.5,0.4-11.6-2.5-13.3C185.8,0.2,185,0,184.1,0
			c-2.7,0-6.1,1.7-9.6,4.7c-0.5,0.4-0.9,0.8-1.4,1.2c-0.3-0.3-0.6-0.6-0.9-0.8c-3.6-3.2-7.4-5.1-10.2-5.1c-1,0-1.8,0.2-2.5,0.6
			c-1.4,0.8-2.4,2.5-2.8,4.8c-0.4,2.1-0.3,4.8,0.3,7.7c0.1,0.6,0.3,1.2,0.4,1.8c-0.7,0.2-1.4,0.4-2,0.6c-5.9,2-9.4,5.2-9.4,8.4
			c0,1.7,1,3.4,2.8,5c1.7,1.5,4.2,2.8,7.1,3.8c0.5,0.2,1,0.3,1.5,0.5c-0.2,0.7-0.3,1.3-0.4,1.9c-1.2,6.1-0.2,10.7,2.6,12.3
			c0.7,0.4,1.6,0.6,2.6,0.6c2.7,0,6.2-1.6,9.5-4.5L171.2,40.9z M163.5,29.6c0.5,0.9,1.1,1.9,1.7,2.8c-1.8-0.2-3.4-0.5-5-0.8
			c0.5-1.5,1.1-3.1,1.8-4.8C162.5,27.7,163,28.7,163.5,29.6z M163.5,18.6c-0.5,0.9-1,1.9-1.5,2.8c-0.7-1.6-1.3-3.2-1.7-4.7
			c1.5-0.3,3.2-0.6,4.9-0.8C164.6,16.7,164,17.6,163.5,18.6z M184.1,21.4c-0.5-0.9-1-1.9-1.5-2.8c-0.5-0.9-1.1-1.8-1.7-2.7
			c1.7,0.2,3.4,0.5,4.9,0.9C185.4,18.2,184.8,19.8,184.1,21.4z M175.9,6.5c3-2.6,6-4.2,8.1-4.2c0.5,0,1,0.1,1.3,0.3
			c1.5,0.9,2.6,4.7,1.4,10.8c-0.1,0.3-0.2,0.7-0.3,1.1c-2.2-0.5-4.7-0.9-7.2-1.1c-1.5-2.1-3-4.1-4.6-5.7
			C175.1,7.2,175.5,6.8,175.9,6.5z M173.1,9.3c1.1,1.2,2.1,2.4,3.2,3.8c-1.1-0.1-2.1-0.1-3.2-0.1c-1.1,0-2.1,0-3.2,0.1
			C170.9,11.7,172,10.5,173.1,9.3z M159,5.9c0.3-1.6,0.9-2.8,1.7-3.2c0.4-0.2,0.8-0.3,1.4-0.3c2.2,0,5.5,1.7,8.6,4.5
			c0.3,0.2,0.5,0.5,0.8,0.8c-1.6,1.7-3.1,3.6-4.6,5.7c-2.5,0.2-5,0.6-7.2,1.1c-0.1-0.6-0.3-1.1-0.4-1.7
			C158.7,10.1,158.6,7.8,159,5.9z M158,31c-0.5-0.1-0.9-0.3-1.3-0.4c-5.7-2-8.3-4.8-8.3-6.6c0-1.7,2.4-4.3,7.8-6.2
			c0.6-0.2,1.2-0.4,1.9-0.6c0.7,2.2,1.6,4.5,2.6,6.8C159.6,26.4,158.7,28.8,158,31z"/>
		<g>
			<path class="st0" d="M181.1,26.1L173,39.6l3.8,22.4h4v-6h4l0,5.9l12,0.1v-6h4v6h4l3.1-22.6l-7.8-13.4H181.1z M200.9,52h-20l0,0
				l-2-12l4-6h6v2h4v-2h6l4,6L200.9,52z"/>
			<path class="st0" d="M186.4,48h-1c-0.3,0-0.5-0.2-0.5-0.5v-5c0-0.3,0.2-0.5,0.5-0.5h1c0.3,0,0.5,0.2,0.5,0.5v5
				C186.9,47.8,186.6,48,186.4,48z"/>
			<path class="st0" d="M196.4,48h-1c-0.3,0-0.5-0.2-0.5-0.5v-5c0-0.3,0.2-0.5,0.5-0.5h1c0.3,0,0.5,0.2,0.5,0.5v5
				C196.9,47.8,196.6,48,196.4,48z"/>
		</g>
	</g>
	<g>
		<g>
			<path class="st0" d="M126,33V17c0-0.5-0.5-1-1-1h-16c-0.5,0-1,0.5-1,1v3.3l8.7,5.2l1.4,2.7l1.4,5.7h5.5C125.5,34,126,33.5,126,33
				z"/>
			<path class="st0" d="M127,10h-20.1c-1.6,0-3,0.8-3.9,2v2.4c0.9,1.2,1.6,2.5,1.9,4.1l1.1,0.7V17c0-1.7,1.3-3,3-3h16
				c1.7,0,3,1.3,3,3v16c0,1.6-1.3,3-3,3h-5l0.2,0.8l-0.1,2.8l-0.2,0.4h7.1c2.7,0,5-2.2,5-5V15C132,12.2,129.7,10,127,10z"/>
		</g>
		<path class="st0" d="M96,13c-3.9,0-7,3.1-7,7c0,3.9,3.1,7,7,7s7-3.1,7-7C103,16.1,99.9,13,96,13z M96,23c-1.7,0-3-1.3-3-3
			s1.3-3,3-3s3,1.3,3,3S97.7,23,96,23z"/>
		<polygon class="st0" points="74,37 79,37 81,33 76,29 		"/>
		<path class="st0" d="M90.2,26.9c-1.8-1.5-2.9-3.6-3.2-6L87,21l-10,6l5,4L90.2,26.9z"/>
		<polygon class="st0" points="79,48 79,39 73.9,39 74,39 		"/>
		<polygon class="st0" points="118.1,37 113.2,37 111.2,33 116.2,29 		"/>
		<path class="st0" d="M101.9,26.9c1.8-1.5,2.9-3.6,3.2-6l0.1,0.2l10,6l-5,4L101.9,26.9z"/>
		<polygon class="st0" points="113,48 113,39 118.2,39 118.1,39 		"/>
		<path class="st0" d="M91,12.5c1.4-1,3.2-1.5,5-1.5s3.6,0.6,5,1.5V0H91V12.5z"/>
		<path class="st0" d="M133,4H113c-2.4,0-4.4,1.7-4.9,4H127c3.8,0,7,3.1,7,7v18.9c2.3-0.5,4-2.5,4-4.9V9C138,6.2,135.8,4,133,4z"/>
		<g>
			<path class="st0" d="M104,40H88c-0.5,0-1,0.5-1,1v16c0,0.5,0.5,1,1,1h16c0.5,0,1-0.5,1-1V41C105,40.5,104.5,40,104,40z"/>
			<path class="st0" d="M111,39c0-2.7-2.2-5-5-5H86c-2.7,0-5,2.2-5,5V59c0,2.7,2.2,5,5,5H106c2.7,0,5-2.2,5-5V39z M107,57
				c0,1.6-1.3,3-3,3H88c-1.6,0-3-1.4-3-3V41c0-1.7,1.4-3,3-3h16c1.7,0,3,1.3,3,3V57z"/>
		</g>
	</g>
	<g>
		<path class="st0" d="M58.8,21.8c-0.4-0.4-5.8-5.8-6.2-6.2c-6.4-6.4-10.4-6.7-12.2-5l-0.6,0.6L37,14.1L14.3,36.8l-3.6,3.6
			c-1.8,1.8-1.5,5.8,4.3,11.5c0.4,0.4,5.8,5.8,6.2,6.2c6.4,6.4,10.4,6.7,12.2,5l3.6-3.6l22.6-22.6l2.8-2.8l0.6-0.6
			C64.8,31.5,64.5,27.6,58.8,21.8z M53.2,19.1l1.4,1.4c0.4,0.4,0.4,1,0,1.4c-0.4,0.4-1,0.4-1.4,0l-1.4-1.4c-0.4-0.4-0.4-1,0-1.4
			S52.8,18.7,53.2,19.1z M32.7,60.8L12.9,41l28.3-28.3L61,32.5L32.7,60.8z"/>
		<polygon class="st0" points="29,26.3 35.8,33.4 37.9,31.3 31.8,23.4 		"/>
		<polygon class="st0" points="44.3,34.1 39.9,26.1 37.6,28.4 42.7,35.7 		"/>
		<polygon class="st0" points="39.1,32.9 37.2,34.8 39.4,37.1 41.1,35.4 		"/>
		<polygon class="st0" points="22.2,35.7 28.5,39.2 30.7,37 24.9,33 		"/>
		<polygon class="st0" points="32.5,38.2 30.5,40.2 34.8,42.6 36.5,40.9 		"/>
		<polygon class="st0" points="21.7,22.1 18.1,25.4 35.6,38.8 37.4,37 		"/>
		<polygon class="st0" points="18.7,33.8 21.6,30.8 7.7,21.3 3.5,25.5 		"/>
		<polygon class="st0" points="36.1,26.2 38.6,23.7 26.3,1.7 22.1,5.9 		"/>
		<polygon class="st0" points="26.1,23.2 29.2,20.1 15.6,2.4 10.8,7.2 		"/>
		<polygon class="st0" points="14.2,22.6 18.1,18.7 5.8,7.2 0.7,12.3 		"/>
	</g>
</g>
<g id="not_x5F_bg">
</g>
<g id="not_x5F_fg">
</g>
</svg>
