<?xml version="1.0" encoding="utf-8"?>
<!-- Generator: Adobe Illustrator 19.1.0, SVG Export Plug-In . SVG Version: 6.00 Build 0)  -->
<svg version="1.1" xmlns="http://www.w3.org/2000/svg" xmlns:xlink="http://www.w3.org/1999/xlink" x="0px" y="0px"
	 viewBox="0 0 192 64" style="enable-background:new 0 0 192 64;" xml:space="preserve">
<style type="text/css">
	.st0{fill:#1274A9;}
</style>
<g id="outline">
</g>
<g id="icon_x5F_bg">
</g>
<g id="color_x5F_action">
</g>
<g id="color_x5F_decoration">
</g>
<g id="color_x5F_importance">
</g>
<g id="icon_x5F_fg">
	<g>
		<path class="st0" d="M161.9,24c0,2.7-2.2,4.8-4.8,4.8c-2.7,0-4.8-2.2-4.8-4.8s2.2-4.8,4.8-4.8C159.7,19.2,161.9,21.4,161.9,24z"/>
		<path class="st0" d="M155.2,40.9c-0.2,0.2-0.4,0.4-0.7,0.6c-3.1,2.7-6.2,4.3-8.4,4.3c-0.6,0-1.1-0.1-1.4-0.3
			c-1.5-0.9-2.5-4.2-1.4-9.9c0.1-0.6,0.2-1.2,0.4-1.8c2.2,0.5,4.7,0.8,7.3,1c1.3,1.9,2.7,3.6,4.1,5.1l-0.1-0.8l1-1.7
			c-0.7-0.8-1.3-1.6-2-2.4c1,0,2.1,0.1,3.2,0.1c0.1,0,0.2,0,0.3,0l1.4-2.4c-0.6,0-1.1,0.1-1.7,0.1c-1.7,0-3.3-0.1-4.9-0.2
			c-0.9-1.3-1.8-2.8-2.7-4.2c-0.8-1.4-1.6-2.9-2.3-4.4c0.7-1.5,1.5-2.9,2.3-4.4c0.8-1.4,1.7-2.8,2.6-4.2c1.6-0.1,3.3-0.2,4.9-0.2
			c1.7,0,3.3,0.1,4.9,0.2c0.9,1.3,1.8,2.7,2.6,4.2c0.9,1.5,1.6,2.9,2.3,4.3c0,0,0,0,0,0h2.6c0,0,0,0,0,0c1.1-2.3,2-4.6,2.6-6.8
			c0.6,0.2,1.1,0.3,1.6,0.5c2.5,0.9,4.7,2,6.1,3.2c1.3,1.1,2,2.1,2,3c0,0,0,0,0,0h2.3c0,0,0,0,0,0c0-1.6-1-3.3-2.8-4.8
			c-1.7-1.4-4-2.6-6.8-3.6c-0.6-0.2-1.2-0.4-1.8-0.5c0.1-0.4,0.2-0.8,0.3-1.2c1.3-6.5,0.4-11.6-2.5-13.3C169.8,0.2,169,0,168.1,0
			c-2.7,0-6.1,1.7-9.6,4.7c-0.5,0.4-0.9,0.8-1.4,1.2c-0.3-0.3-0.6-0.6-0.9-0.8c-3.6-3.2-7.4-5.1-10.2-5.1c-1,0-1.8,0.2-2.5,0.6
			c-1.4,0.8-2.4,2.5-2.8,4.8c-0.4,2.1-0.3,4.8,0.3,7.7c0.1,0.6,0.3,1.2,0.4,1.8c-0.7,0.2-1.4,0.4-2,0.6c-5.9,2-9.4,5.2-9.4,8.4
			c0,1.7,1,3.4,2.8,5c1.7,1.5,4.2,2.8,7.1,3.8c0.5,0.2,1,0.3,1.5,0.5c-0.2,0.7-0.3,1.3-0.4,1.9c-1.2,6.1-0.2,10.7,2.6,12.3
			c0.7,0.4,1.6,0.6,2.6,0.6c2.7,0,6.2-1.6,9.5-4.5L155.2,40.9z M147.5,29.6c0.5,0.9,1.1,1.9,1.7,2.8c-1.8-0.2-3.4-0.5-5-0.8
			c0.5-1.5,1.1-3.1,1.8-4.8C146.5,27.7,147,28.7,147.5,29.6z M147.5,18.6c-0.5,0.9-1,1.9-1.5,2.8c-0.7-1.6-1.3-3.2-1.7-4.7
			c1.5-0.3,3.2-0.6,4.9-0.8C148.6,16.7,148.1,17.6,147.5,18.6z M168.2,21.4c-0.5-0.9-1-1.9-1.5-2.8c-0.5-0.9-1.1-1.8-1.7-2.7
			c1.7,0.2,3.4,0.5,4.9,0.9C169.4,18.2,168.8,19.8,168.2,21.4z M160,6.5c3-2.6,6-4.2,8.1-4.2c0.5,0,1,0.1,1.3,0.3
			c1.5,0.9,2.6,4.7,1.4,10.8c-0.1,0.3-0.2,0.7-0.3,1.1c-2.2-0.5-4.7-0.9-7.2-1.1c-1.5-2.1-3-4.1-4.6-5.7
			C159.1,7.2,159.6,6.8,160,6.5z M157.1,9.3c1.1,1.2,2.1,2.4,3.2,3.8c-1.1-0.1-2.1-0.1-3.2-0.1c-1.1,0-2.1,0-3.2,0.1
			C154.9,11.7,156,10.5,157.1,9.3z M143,5.9c0.3-1.6,0.9-2.8,1.7-3.2c0.4-0.2,0.8-0.3,1.4-0.3c2.2,0,5.5,1.7,8.6,4.5
			c0.3,0.2,0.5,0.5,0.8,0.8c-1.6,1.7-3.1,3.6-4.6,5.7c-2.5,0.2-5,0.6-7.2,1.1c-0.1-0.6-0.3-1.1-0.4-1.7
			C142.8,10.1,142.7,7.8,143,5.9z M142,31c-0.5-0.1-0.9-0.3-1.3-0.4c-5.7-2-8.3-4.8-8.3-6.6c0-1.7,2.4-4.3,7.8-6.2
			c0.6-0.2,1.2-0.4,1.9-0.6c0.7,2.2,1.6,4.5,2.6,6.8C143.6,26.4,142.7,28.8,142,31z"/>
		<g>
			<path class="st0" d="M165.1,26.1L157,39.6l3.8,22.4h4v-6h4l0,5.9l12,0.1v-6h4v6h4l3.1-22.6l-7.8-13.4H165.1z M184.9,52h-20l0,0
				l-2-12l4-6h6v2h4v-2h6l4,6L184.9,52z"/>
			<path class="st0" d="M170.4,48h-1c-0.3,0-0.5-0.2-0.5-0.5v-5c0-0.3,0.2-0.5,0.5-0.5h1c0.3,0,0.5,0.2,0.5,0.5v5
				C170.9,47.8,170.7,48,170.4,48z"/>
			<path class="st0" d="M180.4,48h-1c-0.3,0-0.5-0.2-0.5-0.5v-5c0-0.3,0.2-0.5,0.5-0.5h1c0.3,0,0.5,0.2,0.5,0.5v5
				C180.9,47.8,180.7,48,180.4,48z"/>
		</g>
	</g>
	<g>
		<g>
			<path class="st0" d="M116,33V17c0-0.5-0.4-1-0.9-1h-16c-0.5,0-1.1,0.5-1.1,1v3.3l8.7,5.2l1.4,2.7l1.4,5.7h5.5
				C115.6,34,116,33.5,116,33z"/>
			<path class="st0" d="M117,10H97c-1.6,0-3,0.8-4,2v2.4c1,1.2,1.6,2.5,1.9,4.1l1.1,0.7V17c0-1.7,1.4-3,3.1-3h16
				c1.7,0,2.9,1.3,2.9,3v16c0,1.6-1.3,3-2.9,3h-5l0.2,0.8l-0.1,2.8l-0.2,0.4h7.1c2.7,0,5-2.2,5-5V15C122,12.2,119.8,10,117,10z"/>
		</g>
		<path class="st0" d="M86.4,13c-3.9,0-7,3.1-7,7c0,3.9,3.1,7,7,7s7-3.1,7-7C93.4,16.1,90.2,13,86.4,13z M86.4,23c-1.7,0-3-1.3-3-3
			s1.3-3,3-3s3,1.3,3,3S88,23,86.4,23z"/>
		<polygon class="st0" points="64.1,37 69.1,37 71.1,33 66.1,29 		"/>
		<path class="st0" d="M80.3,26.9c-1.8-1.5-2.9-3.6-3.2-6L77.1,21l-10,6l5,4L80.3,26.9z"/>
		<polygon class="st0" points="69,48 69,39 64,39 64,39 		"/>
		<polygon class="st0" points="108.2,37 103.2,37 101.2,33 106.2,29 		"/>
		<path class="st0" d="M92,26.9c1.8-1.5,2.9-3.6,3.2-6l0.1,0.2l10,6l-5,4L92,26.9z"/>
		<polygon class="st0" points="103,48 103,39 108.3,39 108.1,39 		"/>
		<path class="st0" d="M81,12.5c1-1,3.2-1.5,5-1.5s4,0.6,5,1.5V0H81V12.5z"/>
		<path class="st0" d="M123.1,4H103c-2.4,0-4.4,1.7-4.9,4h18.9c3.8,0,6.9,3.1,6.9,7v18.9c2-0.5,4-2.5,4-4.9V9
			C128,6.2,125.8,4,123.1,4z"/>
		<g>
			<path class="st0" d="M95,41c0-0.6-0.4-1-1-1H78c-0.6,0-1,0.4-1,1v16c0,0.6,0.4,1,1,1h16c0.6,0,1-0.4,1-1V41z"/>
			<path class="st0" d="M101,39c0-2.7-2.2-5-5-5H76c-2.7,0-5,2.2-5,5V59c0,2.7,2.2,5,5,5H96c2.7,0,5-2.2,5-5V39z M97,57
				c0,1.7-1.3,3-3,3H78c-1.7,0-3-1.3-3-3V41c0-1.7,1.3-3,3-3h16c1.7,0,3,1.3,3,3V57z"/>
		</g>
	</g>
	<g>
		<path class="st0" d="M58,21.8c-0.4-0.4-5.8-5.8-6.2-6.2c-6.4-6.4-10.4-6.7-12.2-5L39,11.3l-2.8,2.8L13.6,36.8l-3.6,3.6
			c-1.8,1.8-1.5,5.8,4.3,11.5c0.4,0.4,5.8,5.8,6.2,6.2c6.4,6.4,10.4,6.7,12.2,5l3.6-3.6l22.6-22.6l2.8-2.8l0.6-0.6
			C64.1,31.5,63.8,27.6,58,21.8z M52.5,19.1l1.4,1.4c0.4,0.4,0.4,1,0,1.4c-0.4,0.4-1,0.4-1.4,0l-1.4-1.4c-0.4-0.4-0.4-1,0-1.4
			S52.1,18.7,52.5,19.1z M32,60.8L12.2,41l28.3-28.3l19.8,19.8L32,60.8z"/>
		<polygon class="st0" points="28.2,26.3 35.1,33.4 37.2,31.3 31.1,23.4 		"/>
		<polygon class="st0" points="43.6,34.1 39.2,26.1 36.9,28.4 41.9,35.7 		"/>
		<polygon class="st0" points="38.4,32.9 36.4,34.8 38.6,37.1 40.3,35.4 		"/>
		<polygon class="st0" points="21.4,35.7 27.8,39.2 30,37 24.1,33 		"/>
		<polygon class="st0" points="31.7,38.2 29.7,40.2 34.1,42.6 35.8,40.9 		"/>
		<polygon class="st0" points="20.9,22.1 17.3,25.4 34.8,38.8 36.7,37 		"/>
		<polygon class="st0" points="17.9,33.8 20.9,30.8 7,21.3 2.8,25.5 		"/>
		<polygon class="st0" points="35.4,26.2 37.8,23.7 25.6,1.7 21.3,5.9 		"/>
		<polygon class="st0" points="25.3,23.2 28.5,20.1 14.8,2.4 10,7.2 		"/>
		<polygon class="st0" points="13.5,22.6 17.3,18.7 5.1,7.2 0,12.3 		"/>
	</g>
</g>
<g id="not_x5F_bg">
</g>
<g id="not_x5F_fg">
</g>
</svg>
