<?xml version="1.0" encoding="utf-8"?>
<!-- Generator: Adobe Illustrator 19.1.0, SVG Export Plug-In . SVG Version: 6.00 Build 0)  -->
<svg version="1.1" xmlns="http://www.w3.org/2000/svg" xmlns:xlink="http://www.w3.org/1999/xlink" x="0px" y="0px"
	 viewBox="0 0 64 64" style="enable-background:new 0 0 64 64;" xml:space="preserve">
<style type="text/css">
	.st0{fill:#1274A9;}
</style>
<g id="outline">
</g>
<g id="icon_x5F_bg">
</g>
<g id="color_x5F_action">
</g>
<g id="color_x5F_decoration">
</g>
<g id="color_x5F_importance">
</g>
<g id="icon_x5F_fg">
	<g>
		<path class="st0" d="M103.9,24c0,2.7-2.2,4.8-4.8,4.8c-2.7,0-4.8-2.2-4.8-4.8s2.2-4.8,4.8-4.8C101.7,19.2,103.9,21.4,103.9,24z"/>
		<path class="st0" d="M97.2,40.9c-0.2,0.2-0.4,0.4-0.7,0.6c-3.1,2.7-6.2,4.3-8.4,4.3c-0.6,0-1.1-0.1-1.4-0.3
			c-1.5-0.9-2.5-4.2-1.4-9.9c0.1-0.6,0.2-1.2,0.4-1.8c2.2,0.5,4.7,0.8,7.3,1c1.3,1.9,2.7,3.6,4.1,5.1l-0.1-0.8l1-1.7
			c-0.7-0.8-1.3-1.6-2-2.4c1,0,2.1,0.1,3.2,0.1c0.1,0,0.2,0,0.3,0l1.4-2.4c-0.6,0-1.1,0.1-1.7,0.1c-1.7,0-3.3-0.1-4.9-0.2
			c-0.9-1.3-1.8-2.8-2.7-4.2c-0.8-1.4-1.6-2.9-2.3-4.4c0.7-1.5,1.5-2.9,2.3-4.4c0.8-1.4,1.7-2.8,2.6-4.2c1.6-0.1,3.3-0.2,4.9-0.2
			c1.7,0,3.3,0.1,4.9,0.2c0.9,1.3,1.8,2.7,2.6,4.2c0.9,1.5,1.6,2.9,2.3,4.3c0,0,0,0,0,0h2.6c0,0,0,0,0,0c1.1-2.3,2-4.6,2.6-6.8
			c0.6,0.2,1.1,0.3,1.6,0.5c2.5,0.9,4.7,2,6.1,3.2c1.3,1.1,2,2.1,2,3c0,0,0,0,0,0h2.3c0,0,0,0,0,0c0-1.6-1-3.3-2.8-4.8
			c-1.7-1.4-4-2.6-6.8-3.6c-0.6-0.2-1.2-0.4-1.8-0.5c0.1-0.4,0.2-0.8,0.3-1.2c1.3-6.5,0.4-11.6-2.5-13.3C111.8,0.2,111,0,110.1,0
			c-2.7,0-6.1,1.7-9.6,4.7C100,5.1,99.5,5.5,99.1,6c-0.3-0.3-0.6-0.6-0.9-0.8C94.5,1.9,90.8,0.1,88,0.1c-1,0-1.8,0.2-2.5,0.6
			c-1.4,0.8-2.4,2.5-2.8,4.8c-0.4,2.1-0.3,4.8,0.3,7.7c0.1,0.6,0.3,1.2,0.4,1.8c-0.7,0.2-1.4,0.4-2,0.6c-5.9,2-9.4,5.2-9.4,8.4
			c0,1.7,1,3.4,2.8,5c1.7,1.5,4.2,2.8,7.1,3.8c0.5,0.2,1,0.3,1.5,0.5c-0.2,0.7-0.3,1.3-0.4,1.9c-1.2,6.1-0.2,10.7,2.6,12.3
			c0.7,0.4,1.6,0.6,2.6,0.6c2.7,0,6.2-1.6,9.5-4.5L97.2,40.9z M89.5,29.6c0.5,0.9,1.1,1.9,1.7,2.8c-1.8-0.2-3.4-0.5-5-0.8
			c0.5-1.5,1.1-3.1,1.8-4.8C88.5,27.7,89,28.7,89.5,29.6z M89.5,18.6c-0.5,0.9-1,1.9-1.5,2.8c-0.7-1.6-1.3-3.2-1.7-4.7
			c1.5-0.3,3.2-0.6,4.9-0.8C90.6,16.7,90,17.6,89.5,18.6z M110.1,21.4c-0.5-0.9-1-1.9-1.5-2.8c-0.5-0.9-1.1-1.8-1.7-2.7
			c1.7,0.2,3.4,0.5,4.9,0.9C111.4,18.2,110.8,19.8,110.1,21.4z M101.9,6.5c3-2.6,6-4.2,8.1-4.2c0.5,0,1,0.1,1.3,0.3
			c1.5,0.9,2.6,4.7,1.4,10.8c-0.1,0.3-0.2,0.7-0.3,1.1c-2.2-0.5-4.7-0.9-7.2-1.1c-1.5-2.1-3-4.1-4.6-5.7
			C101.1,7.2,101.5,6.8,101.9,6.5z M99.1,9.3c1.1,1.2,2.1,2.4,3.2,3.8c-1.1-0.1-2.1-0.1-3.2-0.1c-1.1,0-2.1,0-3.2,0.1
			C96.9,11.7,98,10.5,99.1,9.3z M85,5.9c0.3-1.6,0.9-2.8,1.7-3.2C87,2.5,87.4,2.4,88,2.4c2.2,0,5.5,1.7,8.6,4.5
			c0.3,0.2,0.5,0.5,0.8,0.8c-1.6,1.7-3.1,3.6-4.6,5.7c-2.5,0.2-5,0.6-7.2,1.1c-0.1-0.6-0.3-1.1-0.4-1.7C84.7,10.1,84.6,7.8,85,5.9z
			 M84,31c-0.5-0.1-0.9-0.3-1.3-0.4c-5.7-2-8.3-4.8-8.3-6.6c0-1.7,2.4-4.3,7.8-6.2c0.6-0.2,1.2-0.4,1.9-0.6c0.7,2.2,1.6,4.5,2.6,6.8
			C85.6,26.4,84.7,28.8,84,31z"/>
		<g>
			<path class="st0" d="M107.1,26.1L99,39.6l3.8,22.4h4v-6h4l0,5.9l12,0.1v-6h4v6h4l3.1-22.6l-7.8-13.4H107.1z M126.9,52h-20l0,0
				l-2-12l4-6h6v2h4v-2h6l4,6L126.9,52z"/>
			<path class="st0" d="M112.4,48h-1c-0.3,0-0.5-0.2-0.5-0.5v-5c0-0.3,0.2-0.5,0.5-0.5h1c0.3,0,0.5,0.2,0.5,0.5v5
				C112.9,47.8,112.6,48,112.4,48z"/>
			<path class="st0" d="M122.4,48h-1c-0.3,0-0.5-0.2-0.5-0.5v-5c0-0.3,0.2-0.5,0.5-0.5h1c0.3,0,0.5,0.2,0.5,0.5v5
				C122.9,47.8,122.6,48,122.4,48z"/>
		</g>
	</g>
	<g>
		<g>
			<path class="st0" d="M52,33V17c0-0.5-0.5-1-1-1H35c-0.5,0-1,0.5-1,1v3.3l8.7,5.2l1.4,2.7l1.4,5.7H51C51.5,34,52,33.5,52,33z"/>
			<path class="st0" d="M53,10H32.9c-1.6,0-3,0.8-3.9,2v2.4c0.9,1.2,1.6,2.5,1.9,4.1l1.1,0.7V17c0-1.7,1.3-3,3-3h16c1.7,0,3,1.3,3,3
				v16c0,1.6-1.3,3-3,3h-5l0.2,0.8l-0.1,2.8L45.8,40H53c2.7,0,5-2.2,5-5V15C58,12.2,55.7,10,53,10z"/>
		</g>
		<path class="st0" d="M22,13c-3.9,0-7,3.1-7,7c0,3.9,3.1,7,7,7s7-3.1,7-7C29,16.1,25.9,13,22,13z M22,23c-1.7,0-3-1.3-3-3
			s1.3-3,3-3s3,1.3,3,3S23.7,23,22,23z"/>
		<polygon class="st0" points="0,37 5,37 7,33 2,29 		"/>
		<path class="st0" d="M16.2,26.9c-1.8-1.5-2.9-3.6-3.2-6L13,21L3,27l5,4L16.2,26.9z"/>
		<polygon class="st0" points="5,48 5,39 -0.1,39 0,39 		"/>
		<polygon class="st0" points="44.1,37 39.2,37 37.2,33 42.2,29 		"/>
		<path class="st0" d="M27.9,26.9c1.8-1.5,2.9-3.6,3.2-6l0.1,0.2l10,6l-5,4L27.9,26.9z"/>
		<polygon class="st0" points="39,48 39,39 44.2,39 44.1,39 		"/>
		<path class="st0" d="M17,12.5c1.4-1,3.2-1.5,5-1.5s3.6,0.6,5,1.5V0H17V12.5z"/>
		<path class="st0" d="M59,4H39c-2.4,0-4.4,1.7-4.9,4H53c3.8,0,7,3.1,7,7v18.9c2.3-0.5,4-2.5,4-4.9V9C64,6.2,61.8,4,59,4z"/>
		<g>
			<path class="st0" d="M30,40H14c-0.5,0-1,0.5-1,1v16c0,0.5,0.5,1,1,1h16c0.5,0,1-0.5,1-1V41C31,40.5,30.5,40,30,40z"/>
			<path class="st0" d="M37,39c0-2.7-2.2-5-5-5H12c-2.7,0-5,2.2-5,5V59c0,2.7,2.2,5,5,5H32c2.7,0,5-2.2,5-5V39z M33,57
				c0,1.6-1.3,3-3,3H14c-1.6,0-3-1.4-3-3V41c0-1.7,1.4-3,3-3h16c1.7,0,3,1.3,3,3V57z"/>
		</g>
	</g>
	<g>
		<path class="st0" d="M-15.2,21.8c-0.4-0.4-5.8-5.8-6.2-6.2c-6.4-6.4-10.4-6.7-12.2-5l-0.6,0.6l-2.8,2.8l-22.6,22.6l-3.6,3.6
			c-1.8,1.8-1.5,5.8,4.3,11.5c0.4,0.4,5.8,5.8,6.2,6.2c6.4,6.4,10.4,6.7,12.2,5l3.6-3.6l22.6-22.6l2.8-2.8l0.6-0.6
			C-9.2,31.5-9.5,27.6-15.2,21.8z M-20.8,19.1l1.4,1.4c0.4,0.4,0.4,1,0,1.4c-0.4,0.4-1,0.4-1.4,0l-1.4-1.4c-0.4-0.4-0.4-1,0-1.4
			C-21.8,18.7-21.2,18.7-20.8,19.1z M-41.3,60.8L-61.1,41l28.3-28.3L-13,32.5L-41.3,60.8z"/>
		<polygon class="st0" points="-45,26.3 -38.2,33.4 -36.1,31.3 -42.2,23.4 		"/>
		<polygon class="st0" points="-29.7,34.1 -34.1,26.1 -36.4,28.4 -31.3,35.7 		"/>
		<polygon class="st0" points="-34.9,32.9 -36.8,34.8 -34.6,37.1 -32.9,35.4 		"/>
		<polygon class="st0" points="-51.8,35.7 -45.5,39.2 -43.3,37 -49.1,33 		"/>
		<polygon class="st0" points="-41.5,38.2 -43.5,40.2 -39.2,42.6 -37.5,40.9 		"/>
		<polygon class="st0" points="-52.3,22.1 -55.9,25.4 -38.4,38.8 -36.6,37 		"/>
		<polygon class="st0" points="-55.3,33.8 -52.4,30.8 -66.3,21.3 -70.5,25.5 		"/>
		<polygon class="st0" points="-37.9,26.2 -35.4,23.7 -47.7,1.7 -51.9,5.9 		"/>
		<polygon class="st0" points="-47.9,23.2 -44.8,20.1 -58.4,2.4 -63.2,7.2 		"/>
		<polygon class="st0" points="-59.8,22.6 -55.9,18.7 -68.2,7.2 -73.3,12.3 		"/>
	</g>
</g>
<g id="not_x5F_bg">
</g>
<g id="not_x5F_fg">
</g>
</svg>
