<?xml version="1.0" encoding="utf-8"?>
<!-- Generator: Adobe Illustrator 19.1.0, SVG Export Plug-In . SVG Version: 6.00 Build 0)  -->
<svg version="1.1" xmlns="http://www.w3.org/2000/svg" xmlns:xlink="http://www.w3.org/1999/xlink" x="0px" y="0px"
	 viewBox="0 0 64 64" style="enable-background:new 0 0 64 64;" xml:space="preserve">
<style type="text/css">
	.st0{fill:#1274A9;}
</style>
<g id="outline">
</g>
<g id="icon_x5F_bg">
</g>
<g id="color_x5F_action">
</g>
<g id="color_x5F_decoration">
</g>
<g id="color_x5F_importance">
</g>
<g id="icon_x5F_fg">
	<g>
		<path class="st0" d="M31.9,24c0,2.7-2.2,4.8-4.8,4.8s-4.8-2.2-4.8-4.8s2.2-4.8,4.8-4.8S31.9,21.4,31.9,24z"/>
		<path class="st0" d="M25.2,40.9c-0.2,0.2-0.4,0.4-0.7,0.6c-3.1,2.7-6.2,4.3-8.4,4.3c-0.6,0-1.1-0.1-1.4-0.3
			c-1.5-0.9-2.5-4.2-1.4-9.9c0.1-0.6,0.2-1.2,0.4-1.8c2.2,0.5,4.7,0.8,7.3,1c1.3,1.9,2.7,3.6,4.1,5.1l-0.1-0.8l1-1.7
			c-0.7-0.8-1.3-1.6-2-2.4c1,0,2.1,0.1,3.2,0.1c0.1,0,0.2,0,0.3,0l1.4-2.4c-0.6,0-1.1,0.1-1.7,0.1c-1.7,0-3.3-0.1-4.9-0.2
			c-0.9-1.3-1.8-2.8-2.7-4.2c-0.8-1.4-1.6-2.9-2.3-4.4c0.7-1.5,1.5-2.9,2.3-4.4c0.8-1.4,1.7-2.8,2.6-4.2c1.6-0.1,3.3-0.2,4.9-0.2
			c1.7,0,3.3,0.1,4.9,0.2c0.9,1.3,1.8,2.7,2.6,4.2c0.9,1.5,1.6,2.9,2.3,4.3c0,0,0,0,0,0h2.6c0,0,0,0,0,0c1.1-2.3,2-4.6,2.6-6.8
			c0.6,0.2,1.1,0.3,1.6,0.5c2.5,0.9,4.7,2,6.1,3.2c1.3,1.1,2,2.1,2,3c0,0,0,0,0,0h2.3c0,0,0,0,0,0c0-1.6-1-3.3-2.8-4.8
			c-1.7-1.4-4-2.6-6.8-3.6c-0.6-0.2-1.2-0.4-1.8-0.5c0.1-0.4,0.2-0.8,0.3-1.2c1.3-6.5,0.4-11.6-2.5-13.3C39.8,0.2,39,0,38.1,0
			c-2.7,0-6.1,1.7-9.6,4.7C28,5.1,27.5,5.5,27.1,6c-0.3-0.3-0.6-0.6-0.9-0.8C22.5,1.9,18.8,0.1,16,0.1c-1,0-1.8,0.2-2.5,0.6
			c-1.4,0.8-2.4,2.5-2.8,4.8c-0.4,2.1-0.3,4.8,0.3,7.7c0.1,0.6,0.3,1.2,0.4,1.8c-0.7,0.2-1.4,0.4-2,0.6C3.5,17.7,0,20.8,0,24
			c0,1.7,1,3.4,2.8,5c1.7,1.5,4.2,2.8,7.1,3.8c0.5,0.2,1,0.3,1.5,0.5c-0.2,0.7-0.3,1.3-0.4,1.9c-1.2,6.1-0.2,10.7,2.6,12.3
			c0.7,0.4,1.6,0.6,2.6,0.6c2.7,0,6.2-1.6,9.5-4.5L25.2,40.9z M17.5,29.6c0.5,0.9,1.1,1.9,1.7,2.8c-1.8-0.2-3.4-0.5-5-0.8
			c0.5-1.5,1.1-3.1,1.8-4.8C16.5,27.7,17,28.7,17.5,29.6z M17.5,18.6c-0.5,0.9-1,1.9-1.5,2.8c-0.7-1.6-1.3-3.2-1.7-4.7
			c1.5-0.3,3.2-0.6,4.9-0.8C18.6,16.7,18,17.6,17.5,18.6z M38.1,21.4c-0.5-0.9-1-1.9-1.5-2.8c-0.5-0.9-1.1-1.8-1.7-2.7
			c1.7,0.2,3.4,0.5,4.9,0.9C39.4,18.2,38.8,19.8,38.1,21.4z M29.9,6.5c3-2.6,6-4.2,8.1-4.2c0.5,0,1,0.1,1.3,0.3
			c1.5,0.9,2.6,4.7,1.4,10.8c-0.1,0.3-0.2,0.7-0.3,1.1c-2.2-0.5-4.7-0.9-7.2-1.1c-1.5-2.1-3-4.1-4.6-5.7C29.1,7.2,29.5,6.8,29.9,6.5
			z M27.1,9.3c1.1,1.2,2.1,2.4,3.2,3.8c-1.1-0.1-2.1-0.1-3.2-0.1c-1.1,0-2.1,0-3.2,0.1C24.9,11.7,26,10.5,27.1,9.3z M13,5.9
			c0.3-1.6,0.9-2.8,1.7-3.2C15,2.5,15.4,2.4,16,2.4c2.2,0,5.5,1.7,8.6,4.5c0.3,0.2,0.5,0.5,0.8,0.8c-1.6,1.7-3.1,3.6-4.6,5.7
			c-2.5,0.2-5,0.6-7.2,1.1c-0.1-0.6-0.3-1.1-0.4-1.7C12.7,10.1,12.6,7.8,13,5.9z M12,31c-0.5-0.1-0.9-0.3-1.3-0.4
			c-5.7-2-8.3-4.8-8.3-6.6c0-1.7,2.4-4.3,7.8-6.2c0.6-0.2,1.2-0.4,1.9-0.6c0.7,2.2,1.6,4.5,2.6,6.8C13.6,26.4,12.7,28.8,12,31z"/>
		<g>
			<path class="st0" d="M35.1,26.1L27,39.6L30.9,62h4v-6h4l0,5.9l12,0.1v-6h4v6h4L62,39.5l-7.8-13.4H35.1z M54.9,52h-20l0,0l-2-12
				l4-6h6v2h4v-2h6l4,6L54.9,52z"/>
			<path class="st0" d="M40.4,48h-1c-0.3,0-0.5-0.2-0.5-0.5v-5c0-0.3,0.2-0.5,0.5-0.5h1c0.3,0,0.5,0.2,0.5,0.5v5
				C40.9,47.8,40.6,48,40.4,48z"/>
			<path class="st0" d="M50.4,48h-1c-0.3,0-0.5-0.2-0.5-0.5v-5c0-0.3,0.2-0.5,0.5-0.5h1c0.3,0,0.5,0.2,0.5,0.5v5
				C50.9,47.8,50.6,48,50.4,48z"/>
		</g>
	</g>
	<g>
		<g>
			<path class="st0" d="M-20,33V17c0-0.5-0.5-1-1-1h-16c-0.5,0-1,0.5-1,1v3.3l8.7,5.2l1.4,2.7l1.4,5.7h5.5C-20.5,34-20,33.5-20,33z"
				/>
			<path class="st0" d="M-19,10h-20.1c-1.6,0-3,0.8-3.9,2v2.4c0.9,1.2,1.6,2.5,1.9,4.1l1.1,0.7V17c0-1.7,1.3-3,3-3h16
				c1.7,0,3,1.3,3,3v16c0,1.6-1.3,3-3,3h-5l0.2,0.8l-0.1,2.8l-0.2,0.4h7.1c2.7,0,5-2.2,5-5V15C-14,12.2-16.3,10-19,10z"/>
		</g>
		<path class="st0" d="M-50,13c-3.9,0-7,3.1-7,7c0,3.9,3.1,7,7,7s7-3.1,7-7C-43,16.1-46.1,13-50,13z M-50,23c-1.7,0-3-1.3-3-3
			s1.3-3,3-3s3,1.3,3,3S-48.3,23-50,23z"/>
		<polygon class="st0" points="-72,37 -67,37 -65,33 -70,29 		"/>
		<path class="st0" d="M-55.8,26.9c-1.8-1.5-2.9-3.6-3.2-6L-59,21l-10,6l5,4L-55.8,26.9z"/>
		<polygon class="st0" points="-67,48 -67,39 -72.1,39 -72,39 		"/>
		<polygon class="st0" points="-27.9,37 -32.8,37 -34.8,33 -29.8,29 		"/>
		<path class="st0" d="M-44.1,26.9c1.8-1.5,2.9-3.6,3.2-6l0.1,0.2l10,6l-5,4L-44.1,26.9z"/>
		<polygon class="st0" points="-33,48 -33,39 -27.8,39 -27.9,39 		"/>
		<path class="st0" d="M-55,12.5c1.4-1,3.2-1.5,5-1.5s3.6,0.6,5,1.5V0h-10V12.5z"/>
		<path class="st0" d="M-13,4H-33c-2.4,0-4.4,1.7-4.9,4H-19c3.8,0,7,3.1,7,7v18.9c2.3-0.5,4-2.5,4-4.9V9C-8,6.2-10.2,4-13,4z"/>
		<g>
			<path class="st0" d="M-42,40h-16c-0.5,0-1,0.5-1,1v16c0,0.5,0.5,1,1,1h16c0.5,0,1-0.5,1-1V41C-41,40.5-41.5,40-42,40z"/>
			<path class="st0" d="M-35,39c0-2.7-2.2-5-5-5H-60c-2.7,0-5,2.2-5,5V59c0,2.7,2.2,5,5,5H-40c2.7,0,5-2.2,5-5V39z M-39,57
				c0,1.6-1.3,3-3,3h-16c-1.6,0-3-1.4-3-3V41c0-1.7,1.4-3,3-3h16c1.7,0,3,1.3,3,3V57z"/>
		</g>
	</g>
	<g>
		<path class="st0" d="M-87.2,21.8c-0.4-0.4-5.8-5.8-6.2-6.2c-6.4-6.4-10.4-6.7-12.2-5l-0.6,0.6l-2.8,2.8l-22.6,22.6l-3.6,3.6
			c-1.8,1.8-1.5,5.8,4.3,11.5c0.4,0.4,5.8,5.8,6.2,6.2c6.4,6.4,10.4,6.7,12.2,5l3.6-3.6l22.6-22.6l2.8-2.8l0.6-0.6
			C-81.2,31.5-81.5,27.6-87.2,21.8z M-92.8,19.1l1.4,1.4c0.4,0.4,0.4,1,0,1.4c-0.4,0.4-1,0.4-1.4,0l-1.4-1.4c-0.4-0.4-0.4-1,0-1.4
			C-93.8,18.7-93.2,18.7-92.8,19.1z M-113.3,60.8L-133.1,41l28.3-28.3L-85,32.5L-113.3,60.8z"/>
		<polygon class="st0" points="-117,26.3 -110.2,33.4 -108.1,31.3 -114.2,23.4 		"/>
		<polygon class="st0" points="-101.7,34.1 -106.1,26.1 -108.4,28.4 -103.3,35.7 		"/>
		<polygon class="st0" points="-106.9,32.9 -108.8,34.8 -106.6,37.1 -104.9,35.4 		"/>
		<polygon class="st0" points="-123.8,35.7 -117.5,39.2 -115.3,37 -121.1,33 		"/>
		<polygon class="st0" points="-113.5,38.2 -115.5,40.2 -111.2,42.6 -109.5,40.9 		"/>
		<polygon class="st0" points="-124.3,22.1 -127.9,25.4 -110.4,38.8 -108.6,37 		"/>
		<polygon class="st0" points="-127.3,33.8 -124.4,30.8 -138.3,21.3 -142.5,25.5 		"/>
		<polygon class="st0" points="-109.9,26.2 -107.4,23.7 -119.7,1.7 -123.9,5.9 		"/>
		<polygon class="st0" points="-119.9,23.2 -116.8,20.1 -130.4,2.4 -135.2,7.2 		"/>
		<polygon class="st0" points="-131.8,22.6 -127.9,18.7 -140.2,7.2 -145.3,12.3 		"/>
	</g>
</g>
<g id="not_x5F_bg">
</g>
<g id="not_x5F_fg">
</g>
</svg>
