<svg xmlns="http://www.w3.org/2000/svg" viewBox="0 0 64 64"><style>.st0{fill:#1274A9;}</style><g id="icon_x5F_fg"><path class="st0" d="M177.9 24c0 2.7-2.2 4.8-4.8 4.8-2.7 0-4.8-2.2-4.8-4.8s2.2-4.8 4.8-4.8c2.6 0 4.8 2.2 4.8 4.8z"/><path class="st0" d="M171.2 40.9c-.2.2-.4.4-.7.6-3.1 2.7-6.2 4.3-8.4 4.3-.6 0-1.1-.1-1.4-.3-1.5-.9-2.5-4.2-1.4-9.9.1-.6.2-1.2.4-1.8 2.2.5 4.7.8 7.3 1 1.3 1.9 2.7 3.6 4.1 5.1l-.1-.8 1-1.7c-.7-.8-1.3-1.6-2-2.4 1 0 2.1.1 3.2.1h.3l1.4-2.4c-.6 0-1.1.1-1.7.1-1.7 0-3.3-.1-4.9-.2-.9-1.3-1.8-2.8-2.7-4.2-.8-1.4-1.6-2.9-2.3-4.4.7-1.5 1.5-2.9 2.3-4.4.8-1.4 1.7-2.8 2.6-4.2 1.6-.1 3.3-.2 4.9-.2 1.7 0 3.3.1 4.9.2.9 1.3 1.8 2.7 2.6 4.2.9 1.5 1.6 2.9 2.3 4.3h2.6c1.1-2.3 2-4.6 2.6-6.8.6.2 1.1.3 1.6.5 2.5.9 4.7 2 6.1 3.2 1.3 1.1 2 2.1 2 3h2.3c0-1.6-1-3.3-2.8-4.8-1.7-1.4-4-2.6-6.8-3.6-.6-.2-1.2-.4-1.8-.5l.3-1.2c1.3-6.5.4-11.6-2.5-13.3-.7-.2-1.5-.4-2.4-.4-2.7 0-6.1 1.7-9.6 4.7-.5.4-.9.8-1.4 1.2-.3-.3-.6-.6-.9-.8C168.6 1.9 164.8 0 162 0c-1 0-1.8.2-2.5.6-1.4.8-2.4 2.5-2.8 4.8-.4 2.1-.3 4.8.3 7.7.1.6.3 1.2.4 1.8-.7.2-1.4.4-2 .6-5.9 2-9.4 5.2-9.4 8.4 0 1.7 1 3.4 2.8 5 1.7 1.5 4.2 2.8 7.1 3.8.5.2 1 .3 1.5.5-.2.7-.3 1.3-.4 1.9-1.2 6.1-.2 10.7 2.6 12.3.7.4 1.6.6 2.6.6 2.7 0 6.2-1.6 9.5-4.5l-.5-2.6zm-7.7-11.3c.5.9 1.1 1.9 1.7 2.8-1.8-.2-3.4-.5-5-.8.5-1.5 1.1-3.1 1.8-4.8.5.9 1 1.9 1.5 2.8zm0-11c-.5.9-1 1.9-1.5 2.8-.7-1.6-1.3-3.2-1.7-4.7 1.5-.3 3.2-.6 4.9-.8-.6.8-1.2 1.7-1.7 2.7zm20.6 2.8c-.5-.9-1-1.9-1.5-2.8-.5-.9-1.1-1.8-1.7-2.7 1.7.2 3.4.5 4.9.9-.4 1.4-1 3-1.7 4.6zm-8.2-14.9c3-2.6 6-4.2 8.1-4.2.5 0 1 .1 1.3.3 1.5.9 2.6 4.7 1.4 10.8-.1.3-.2.7-.3 1.1-2.2-.5-4.7-.9-7.2-1.1-1.5-2.1-3-4.1-4.6-5.7.5-.5.9-.9 1.3-1.2zm-2.8 2.8c1.1 1.2 2.1 2.4 3.2 3.8-1.1-.1-2.1-.1-3.2-.1s-2.1 0-3.2.1c1-1.4 2.1-2.6 3.2-3.8zM159 5.9c.3-1.6.9-2.8 1.7-3.2.4-.2.8-.3 1.4-.3 2.2 0 5.5 1.7 8.6 4.5.3.2.5.5.8.8-1.6 1.7-3.1 3.6-4.6 5.7-2.5.2-5 .6-7.2 1.1-.1-.6-.3-1.1-.4-1.7-.6-2.7-.7-5-.3-6.9zM158 31c-.5-.1-.9-.3-1.3-.4-5.7-2-8.3-4.8-8.3-6.6 0-1.7 2.4-4.3 7.8-6.2.6-.2 1.2-.4 1.9-.6.7 2.2 1.6 4.5 2.6 6.8-1.1 2.4-2 4.8-2.7 7z"/><path class="st0" d="M181.1 26.1L173 39.6l3.8 22.4h4v-6h4v5.9l12 .1v-6h4v6h4l3.1-22.6-7.8-13.4h-19zM200.9 52h-20l-2-12 4-6h6v2h4v-2h6l4 6-2 12z"/><path class="st0" d="M186.4 48h-1c-.3 0-.5-.2-.5-.5v-5c0-.3.2-.5.5-.5h1c.3 0 .5.2.5.5v5c0 .3-.3.5-.5.5zM196.4 48h-1c-.3 0-.5-.2-.5-.5v-5c0-.3.2-.5.5-.5h1c.3 0 .5.2.5.5v5c0 .3-.3.5-.5.5z"/><g><path class="st0" d="M126 33V17c0-.5-.5-1-1-1h-16c-.5 0-1 .5-1 1v3.3l8.7 5.2 1.4 2.7 1.4 5.7h5.5c.5.1 1-.4 1-.9z"/><path class="st0" d="M127 10h-20.1c-1.6 0-3 .8-3.9 2v2.4c.9 1.2 1.6 2.5 1.9 4.1l1.1.7V17c0-1.7 1.3-3 3-3h16c1.7 0 3 1.3 3 3v16c0 1.6-1.3 3-3 3h-5l.2.8-.1 2.8-.2.4h7.1c2.7 0 5-2.2 5-5V15c0-2.8-2.3-5-5-5zM96 13c-3.9 0-7 3.1-7 7s3.1 7 7 7 7-3.1 7-7-3.1-7-7-7zm0 10c-1.7 0-3-1.3-3-3s1.3-3 3-3 3 1.3 3 3-1.3 3-3 3zM74 37h5l2-4-5-4zM90.2 26.9c-1.8-1.5-2.9-3.6-3.2-6v.1l-10 6 5 4 8.2-4.1zM79 48v-9h-5.1.1z"/><path class="st0" d="M118.1 37h-4.9l-2-4 5-4zM101.9 26.9c1.8-1.5 2.9-3.6 3.2-6l.1.2 10 6-5 4-8.3-4.2zM113 48v-9h5.2-.1zM91 12.5c1.4-1 3.2-1.5 5-1.5s3.6.6 5 1.5V0H91v12.5zM133 4h-20c-2.4 0-4.4 1.7-4.9 4H127c3.8 0 7 3.1 7 7v18.9c2.3-.5 4-2.5 4-4.9V9c0-2.8-2.2-5-5-5z"/><g><path class="st0" d="M104 40H88c-.5 0-1 .5-1 1v16c0 .5.5 1 1 1h16c.5 0 1-.5 1-1V41c0-.5-.5-1-1-1z"/><path class="st0" d="M111 39c0-2.7-2.2-5-5-5H86c-2.7 0-5 2.2-5 5v20c0 2.7 2.2 5 5 5h20c2.7 0 5-2.2 5-5V39zm-4 18c0 1.6-1.3 3-3 3H88c-1.6 0-3-1.4-3-3V41c0-1.7 1.4-3 3-3h16c1.7 0 3 1.3 3 3v16z"/></g></g><g><path class="st0" d="M58.8 21.8l-6.2-6.2c-6.4-6.4-10.4-6.7-12.2-5l-.6.6-2.8 2.9-22.7 22.7-3.6 3.6c-1.8 1.8-1.5 5.8 4.3 11.5l6.2 6.2c6.4 6.4 10.4 6.7 12.2 5l3.6-3.6 22.6-22.6 2.8-2.8.6-.6c1.8-2 1.5-5.9-4.2-11.7zm-5.6-2.7l1.4 1.4c.4.4.4 1 0 1.4-.4.4-1 .4-1.4 0l-1.4-1.4c-.4-.4-.4-1 0-1.4s1-.4 1.4 0zM32.7 60.8L12.9 41l28.3-28.3L61 32.5 32.7 60.8z"/><path class="st0" d="M29 26.3l6.8 7.1 2.1-2.1-6.1-7.9zM44.3 34.1l-4.4-8-2.3 2.3 5.1 7.3zM39.1 32.9l-1.9 1.9 2.2 2.3 1.7-1.7zM22.2 35.7l6.3 3.5 2.2-2.2-5.8-4zM32.5 38.2l-2 2 4.3 2.4 1.7-1.7zM21.7 22.1l-3.6 3.3 17.5 13.4 1.8-1.8zM18.7 33.8l2.9-3-13.9-9.5-4.2 4.2zM36.1 26.2l2.5-2.5-12.3-22-4.2 4.2zM26.1 23.2l3.1-3.1L15.6 2.4l-4.8 4.8zM14.2 22.6l3.9-3.9L5.8 7.2.7 12.3z"/></g></g></svg>